<?xml version="1.0" encoding="utf-8"?>
<!-- Generator: Adobe Illustrator 16.0.4, SVG Export Plug-In . SVG Version: 6.00 Build 0)  -->
<!DOCTYPE svg PUBLIC "-//W3C//DTD SVG 1.1//EN" "http://www.w3.org/Graphics/SVG/1.1/DTD/svg11.dtd">
<svg version="1.1" id="Layer_1" xmlns="http://www.w3.org/2000/svg" xmlns:xlink="http://www.w3.org/1999/xlink" x="0px" y="0px"
	 width="16px" height="16px" viewBox="0 0 16 16" enable-background="new 0 0 16 16" xml:space="preserve">
<g>
	<path id="Blue_1_" fill="#3B5999" d="M15.094,0.023H0.904c-0.486,0-0.88,0.395-0.88,0.881v14.191c0,0.487,0.394,0.881,0.88,0.881
		h14.19c0.488,0,0.883-0.394,0.883-0.881V0.904C15.977,0.418,15.582,0.023,15.094,0.023z"/>
	<path id="Blue_3_" fill="#FFFFFF" d="M8.544,15.977V9.8H6.466V7.392h2.078V5.616c0-2.061,1.26-3.183,3.098-3.183
		c0.879,0,1.637,0.065,1.857,0.095v2.152l-1.275,0.002c-1,0-1.193,0.475-1.193,1.172v1.537h2.383L13.105,9.8h-2.074v6.177H8.544z"/>
</g>
</svg>
