<?xml version="1.0" encoding="utf-8"?>
<!-- Generator: Adobe Illustrator 16.0.4, SVG Export Plug-In . SVG Version: 6.00 Build 0)  -->
<!DOCTYPE svg PUBLIC "-//W3C//DTD SVG 1.1//EN" "http://www.w3.org/Graphics/SVG/1.1/DTD/svg11.dtd">
<svg version="1.1" id="Layer_1" xmlns="http://www.w3.org/2000/svg" xmlns:xlink="http://www.w3.org/1999/xlink" x="0px" y="0px"
	 width="16px" height="16px" viewBox="0 0 16 16" enable-background="new 0 0 16 16" xml:space="preserve">
<path id="Blue_2_" fill="#FFFFFF" d="M15.094,0.023H0.904c-0.486,0-0.88,0.395-0.88,0.881v14.191c0,0.487,0.394,0.881,0.88,0.881
	h14.19c0.488,0,0.883-0.394,0.883-0.881V0.904C15.977,0.418,15.582,0.023,15.094,0.023z"/>
<g>
	<path fill="#CA2027" d="M8,3.435C5.479,3.435,3.435,5.479,3.435,8c0,1.869,1.125,3.475,2.733,4.182
		c-0.013-0.319-0.002-0.702,0.08-1.049c0.087-0.37,0.587-2.488,0.587-2.488S6.688,8.354,6.688,7.923c0-0.677,0.392-1.183,0.88-1.183
		c0.416,0,0.616,0.312,0.616,0.686c0,0.418-0.267,1.042-0.403,1.621C7.667,9.531,8.024,9.926,8.502,9.926
		c0.865,0,1.448-1.111,1.448-2.427c0-1-0.675-1.75-1.9-1.75c-1.385,0-2.248,1.033-2.248,2.187c0,0.397,0.118,0.678,0.301,0.895
		c0.084,0.1,0.096,0.14,0.065,0.254C6.147,9.169,6.097,9.372,6.076,9.452C6.045,9.567,5.952,9.608,5.847,9.566
		C5.209,9.306,4.913,8.607,4.913,7.822c0-1.297,1.094-2.852,3.263-2.852c1.744,0,2.89,1.261,2.89,2.615
		c0,1.791-0.995,3.129-2.463,3.129c-0.493,0-0.956-0.267-1.115-0.568c0,0-0.265,1.051-0.321,1.255
		c-0.097,0.352-0.286,0.703-0.459,0.978C7.117,12.5,7.551,12.565,8,12.565c2.521,0,4.565-2.044,4.565-4.565S10.521,3.435,8,3.435z"
		/>
</g>
</svg>
