<?xml version="1.0" encoding="utf-8"?>
<!-- Generator: Adobe Illustrator 16.0.4, SVG Export Plug-In . SVG Version: 6.00 Build 0)  -->
<!DOCTYPE svg PUBLIC "-//W3C//DTD SVG 1.1//EN" "http://www.w3.org/Graphics/SVG/1.1/DTD/svg11.dtd">
<svg version="1.1" id="Layer_1" xmlns="http://www.w3.org/2000/svg" xmlns:xlink="http://www.w3.org/1999/xlink" x="0px" y="0px"
	 width="16px" height="16px" viewBox="0 0 16 16" enable-background="new 0 0 16 16" xml:space="preserve">
<path id="Blue_2_" fill="#FFFFFF" d="M15.094,0.023H0.904c-0.486,0-0.88,0.395-0.88,0.881v14.191c0,0.487,0.394,0.881,0.88,0.881
	h14.19c0.488,0,0.883-0.394,0.883-0.881V0.904C15.977,0.418,15.582,0.023,15.094,0.023z"/>
<path fill="#2AA9E0" d="M12.234,5.373c-0.312,0.139-0.646,0.232-0.997,0.274c0.357-0.216,0.634-0.557,0.764-0.961
	c-0.337,0.198-0.708,0.343-1.104,0.421c-0.317-0.339-0.77-0.549-1.269-0.549c-0.96,0-1.737,0.777-1.737,1.737
	c0,0.136,0.015,0.269,0.044,0.396C6.492,6.619,5.212,5.928,4.354,4.876C4.206,5.133,4.12,5.432,4.12,5.75
	c0,0.603,0.307,1.135,0.774,1.445C4.608,7.188,4.34,7.108,4.106,6.979c0,0.008,0,0.015,0,0.021c0,0.843,0.598,1.545,1.394,1.705
	C5.354,8.744,5.2,8.766,5.042,8.766c-0.111,0-0.22-0.011-0.327-0.031c0.221,0.69,0.863,1.192,1.623,1.206
	c-0.594,0.467-1.344,0.744-2.158,0.744c-0.14,0-0.278-0.008-0.414-0.024c0.768,0.494,1.682,0.781,2.663,0.781
	c3.197,0,4.945-2.648,4.945-4.943c0-0.076-0.002-0.15-0.006-0.226C11.706,6.027,12.001,5.722,12.234,5.373z"/>
</svg>
