<?xml version="1.0" encoding="utf-8"?>
<!-- Generator: Adobe Illustrator 16.0.4, SVG Export Plug-In . SVG Version: 6.00 Build 0)  -->
<!DOCTYPE svg PUBLIC "-//W3C//DTD SVG 1.1//EN" "http://www.w3.org/Graphics/SVG/1.1/DTD/svg11.dtd">
<svg version="1.1" id="Layer_1" xmlns="http://www.w3.org/2000/svg" xmlns:xlink="http://www.w3.org/1999/xlink" x="0px" y="0px"
	 width="288px" height="30.1099px" viewBox="0 0 288 30.1099" enable-background="new 0 0 288 30.1099" xml:space="preserve">
<g>
	<g>
		<path fill="#019BB2" d="M20.9961,11.0049h-3.666l-0.6367-3.3481c-0.4238-0.2686-1.0435-0.5029-1.8579-0.7041
			c-0.8154-0.2002-1.6802-0.3013-2.5957-0.3013c-1.3394,0-2.374,0.2822-3.106,0.8457c-0.731,0.5635-1.0962,1.292-1.0962,2.1851
			c0,0.8257,0.3823,1.5039,1.147,2.0342s2.0845,1.0913,3.9595,1.6826c2.6899,0.748,4.73,1.7354,6.1191,2.9639
			c1.3901,1.2275,2.085,2.8398,2.085,4.8379c0,2.0869-0.8267,3.7334-2.4785,4.9395c-1.6514,1.2051-3.8281,1.8076-6.5293,1.8076
			c-1.9312,0-3.6743-0.3057-5.2319-0.9199c-1.5566-0.6143-2.8545-1.4619-3.8926-2.5459v-5.0898h3.7837l0.519,3.4658
			c0.4907,0.4023,1.1577,0.7344,2.001,0.9971c0.8423,0.2617,1.7827,0.3936,2.8208,0.3936c1.3394,0,2.3579-0.2744,3.0552-0.8213
			c0.6982-0.5469,1.0469-1.2773,1.0469-2.1934c0-0.9375-0.3325-1.6914-0.9961-2.2598c-0.6646-0.5693-1.8276-1.1045-3.4907-1.6064
			c-2.8916-0.8369-5.0786-1.8311-6.5635-2.981c-1.4844-1.1494-2.2266-2.7231-2.2266-4.7212c0-1.9761,0.8369-3.5913,2.5112-4.8472
			c1.6743-1.2554,3.7788-1.8999,6.3125-1.9336c1.8745,0,3.583,0.2847,5.1226,0.854c1.5405,0.5688,2.835,1.3281,3.8843,2.2769
			V11.0049z"/>
		<path fill="#019BB2" d="M22.3354,24.6665l1.7412-0.252l7.4175-21.1943H36.5l7.3662,21.1943l1.7417,0.252v2.9307h-8.3042v-2.9307
			l1.6904-0.3018l-1.0713-3.3486H30.02l-1.0708,3.3486l1.6904,0.3018v2.9307h-8.3042V24.6665z M31.1758,17.4175h5.5918
			l-2.7451-8.5889h-0.1011L31.1758,17.4175z"/>
		<path fill="#019BB2" d="M51.0225,6.1665L49.1646,6.501l4.3188,14.6157l0.3013,1.3408h0.1011l0.2847-1.3066L58.5068,6.501
			l-1.8423-0.3345V3.2202h8.9072v2.9463l-2.0425,0.2676l-7.1826,21.1631h-5.0229L44.1245,6.4341l-2.0088-0.2676V3.2202h8.9067
			V6.1665z"/>
		<path fill="#019BB2" d="M83.4863,16.8813h-8.2544v6.9639h7.8691l0.2178-2.9121h3.7168v6.6641H67.7485v-2.9307l2.5947-0.502V6.6685
			l-2.5947-0.502V3.2202h2.5947H87.002v6.6802h-3.7505l-0.2173-2.9141h-7.8022v6.1279h8.2544V16.8813z"/>
	</g>
	<g>
		<path fill="#019BB2" d="M111.4312,22.0972c0.3862,0,0.8931-0.0918,1.5181-0.2744v1.3594
			c-0.2388,0.0977-0.5347,0.1846-0.8867,0.2549c-0.3511,0.0684-0.6313,0.1055-0.8423,0.1055c-0.8794,0-1.5527-0.21-2.0205-0.6279
			c-0.4673-0.4189-0.7017-1.0439-0.7017-1.873c0-0.4629,0.0645-0.9902,0.1899-1.582l1.3403-6.3491h-1.8145l0.1475-0.77
			l1.9517-0.8218l1.3184-2.4053h1.0327l-0.5791,2.6577h2.8896l-0.2749,1.3394h-2.8784l-1.3618,6.3687
			c-0.125,0.6143-0.189,1.0771-0.189,1.3926c0,0.3936,0.1016,0.6973,0.3062,0.9072
			C110.7812,21.9907,111.0654,22.0972,111.4312,22.0972z"/>
		<path fill="#019BB2" d="M121.9565,23.3296l1.5596-7.2979c0.1265-0.6611,0.1899-1.1353,0.1899-1.4233
			c0-1.0405-0.5161-1.5615-1.5503-1.5615c-0.625,0-1.2349,0.207-1.8291,0.623c-0.5947,0.4146-1.1187,1.0171-1.5728,1.8081
			c-0.4526,0.791-0.7949,1.7432-1.0283,2.8623l-1.0645,4.9893h-1.7715l3.4814-16.4097h1.7695
			c-0.125,0.5757-0.2466,1.1353-0.3623,1.6768c-0.1162,0.541-0.2354,1.0913-0.3589,1.6504
			c-0.1235,0.5581-0.2563,1.144-0.4019,1.7554c-0.1431,0.6128-0.3105,1.2764-0.5005,1.9937h0.1177
			c0.6597-0.8647,1.312-1.4829,1.9556-1.8555c0.6431-0.373,1.3154-0.5596,2.019-0.5596c0.9204,0,1.6338,0.2524,2.1357,0.7593
			c0.5024,0.5063,0.7549,1.2231,0.7549,2.1514c0,0.4365-0.0811,1.0195-0.2427,1.75c-0.2749,1.3594-0.7842,3.7197-1.5288,7.0879
			H121.9565z"/>
		<path fill="#019BB2" d="M131.4907,23.5425c-1.293,0-2.3086-0.3857-3.0464-1.1494c-0.7402-0.7676-1.1079-1.8291-1.1079-3.1865
			c0-1.3232,0.2603-2.5889,0.7856-3.8027c0.5234-1.2119,1.2173-2.1572,2.083-2.8306c0.8647-0.6758,1.8179-1.0132,2.8569-1.0132
			c1.0757,0,1.8853,0.2344,2.4263,0.7017c0.542,0.4678,0.812,1.1187,0.812,1.9565c0,1.2656-0.583,2.2578-1.7505,2.9795
			c-1.1665,0.7197-2.8369,1.082-5.0093,1.082h-0.3486l-0.0415,0.8428c0,0.9209,0.2153,1.6406,0.6484,2.1562
			c0.4326,0.5166,1.1021,0.7764,2.0088,0.7764c0.4424,0,0.8984-0.0645,1.3667-0.1895c0.4673-0.1279,1.0483-0.3604,1.7446-0.6992
			v1.541c-0.6611,0.3096-1.2446,0.5244-1.7505,0.6475C132.6621,23.48,132.103,23.5425,131.4907,23.5425z M132.9575,13.0688
			c-0.7246,0-1.4048,0.3301-2.0415,0.9897c-0.6357,0.6611-1.123,1.5801-1.4604,2.7524h0.127c1.603,0,2.8325-0.207,3.686-0.626
			c0.854-0.4185,1.2812-1.0249,1.2812-1.8193c0-0.3721-0.1284-0.6821-0.3857-0.9292
			C133.9077,13.1914,133.5059,13.0688,132.9575,13.0688z"/>
	</g>
	<g>
		<path fill="#019BB2" d="M179.0537,9.5649l-0.1006-0.0166l-6.5293,18.0488h-3.2812l-6.4971-17.9824l-0.0996,0.0171l0.4688,10.6978
			v3.835l2.6113,0.502v2.9307h-10.0957v-2.9307l2.5957-0.502V6.6685l-2.5957-0.502V3.2202h2.5957h6.3789l6.2109,17.9639h0.1006
			l6.2617-17.9639h9.0078v2.9463l-2.6123,0.502v17.4961l2.6123,0.502v2.9307h-10.0957v-2.9307l2.5947-0.502v-3.835L179.0537,9.5649z
			"/>
		<path fill="#019BB2" d="M204.251,16.8813h-8.2539v6.9639h7.8691l0.2178-2.9121h3.7168v6.6641h-19.2871v-2.9307l2.5947-0.502
			V6.6685l-2.5947-0.502V3.2202h2.5947h16.6582v6.6802h-3.75l-0.2168-2.9141h-7.8027v6.1279h8.2539V16.8813z"/>
		<path fill="#019BB2" d="M233.9355,9.5649l-0.1006-0.0166l-6.5293,18.0488h-3.2812l-6.4971-17.9824l-0.0996,0.0171l0.4688,10.6978
			v3.835l2.6113,0.502v2.9307h-10.0957v-2.9307l2.5957-0.502V6.6685l-2.5957-0.502V3.2202h2.5957h6.3789l6.2109,17.9639h0.1006
			L231.96,3.2202h9.0078v2.9463l-2.6113,0.502v17.4961l2.6113,0.502v2.9307h-10.0957v-2.9307l2.5947-0.502v-3.835L233.9355,9.5649z"
			/>
		<path fill="#019BB2" d="M259.1309,16.8813h-8.2549v6.9639h7.8682l0.2188-2.9121h3.7168v6.6641h-19.2871v-2.9307l2.5947-0.502
			V6.6685l-2.5947-0.502V3.2202h2.5947h16.6592v6.6802h-3.751l-0.2168-2.9141h-7.8027v6.1279h8.2549V16.8813z"/>
		<path fill="#019BB2" d="M283.8096,11.0049h-3.667l-0.6357-3.3481c-0.4248-0.2686-1.0439-0.5029-1.8604-0.7041
			c-0.8145-0.2002-1.6777-0.3013-2.5938-0.3013c-1.3398,0-2.3721,0.2822-3.1035,0.8457c-0.7305,0.5635-1.0996,1.292-1.0996,2.1851
			c0,0.8257,0.3848,1.5039,1.1494,2.0342s2.082,1.0913,3.958,1.6826c2.6904,0.748,4.7324,1.7354,6.1221,2.9639
			c1.3887,1.2275,2.0811,2.8398,2.0811,4.8379c0,2.0869-0.8252,3.7334-2.4785,4.9395c-1.6514,1.2051-3.8281,1.8076-6.5293,1.8076
			c-1.9297,0-3.6709-0.3057-5.2295-0.9199c-1.5566-0.6143-2.8564-1.4619-3.8955-2.5459v-5.0898h3.7852l0.5195,3.4658
			c0.4902,0.4023,1.1602,0.7344,2.002,0.9971c0.8438,0.2617,1.7812,0.3936,2.8184,0.3936c1.3398,0,2.3613-0.2744,3.0586-0.8213
			s1.0439-1.2773,1.0439-2.1934c0-0.9375-0.3291-1.6914-0.9941-2.2598c-0.6641-0.5693-1.8311-1.1045-3.4932-1.6064
			c-2.8906-0.8369-5.0781-1.8311-6.5635-2.981c-1.4844-1.1494-2.2266-2.7231-2.2266-4.7212c0-1.9761,0.8369-3.5913,2.5127-4.8472
			c1.6729-1.2554,3.7783-1.8999,6.3115-1.9336c1.875,0,3.582,0.2847,5.123,0.854c1.541,0.5688,2.834,1.3281,3.8848,2.2769V11.0049z"
			/>
	</g>
</g>
</svg>
