<?xml version="1.0" encoding="utf-8"?>
<!-- Generator: Adobe Illustrator 16.0.4, SVG Export Plug-In . SVG Version: 6.00 Build 0)  -->
<!DOCTYPE svg PUBLIC "-//W3C//DTD SVG 1.1//EN" "http://www.w3.org/Graphics/SVG/1.1/DTD/svg11.dtd">
<svg version="1.1" xmlns="http://www.w3.org/2000/svg" xmlns:xlink="http://www.w3.org/1999/xlink" x="0px" y="0px" width="462px"
	 height="581.4062px" viewBox="0 0 462 581.4062" enable-background="new 0 0 462 581.4062" xml:space="preserve">
<g id="Base_Layer" display="none">
	<rect x="-61" y="-87.5938" display="inline" fill="#F9F8F3" width="612" height="792"/>
</g>
<g id="Layer_2">
	<g display="none">
		<g display="inline">
			
				<rect x="73.6139" y="103.4874" transform="matrix(-0.0719 0.9974 -0.9974 -0.0719 211.6845 38.5744)" fill="#00A651" width="28.5648" height="28.5643"/>
		</g>
		<g display="inline">
			<g>
				<path fill="#FFFFFF" d="M76.0669,104.1006l25.498,1.8394l-1.8389,25.498l-25.4985-1.8389L76.0669,104.1006 M73.2905,100.8926
					l-0.2158,2.9922l-1.8394,25.4985l-0.2158,2.9922l2.9922,0.2158l25.4985,1.8389l2.9922,0.2158l0.2158-2.9922l1.8389-25.498
					l0.2158-2.9922l-2.9922-0.2158l-25.498-1.8394L73.2905,100.8926L73.2905,100.8926z"/>
			</g>
		</g>
	</g>
	<g display="none">
		<defs>
			<path id="SVGID_1_" d="M6.0596,0v31.6699c0,45.3628,36.7744,82.1362,82.1367,82.1362c45.3628,0,82.1367-36.7734,82.1367-82.1362
				V0H6.0596z"/>
		</defs>
		<clipPath id="SVGID_2_" display="inline">
			<use xlink:href="#SVGID_1_"  overflow="visible"/>
		</clipPath>
		<g display="inline" clip-path="url(#SVGID_2_)">
			<g>
				<g>
					
						<rect x="142.3219" y="38.5312" transform="matrix(-0.8951 0.4458 -0.4458 -0.8951 320.3284 30.2696)" fill="#ED1C24" width="28.5636" height="28.5641"/>
				</g>
				<g>
					<g>
						<path fill="#FFFFFF" d="M162.3462,35.6733l11.3979,22.8828l-22.8833,11.3979l-11.3975-22.8838L162.3462,35.6733
							 M163.6938,31.6504l-2.6851,1.3374l-22.8828,11.397l-2.6855,1.3379l1.3374,2.6851l11.3975,22.8838l1.3379,2.6855
							l2.6851-1.3374l22.8833-11.3979l2.6855-1.3379l-1.3374-2.6851l-11.3979-22.8828L163.6938,31.6504L163.6938,31.6504z"/>
					</g>
				</g>
			</g>
			<g>
				<g>
					
						<rect x="6.2967" y="41.581" transform="matrix(-0.948 0.3183 -0.3183 -0.948 57.8665 102.272)" fill="#00A651" width="28.5643" height="28.564"/>
				</g>
				<g>
					<g>
						<path fill="#FFFFFF" d="M28.6279,39.6777l8.1367,24.2349l-24.2354,8.1372L4.3931,47.814L28.6279,39.6777 M30.5171,35.8789
							l-2.8438,0.9546L3.4385,44.9697l-2.8442,0.9551l0.9546,2.8438l8.1362,24.2358l0.9551,2.8442l2.8442-0.9551l24.2354-8.1372
							l2.8438-0.9546l-0.9551-2.8442l-8.1367-24.2349L30.5171,35.8789L30.5171,35.8789z"/>
					</g>
				</g>
			</g>
			<g>
				<g>
					
						<rect x="36.8524" y="44.1134" transform="matrix(-0.9911 0.1331 -0.1331 -0.9911 109.5872 109.4652)" fill="#2E3192" width="28.5643" height="28.5647"/>
				</g>
				<g>
					<g>
						<path fill="#FFFFFF" d="M62.1016,44.0259l3.4023,25.3369l-25.3374,3.4028l-3.4019-25.3369L62.1016,44.0259 M64.6758,40.6533
							l-2.9736,0.3994l-25.3369,3.4028l-2.9731,0.3989l0.3994,2.9736l3.4019,25.3369l0.3989,2.9731l2.9736-0.3994l25.3374-3.4028
							l2.9731-0.3989l-0.3994-2.9736l-3.4023-25.3369L64.6758,40.6533L64.6758,40.6533z"/>
					</g>
				</g>
			</g>
			<g>
				<g>
					
						<rect x="19.6386" y="59.6578" transform="matrix(-0.7071 0.7071 -0.7071 -0.7071 110.1882 102.2408)" fill="#D7FF51" width="28.5636" height="28.5643"/>
				</g>
				<g>
					<g>
						<path fill="#FFFFFF" d="M33.9204,55.8638l18.0767,18.0767L33.9194,92.0171L15.8433,73.9395L33.9204,55.8638 M33.9204,51.6211
							l-2.1211,2.1211L13.7222,71.8179l-2.1216,2.1216l2.1211,2.1211l18.0762,18.0776l2.1216,2.1216l2.1211-2.1211L54.1182,76.062
							l2.1216-2.1216l-2.1216-2.1211L36.0415,53.7427L33.9204,51.6211L33.9204,51.6211z"/>
					</g>
				</g>
			</g>
			<g>
				<g>
					
						<rect x="69.2247" y="47.5157" transform="matrix(-0.0719 0.9974 -0.9974 -0.0719 151.1529 -17.0466)" fill="#00A651" width="28.5648" height="28.5643"/>
				</g>
				<g>
					<g>
						<path fill="#FFFFFF" d="M71.6777,48.1289l25.498,1.8394l-1.8389,25.498l-25.4985-1.8389L71.6777,48.1289 M68.9014,44.9209
							l-0.2158,2.9922l-1.8394,25.4985l-0.2158,2.9922l2.9922,0.2158l25.4985,1.8389l2.9922,0.2158l0.2158-2.9922l1.8389-25.498
							l0.2158-2.9922l-2.9922-0.2158l-25.498-1.8394L68.9014,44.9209L68.9014,44.9209z"/>
					</g>
				</g>
			</g>
			<g>
				<g>
					
						<rect x="91.054" y="47.5159" transform="matrix(-0.1043 0.9945 -0.9945 -0.1043 177.7809 -36.5212)" fill="#ED1C24" width="28.5654" height="28.5634"/>
				</g>
				<g>
					<g>
						<path fill="#FFFFFF" d="M93.9575,47.752l25.4243,2.6655l-2.6646,25.4253l-25.4253-2.665L93.9575,47.752 M91.2866,44.4556
							l-0.313,2.9834l-2.665,25.4258l-0.313,2.9839l2.9839,0.313l25.4248,2.665l2.9839,0.3125l0.313-2.9839l2.6646-25.4253
							l0.3125-2.9834l-2.9834-0.313l-25.4243-2.665L91.2866,44.4556L91.2866,44.4556z"/>
					</g>
				</g>
			</g>
			<g>
				<g>
					
						<rect x="48.2214" y="61.2534" transform="matrix(-0.8951 0.4458 -0.4458 -0.8951 152.1266 115.2832)" fill="#ED1C24" width="28.5636" height="28.5641"/>
				</g>
				<g>
					<g>
						<path fill="#FFFFFF" d="M68.2456,58.3955l11.3979,22.8828L56.7603,92.6763L45.3628,69.7925L68.2456,58.3955 M69.5933,54.3726
							L66.9082,55.71l-22.8828,11.397l-2.6855,1.3374l1.3374,2.6855l11.3975,22.8838l1.3379,2.6855l2.6851-1.3374L80.981,83.9639
							l2.6855-1.3379l-1.3374-2.6851L70.9312,57.0581L69.5933,54.3726L69.5933,54.3726z"/>
					</g>
				</g>
			</g>
			<g>
				<g>
					
						<rect x="29.1689" y="78.6195" transform="matrix(-0.9595 0.2817 -0.2817 -0.9595 111.3124 169.801)" fill="#00A651" width="28.564" height="28.5642"/>
				</g>
				<g>
					<g>
						<path fill="#FFFFFF" d="M52.1143,77.0366l7.2021,24.5288l-24.5293,7.2021l-7.2017-24.5298L52.1143,77.0366 M54.1475,73.313
							l-2.8784,0.8452l-24.5288,7.2012l-2.8784,0.8452l0.8452,2.8784l7.2017,24.5298l0.8452,2.8784l2.8784-0.8452l24.5293-7.2021
							l2.8784-0.8452l-0.8452-2.8784l-7.2021-24.5288L54.1475,73.313L54.1475,73.313z"/>
					</g>
				</g>
			</g>
			<g>
				<g>
					
						<rect x="73.914" y="77.0237" transform="matrix(-0.4829 0.8757 -0.8757 -0.4829 210.7408 58.1669)" fill="#2E3192" width="28.5645" height="28.5645"/>
				</g>
				<g>
					<g>
						<path fill="#FFFFFF" d="M83.1758,73.9404l22.3862,12.3447l-12.3447,22.3862L70.8306,96.3267L83.1758,73.9404 M81.9976,69.8647
							l-1.4487,2.627L68.2036,94.8779l-1.4487,2.627l2.627,1.4487l22.3867,12.3447l2.627,1.4487l1.4487-2.627l12.3447-22.3862
							l1.4487-2.627l-2.627-1.4487L84.6245,71.3135L81.9976,69.8647L81.9976,69.8647z"/>
					</g>
				</g>
			</g>
			<g>
				<g>
					
						<rect x="97.4075" y="59.6577" transform="matrix(-0.969 0.2471 -0.2471 -0.969 238.1858 117.9918)" fill="#D7FF51" width="28.5648" height="28.5645"/>
				</g>
				<g>
					<g>
						<path fill="#FFFFFF" d="M120.9175,58.396l6.3169,24.7715l-24.772,6.3174l-6.3169-24.7725L120.9175,58.396 M123.083,54.748
							l-2.9067,0.7412l-24.772,6.3164l-2.9072,0.7412l0.7412,2.9067l6.3174,24.7725l0.7412,2.9072l2.9067-0.7417l24.772-6.3174
							l2.9072-0.7412l-0.7417-2.9067l-6.3169-24.7715L123.083,54.748L123.083,54.748z"/>
					</g>
				</g>
			</g>
			<g>
				<g>
					
						<rect x="114.9824" y="47.5154" transform="matrix(-0.4829 0.8757 -0.8757 -0.4829 245.8017 -21.5536)" fill="#2E3192" width="28.5645" height="28.5645"/>
				</g>
				<g>
					<g>
						<path fill="#FFFFFF" d="M124.2441,44.4321l22.3862,12.3447l-12.3447,22.3862l-22.3867-12.3447L124.2441,44.4321
							 M123.0659,40.3564l-1.4487,2.627L109.272,65.3696l-1.4487,2.627l2.627,1.4487L132.8369,81.79l2.627,1.4487l1.4487-2.627
							l12.3447-22.3862l1.4487-2.627l-2.627-1.4487l-22.3862-12.3447L123.0659,40.3564L123.0659,40.3564z"/>
					</g>
				</g>
			</g>
			<g>
				<g>
					
						<rect x="120.5865" y="74.9229" transform="matrix(-0.0719 0.9974 -0.9974 -0.0719 233.5463 -38.8962)" fill="#D7FF51" width="28.5648" height="28.5643"/>
				</g>
				<g>
					<g>
						<path fill="#FFFFFF" d="M123.0396,75.5361l25.498,1.8394l-1.8389,25.498l-25.4985-1.8389L123.0396,75.5361 M120.2632,72.3281
							l-0.2158,2.9922l-1.8394,25.4985l-0.2158,2.9922l2.9922,0.2158l25.4985,1.8389l2.9922,0.2158l0.2158-2.9922l1.8389-25.498
							l0.2158-2.9922l-2.9922-0.2158l-25.498-1.8394L120.2632,72.3281L120.2632,72.3281z"/>
					</g>
				</g>
			</g>
			<g>
				<g>
					
						<rect x="53.0382" y="84.4484" transform="matrix(-0.3184 0.948 -0.948 -0.3184 182.3473 66.3482)" fill="#D7FF51" width="28.5646" height="28.5642"/>
				</g>
				<g>
					<g>
						<path fill="#FFFFFF" d="M59.2734,82.5435l24.2339,8.1396l-8.1392,24.2339l-24.2344-8.1392L59.2734,82.5435 M57.3848,78.7441
							l-0.9551,2.8442L48.29,105.8228l-0.9551,2.8438l2.8438,0.9551l24.2344,8.1392l2.8438,0.9551l0.9551-2.8438l8.1392-24.2339
							l0.9551-2.8438l-2.8438-0.9551l-24.2339-8.1396L57.3848,78.7441L57.3848,78.7441z"/>
					</g>
				</g>
			</g>
			<g>
				<g>
					
						<rect x="134.2554" y="57.7825" transform="matrix(-0.9931 0.1176 -0.1176 -0.9931 304.5187 126.1629)" fill="#00A651" width="28.5644" height="28.5644"/>
				</g>
				<g>
					<g>
						<path fill="#FFFFFF" d="M159.728,57.8682l3.0063,25.3872l-25.3877,3.0063l-3.0059-25.3877L159.728,57.8682 M162.3545,54.5361
							l-2.979,0.353l-25.3872,3.0059l-2.9795,0.3525l0.353,2.979l3.0059,25.3877l0.3525,2.9795l2.979-0.353l25.3877-3.0063
							l2.9795-0.3525l-0.353-2.9795l-3.0063-25.3867L162.3545,54.5361L162.3545,54.5361z"/>
					</g>
				</g>
			</g>
			<g>
				<g>
					
						<rect x="97.4077" y="89.818" transform="matrix(-0.8407 0.5415 -0.5415 -0.8407 261.9585 131.1317)" fill="#00A651" width="28.564" height="28.5642"/>
				</g>
				<g>
					<g>
						<path fill="#FFFFFF" d="M115.5132,86.4326l13.8442,21.4912l-21.4917,13.8447L94.022,100.2764L115.5132,86.4326
							 M116.4106,82.2861l-2.522,1.6245L92.3975,97.7544l-2.522,1.6245l1.6245,2.522l13.8438,21.4922l1.6245,2.522l2.522-1.6245
							l21.4917-13.8447l2.522-1.6245l-1.6245-2.522l-13.8442-21.4912L116.4106,82.2861L116.4106,82.2861z"/>
					</g>
				</g>
			</g>
			<g>
				<g>
					
						<rect x="73.6139" y="103.4874" transform="matrix(-0.0719 0.9974 -0.9974 -0.0719 211.6845 38.5744)" fill="#00A651" width="28.5648" height="28.5643"/>
				</g>
				<g>
					<g>
						<path fill="#FFFFFF" d="M76.0669,104.1006l25.498,1.8394l-1.8389,25.498l-25.4985-1.8389L76.0669,104.1006 M73.2905,100.8926
							l-0.2158,2.9922l-1.8394,25.4985l-0.2158,2.9922l2.9922,0.2158l25.4985,1.8389l2.9922,0.2158l0.2158-2.9922l1.8389-25.498
							l0.2158-2.9922l-2.9922-0.2158l-25.498-1.8394L73.2905,100.8926L73.2905,100.8926z"/>
					</g>
				</g>
			</g>
		</g>
	</g>
	<g display="none">
		<g display="inline">
			
				<rect x="73.9135" y="225.4387" transform="matrix(-0.4829 0.8757 -0.8757 -0.4829 340.7031 278.2527)" fill="#2E3192" width="28.5645" height="28.5645"/>
		</g>
		<g display="inline">
			<g>
				<path fill="#FFFFFF" d="M83.1753,222.3555l22.3862,12.3447l-12.3447,22.3862l-22.3867-12.3447L83.1753,222.3555
					 M81.9971,218.2798l-1.4487,2.627L68.2031,243.293l-1.4487,2.627l2.627,1.4487l22.3867,12.3447l2.627,1.4487l1.4487-2.627
					l12.3447-22.3862l1.4487-2.627l-2.627-1.4487L84.624,219.7285L81.9971,218.2798L81.9971,218.2798z"/>
			</g>
		</g>
	</g>
	<g display="none">
		<g display="inline">
			
				<rect x="73.9133" y="182.0816" transform="matrix(-0.2808 0.9598 -0.9598 -0.2808 301.4234 166.8474)" fill="#D7FF51" width="28.565" height="28.5644"/>
		</g>
		<g display="inline">
			<g>
				<path fill="#FFFFFF" d="M79.5166,180.5068l24.5361,7.1772l-7.1768,24.5366l-24.5371-7.1772L79.5166,180.5068 M77.4795,176.7852
					l-0.8423,2.8794l-7.1777,24.5366l-0.8423,2.8794l2.8794,0.8423l24.5371,7.1772l2.8794,0.8423l0.8423-2.8794l7.1768-24.5366
					l0.8423-2.8794l-2.8794-0.8423l-24.5361-7.1772L77.4795,176.7852L77.4795,176.7852z"/>
			</g>
		</g>
	</g>
	<g display="none">
		<g display="inline">
			
				<rect x="73.9147" y="136.8066" transform="matrix(-0.8951 0.4458 -0.4458 -0.8951 234.5021 247.0109)" fill="#ED1C24" width="28.5636" height="28.5641"/>
		</g>
		<g display="inline">
			<g>
				<path fill="#FFFFFF" d="M93.939,133.9487l11.3979,22.8828l-22.8833,11.3979l-11.3975-22.8838L93.939,133.9487 M95.2866,129.9258
					l-2.6851,1.3374l-22.8828,11.397l-2.6855,1.3379l1.3374,2.6851l11.3975,22.8838l1.3379,2.6855l2.6851-1.3374l22.8833-11.3979
					l2.6855-1.3379l-1.3374-2.6851l-11.3979-22.8828L95.2866,129.9258L95.2866,129.9258z"/>
			</g>
		</g>
	</g>
	<g>
		<path fill="#FF3D2B" d="M253.4775,337.4805c-5.0312,0-9.125-4.0938-9.125-9.126v-40.0068c0-3.1021-2.5244-5.626-5.627-5.626
			c-3.1021,0-5.626,2.5239-5.626,5.626v40.0068c0,5.0322-4.0938,9.126-9.126,9.126s-9.126-4.0938-9.126-9.126v-40.0068
			c0-3.1021-2.5244-5.626-5.627-5.626c-3.1021,0-5.626,2.5239-5.626,5.626v12.627c0,5.0322-4.0938,9.126-9.126,9.126h-9.8706v-3.5
			h9.8706c3.1021,0,5.626-2.5239,5.626-5.626v-12.627c0-5.0322,4.0938-9.126,9.126-9.126c5.0327,0,9.127,4.0938,9.127,9.126v40.0068
			c0,3.1025,2.5239,5.626,5.626,5.626s5.626-2.5234,5.626-5.626v-40.0068c0-5.0322,4.0938-9.126,9.126-9.126
			c5.0327,0,9.127,4.0938,9.127,9.126v40.0068c0,3.1025,2.5234,5.626,5.625,5.626c3.1025,0,5.627-2.5234,5.627-5.626v-17.6279
			c0-5.0322,4.0938-9.126,9.126-9.126h8.9893v3.5h-8.9893c-3.1025,0-5.626,2.5239-5.626,5.626v17.6279
			C262.6045,333.3867,258.5098,337.4805,253.4775,337.4805z"/>
	</g>
	<g>
		<path fill="#FF3D2B" d="M285.0254,294.4102c-4.9385,0-8.9414,4.0029-8.9414,8.9404c0,4.9385,4.0029,8.9414,8.9414,8.9414"/>
	</g>
	<g>
		<path fill="#FF3D2B" d="M177.689,317.292c4.938,0,8.9409-4.0029,8.9409-8.9414c0-4.9375-4.0029-8.9404-8.9409-8.9404"/>
	</g>
	<g>
		<path fill="#414042" d="M448.6309,349.3154c0,2.6641-2.1592,4.8232-4.8232,4.8232h-153.96c-2.6641,0-4.8223-2.1592-4.8223-4.8232
			v-99.8511c0-2.6631,2.1582-4.8228,4.8223-4.8228h153.96c2.6641,0,4.8232,2.1597,4.8232,4.8228V349.3154z"/>
	</g>
	<g>
		<path fill="#BCBEC0" d="M380.4043,354.1387h-13.5762H353.251c0,0-0.0381,15.6787-10.0918,15.6787l23.6689,1.0059l23.6699-1.0059
			C380.4443,369.8174,380.4043,354.1387,380.4043,354.1387z"/>
	</g>
	<g>
		<rect x="326.9551" y="370.04" fill="#E6E7E8" width="79.7461" height="3.2051"/>
	</g>
	<g>
		<circle fill="#FF3D2B" cx="216.5972" cy="317.6162" r="4.4819"/>
	</g>
	<g>
		<circle fill="#FF3D2B" cx="231.3384" cy="297.3062" r="4.4824"/>
	</g>
	<g>
		<circle fill="#FF3D2B" cx="246.2354" cy="317.5635" r="4.4824"/>
	</g>
	<g>
		<path fill="#E6E7E8" d="M178.3218,331.2607c0,2.4688-2.001,4.4697-4.4692,4.4697H159.104c-2.4683,0-4.4692-2.001-4.4692-4.4697
			v-45.8198c0-2.4678,2.001-4.4692,4.4692-4.4692h14.7485c2.4683,0,4.4692,2.0015,4.4692,4.4692V331.2607z"/>
	</g>
	<g>
		<path fill="#D1D3D4" d="M154.6348,308.3506v22.9102c0,2.4688,2.001,4.4697,4.4692,4.4697h14.7485
			c2.4683,0,4.4692-2.001,4.4692-4.4697v-22.9102H154.6348z"/>
	</g>
	<g opacity="0.8">
		<path fill="#55E2F9" d="M111.6899,147.8145H64.7026v-37.5474c0,0,11.2617,2.8354,23.4937,2.8354s23.4937-2.8354,23.4937-2.8354
			V147.8145z"/>
	</g>
	<g opacity="0.8">
		<g>
			<path fill="#55E2F9" d="M6.0596,0v31.6699c0,45.3628,36.7744,82.1362,82.1367,82.1362c45.3628,0,82.1367-36.7734,82.1367-82.1362
				V0H6.0596z"/>
		</g>
	</g>
	<g>
		<path fill="#55E2F9" d="M119.2734,151.5322c0,2.9917-1.5435,5.417-3.4468,5.417H60.5659c-1.9033,0-3.4468-2.4253-3.4468-5.417
			v-4.333c0-2.9917,1.5435-5.4175,3.4468-5.4175h55.2607c1.9033,0,3.4468,2.4258,3.4468,5.4175V151.5322z"/>
	</g>
	<g>
		<path fill="#FFFFFF" d="M40.8696,20.7227h-2.1719l-0.377-1.9834c-0.2515-0.1587-0.6182-0.2979-1.1011-0.4165
			c-0.4824-0.1191-0.9951-0.1787-1.5371-0.1787c-0.7935,0-1.4067,0.167-1.8398,0.501s-0.6499,0.7651-0.6499,1.2944
			c0,0.4893,0.2266,0.8911,0.6797,1.2051c0.4526,0.314,1.2349,0.646,2.3457,0.9966c1.5933,0.4429,2.8018,1.0283,3.625,1.7554
			c0.8232,0.7275,1.2349,1.6831,1.2349,2.8667c0,1.2363-0.4897,2.2114-1.4683,2.9258c-0.9785,0.7139-2.2676,1.0713-3.8677,1.0713
			c-1.144,0-2.1772-0.1821-3.0996-0.5459c-0.9224-0.3633-1.6909-0.8657-2.3062-1.5073v-3.0151h2.2417l0.3076,2.0532
			c0.2905,0.2378,0.6855,0.4346,1.1851,0.5898c0.499,0.1553,1.0562,0.2329,1.6714,0.2329c0.7935,0,1.3965-0.1616,1.8101-0.4858
			c0.4131-0.3237,0.6196-0.7568,0.6196-1.2993c0-0.5552-0.1968-1.0015-0.5898-1.3389c-0.3936-0.3374-1.083-0.6548-2.0684-0.9521
			c-1.7124-0.4961-3.0083-1.0845-3.8877-1.7656c-0.8794-0.6807-1.3193-1.6133-1.3193-2.7969c0-1.1704,0.4961-2.1274,1.4878-2.8711
			c0.9917-0.7441,2.2383-1.126,3.7393-1.1455c1.1108,0,2.1226,0.1685,3.0352,0.5059c0.9121,0.3369,1.6792,0.7866,2.3008,1.3486
			V20.7227z"/>
		<path fill="#FFFFFF" d="M57.9927,16.1108v1.7456l-1.5474,0.2974v12.3979h-2.8862l-5.832-9.7197l-0.0596,0.0098v7.6768
			l1.5474,0.2974v1.7358h-5.9805v-1.7358l1.5371-0.2974V18.1538l-1.5371-0.2974v-1.7456h1.5371h2.896l5.832,9.7197l0.0596-0.0098
			v-7.667l-1.5474-0.2974v-1.7456h4.4336H57.9927z"/>
		<path fill="#FFFFFF" d="M58.5225,28.8159l1.0312-0.1484l4.394-12.5566h2.9653l4.3643,12.5566l1.0312,0.1484v1.7358h-4.9194
			v-1.7358l1.002-0.1782l-0.6348-1.9839h-4.6816l-0.6348,1.9839l1.002,0.1782v1.7358h-4.9194V28.8159z M63.7593,24.5215h3.3125
			l-1.6265-5.0879h-0.0596L63.7593,24.5215z"/>
		<path fill="#FFFFFF" d="M81.1494,16.1108c1.6528,0,2.957,0.4248,3.9126,1.2744s1.4336,1.9624,1.4336,3.3374
			c0,1.3823-0.478,2.4932-1.4336,3.3325c-0.9556,0.8398-2.2598,1.2598-3.9126,1.2598h-2.4399v3.2036l1.5474,0.2974v1.7358h-5.9805
			v-1.7358l1.5371-0.2974V18.1538l-1.5371-0.2974v-1.7456h1.5371H81.1494z M78.7095,23.0835h2.4399
			c0.8066,0,1.4165-0.2197,1.8301-0.6597c0.4131-0.4399,0.6196-1,0.6196-1.6812c0-0.6943-0.2065-1.2681-0.6196-1.7207
			c-0.4136-0.4531-1.0234-0.6797-1.8301-0.6797h-2.4399V23.0835z"/>
		<path fill="#FFFFFF" d="M99.4033,20.7227h-2.1719l-0.377-1.9834c-0.2515-0.1587-0.6182-0.2979-1.1011-0.4165
			c-0.4824-0.1191-0.9951-0.1787-1.5371-0.1787c-0.7935,0-1.4067,0.167-1.8398,0.501s-0.6499,0.7651-0.6499,1.2944
			c0,0.4893,0.2266,0.8911,0.6797,1.2051c0.4526,0.314,1.2349,0.646,2.3457,0.9966c1.5933,0.4429,2.8018,1.0283,3.625,1.7554
			c0.8232,0.7275,1.2349,1.6831,1.2349,2.8667c0,1.2363-0.4897,2.2114-1.4683,2.9258c-0.9785,0.7139-2.2676,1.0713-3.8677,1.0713
			c-1.144,0-2.1772-0.1821-3.0996-0.5459c-0.9224-0.3633-1.6909-0.8657-2.3062-1.5073v-3.0151h2.2417l0.3076,2.0532
			c0.2905,0.2378,0.6855,0.4346,1.1851,0.5898c0.499,0.1553,1.0562,0.2329,1.6714,0.2329c0.7935,0,1.3965-0.1616,1.8101-0.4858
			c0.4131-0.3237,0.6196-0.7568,0.6196-1.2993c0-0.5552-0.1968-1.0015-0.5898-1.3389c-0.3936-0.3374-1.083-0.6548-2.0684-0.9521
			c-1.7124-0.4961-3.0083-1.0845-3.8877-1.7656c-0.8794-0.6807-1.3193-1.6133-1.3193-2.7969c0-1.1704,0.4961-2.1274,1.4878-2.8711
			c0.9917-0.7441,2.2383-1.126,3.7393-1.1455c1.1108,0,2.1226,0.1685,3.0352,0.5059c0.9121,0.3369,1.6792,0.7866,2.3008,1.3486
			V20.7227z"/>
		<path fill="#FFFFFF" d="M101.7681,17.8564v-1.7456h5.9805v1.7456l-1.5474,0.2974v4.166h5.8916v-4.166l-1.5474-0.2974v-1.7456
			h1.5474h2.8862h1.5474v1.7456l-1.5474,0.2974v10.3647l1.5474,0.2974v1.7358h-5.981v-1.7358l1.5474-0.2974v-3.9673h-5.8916v3.9673
			l1.5474,0.2974v1.7358h-5.9805v-1.7358l1.5371-0.2974V18.1538L101.7681,17.8564z"/>
		<path fill="#FFFFFF" d="M131.8638,23.4404c0,2.1157-0.6055,3.8647-1.8154,5.2466c-1.21,1.3823-2.7935,2.0732-4.7505,2.0732
			c-1.9507,0-3.5264-0.6909-4.7261-2.0732c-1.2002-1.3818-1.8003-3.1309-1.8003-5.2466v-0.2183
			c0-2.1025,0.5981-3.8481,1.7954-5.2368c1.1963-1.3887,2.77-2.083,4.7207-2.083c1.9575,0,3.5425,0.6943,4.7559,2.083
			s1.8203,3.1343,1.8203,5.2368V23.4404z M128.9775,23.2021c0-1.4941-0.311-2.7075-0.9326-3.6396
			c-0.6216-0.9326-1.5405-1.3984-2.7573-1.3984c-1.2163,0-2.124,0.4629-2.7227,1.3882c-0.5981,0.9258-0.8975,2.1426-0.8975,3.6499
			v0.2383c0,1.521,0.3027,2.7456,0.9077,3.6748c0.605,0.9287,1.5122,1.3936,2.7227,1.3936c1.2231,0,2.1421-0.4648,2.7568-1.3936
			c0.6152-0.9292,0.9229-2.1538,0.9229-3.6748V23.2021z"/>
		<path fill="#FFFFFF" d="M146.4868,16.1108v3.8481h-2.2217l-0.1191-1.6167h-2.6577v10.1763l1.5469,0.2974v1.7358h-5.9902v-1.7358
			l1.5469-0.2974V18.3423h-2.6479l-0.1191,1.6167h-2.2114v-3.8481H146.4868z"/>
		<path fill="#FFFFFF" d="M37.9517,45.0977h-2.1719l-0.377-1.9834c-0.2515-0.1587-0.6182-0.2979-1.1011-0.4165
			c-0.4824-0.1191-0.9951-0.1787-1.5371-0.1787c-0.7935,0-1.4067,0.167-1.8398,0.501s-0.6499,0.7651-0.6499,1.2944
			c0,0.4893,0.2266,0.8911,0.6797,1.2051c0.4526,0.314,1.2349,0.646,2.3457,0.9966c1.5933,0.4429,2.8018,1.0283,3.625,1.7554
			c0.8232,0.7275,1.2349,1.6831,1.2349,2.8667c0,1.2363-0.4897,2.2114-1.4683,2.9258c-0.9785,0.7139-2.2676,1.0713-3.8677,1.0713
			c-1.144,0-2.1772-0.1821-3.0996-0.5459c-0.9224-0.3633-1.6909-0.8657-2.3062-1.5073v-3.0151h2.2417l0.3076,2.0532
			c0.2905,0.2378,0.6855,0.4346,1.1851,0.5898c0.499,0.1553,1.0562,0.2329,1.6714,0.2329c0.7935,0,1.3965-0.1616,1.8101-0.4858
			c0.4131-0.3237,0.6196-0.7568,0.6196-1.2993c0-0.5552-0.1968-1.0015-0.5898-1.3389c-0.3936-0.3374-1.083-0.6548-2.0684-0.9521
			c-1.7124-0.4961-3.0083-1.0845-3.8877-1.7656c-0.8794-0.6807-1.3193-1.6133-1.3193-2.7969c0-1.1704,0.4961-2.1274,1.4878-2.8711
			c0.9917-0.7441,2.2383-1.126,3.7393-1.1455c1.1108,0,2.1226,0.1685,3.0352,0.5059c0.9121,0.3369,1.6792,0.7866,2.3008,1.3486
			V45.0977z"/>
		<path fill="#FFFFFF" d="M49.6392,48.5791h-4.8896v4.126h4.6616l0.1289-1.7256h2.2021v3.9473H40.3164v-1.7358l1.5371-0.2974
			V42.5288l-1.5371-0.2974v-1.7456h1.5371h9.8687v3.9575h-2.2217l-0.1289-1.7261h-4.6221v3.6304h4.8896V48.5791z"/>
		<path fill="#FFFFFF" d="M60.7915,40.4858c1.6396,0,2.9258,0.3755,3.8584,1.1255c0.9321,0.7505,1.3984,1.7871,1.3984,3.1094
			c0,0.7275-0.1953,1.3589-0.5854,1.8945s-0.9619,0.9688-1.7158,1.2993c0.853,0.2515,1.4663,0.6694,1.8398,1.2549
			c0.3735,0.585,0.5605,1.3105,0.5605,2.1768v0.7339c0,0.3174,0.0625,0.564,0.1885,0.7393c0.1255,0.1753,0.3335,0.2793,0.6245,0.312
			l0.3574,0.0498v1.7456h-1.498c-0.9453,0-1.6099-0.2544-1.9932-0.7637c-0.3838-0.5093-0.5757-1.167-0.5757-1.9736v-0.8232
			c0-0.7007-0.1865-1.2515-0.5601-1.6514s-0.9009-0.6099-1.582-0.6299h-2.3706v3.8086l1.5474,0.2974v1.7358h-5.9805v-1.7358
			l1.5371-0.2974V42.5288l-1.5371-0.2974v-1.7456h1.5371H60.7915z M58.7383,46.8535h2.0034c0.8066,0,1.4116-0.1719,1.8154-0.5161
			c0.4028-0.3438,0.605-0.8394,0.605-1.4878c0-0.6479-0.2002-1.165-0.6001-1.5518c-0.4004-0.3872-0.9902-0.5806-1.7705-0.5806
			h-2.0532V46.8535z"/>
		<path fill="#FFFFFF" d="M78.6084,48.5791h-4.8896v4.126h4.6616l0.1289-1.7256h2.2021v3.9473H69.2856v-1.7358l1.5371-0.2974
			V42.5288l-1.5371-0.2974v-1.7456h1.5371h9.8687v3.9575h-2.2217l-0.1289-1.7261h-4.6221v3.6304h4.8896V48.5791z"/>
		<path fill="#FFFFFF" d="M98.0327,40.4858v1.7456l-1.5474,0.2974v12.3979h-2.8862l-5.832-9.7197l-0.0596,0.0098v7.6768
			l1.5474,0.2974v1.7358h-5.9805v-1.7358l1.5371-0.2974V42.5288l-1.5371-0.2974v-1.7456h1.5371h2.896l5.832,9.7197l0.0596-0.0098
			v-7.667l-1.5474-0.2974v-1.7456h4.4336H98.0327z"/>
		<path fill="#FFFFFF" d="M111.9517,53.3198c-0.4697,0.4629-1.1538,0.8813-2.0532,1.2549s-2.0366,0.5605-3.4116,0.5605
			c-1.9507,0-3.5376-0.6533-4.7607-1.959c-1.2236-1.3057-1.835-3.0034-1.835-5.0933v-0.4956c0-2.1621,0.603-3.9209,1.8101-5.2769
			c1.2065-1.355,2.7817-2.0332,4.7261-2.0332c1.1304,0,2.1636,0.1802,3.0991,0.5405c0.9355,0.3608,1.7144,0.8481,2.3359,1.4629
			v2.9062h-2.1426l-0.4062-1.9341c-0.2646-0.2246-0.6138-0.4048-1.0464-0.5405c-0.4331-0.1353-0.9312-0.2031-1.4927-0.2031
			c-1.2632,0-2.2451,0.4658-2.9458,1.3984c-0.7012,0.9321-1.0513,2.1523-1.0513,3.6597v0.5156c0,1.4683,0.3438,2.6401,1.0312,3.5161
			c0.6875,0.8765,1.6797,1.3145,2.9756,1.3145c0.5815,0,1.0527-0.0498,1.4131-0.1489s0.6431-0.2148,0.8481-0.3472v-2.4497
			l-2.063-0.1587v-2.0332h4.9692V53.3198z"/>
		<path fill="#FFFFFF" d="M123.7383,48.5791h-4.8896v4.126h4.6616l0.1289-1.7256h2.2021v3.9473h-11.4258v-1.7358l1.5371-0.2974
			V42.5288l-1.5371-0.2974v-1.7456h1.5371h9.8687v3.9575h-2.2217l-0.1289-1.7261h-4.6221v3.6304h4.8896V48.5791z"/>
		<path fill="#FFFFFF" d="M141.3174,40.4858v3.8481h-2.2217l-0.1191-1.6167h-2.6577v10.1763l1.5469,0.2974v1.7358h-5.9902v-1.7358
			l1.5469-0.2974V42.7173h-2.6479l-0.1191,1.6167h-2.2114v-3.8481H141.3174z"/>
		<path fill="#FFFFFF" d="M143.2656,42.2314v-1.7456h5.981v1.7456l-1.5474,0.2974v10.3647l1.5474,0.2974v1.7358h-5.981v-1.7358
			l1.5474-0.2974V42.5288L143.2656,42.2314z"/>
	</g>
	<g>
		<ellipse cx="132.4595" cy="364.1489" rx="2.4248" ry="1.605"/>
		<ellipse cx="51.3374" cy="373.7437" rx="2.4243" ry="1.605"/>
		<path d="M120.896,367.3604h-12.2905c-1.0918,0.1553-1.9106,0.7988-1.9106,1.5684c0,0.8857,1.0859,1.6045,2.4243,1.6045h2.4341
			c2.6782,0,4.8481,1.4375,4.8481,3.21c0,1.7734-2.1699,3.2109-4.8481,3.2109H63.0669c-2.6777,0-4.8486-1.4375-4.8486-3.2109
			c0-1.7725,2.1709-3.21,4.8486-3.21h11.5352c1.3394,0,2.4248-0.7188,2.4248-1.6045c0-0.7695-0.8184-1.4131-1.9111-1.5684H63.0669
			c-2.6777,0-4.8486-1.4385-4.8486-3.2109s2.1709-3.2109,4.8486-3.2109h24.9629c1.3389,0,2.4238-0.7178,2.4238-1.6045
			s-1.085-1.6055-2.4238-1.6055h-1.2554c-2.6782,0-4.8491-1.4365-4.8491-3.2109c0-1.7725,2.1709-3.21,4.8491-3.21h1.6133h8.4888
			h3.1187h7.3047h1.498c2.6777,0,4.8486,1.4375,4.8486,3.21c0,1.7744-2.1709,3.2109-4.8486,3.2109h0.3213
			c-1.3384,0-2.4243,0.7188-2.4243,1.6055s1.0859,1.6045,2.4243,1.6045h11.7769c2.6782,0,4.8491,1.4385,4.8491,3.2109
			S123.5742,367.3604,120.896,367.3604z"/>
		<ellipse cx="75.3018" cy="354.5181" rx="2.4243" ry="1.605"/>
	</g>
	<g>
		<polygon fill="#E6E7E8" points="111.4268,260.0093 64.9658,260.0093 59.4385,239.4258 116.9541,239.4258 		"/>
	</g>
	<g>
		<polygon fill="#D1D3D4" points="111.4268,260.0093 116.9541,239.4258 91.0879,239.4258 88.1953,260.0093 		"/>
	</g>
	<g>
		<rect x="14.8984" y="260.0093" fill="#BCBEC0" width="145.9956" height="93.5981"/>
	</g>
	<g>
		<polygon points="150.2627,362.585 140.644,362.585 138.0791,353.6074 152.8276,353.6074 		"/>
	</g>
	<g>
		<polygon points="36.2964,362.585 26.6782,362.585 24.1133,353.6074 38.8618,353.6074 		"/>
	</g>
	<g>
		<polygon fill="#A7A9AC" points="160.894,353.6074 160.894,301.7881 14.8984,325.0684 14.9531,353.6074 		"/>
	</g>
	<g>
		<path fill="#FFFFFF" d="M27.1479,281.2153h-1.8169v-10.7622h2.833l3.2485,6.7588l3.249-6.7588h2.8174v10.7622h-1.8169v-8.4067
			l-3.7568,7.4673h-1.0161l-3.7412-7.4673V281.2153z"/>
		<path fill="#FFFFFF" d="M48.0254,270.4531v1.709h-5.7427v2.8481h5.1577v1.6167h-5.1577v2.8794h5.9277v1.709h-7.7446v-10.7622
			H48.0254z"/>
		<path fill="#FFFFFF" d="M52.3521,281.2153h-1.8169v-10.7622h2.833l3.2485,6.7588l3.249-6.7588h2.8174v10.7622h-1.8169v-8.4067
			l-3.7568,7.4673h-1.0161l-3.7412-7.4673V281.2153z"/>
		<path fill="#FFFFFF" d="M73.23,270.4531v1.709h-5.7427v2.8481h5.1577v1.6167h-5.1577v2.8794h5.9277v1.709h-7.7446v-10.7622H73.23z
			"/>
		<path fill="#FFFFFF" d="M28.3101,286.749h0.9087v1.8403c-0.5083,0.5591-1.2344,0.8389-2.1787,0.8389
			c-0.7959,0-1.4614-0.2617-1.998-0.7852c-0.5361-0.5234-0.8042-1.1855-0.8042-1.9863c0-0.8003,0.2734-1.4678,0.8198-2.0015
			s1.2075-0.8008,1.9824-0.8008s1.4189,0.2261,1.9321,0.6777l-0.4849,0.6929c-0.2104-0.1797-0.4224-0.3042-0.6353-0.3735
			s-0.4604-0.104-0.7427-0.104c-0.5444,0-1.001,0.1758-1.3706,0.5273c-0.3691,0.3516-0.5542,0.8135-0.5542,1.3857
			s0.1797,1.0317,0.5391,1.3779c0.3589,0.3467,0.7939,0.52,1.3047,0.52s0.938-0.1104,1.2817-0.3311V286.749z"/>
		<path fill="#FFFFFF" d="M34.1919,283.9854v0.8545h-2.8716v1.4243h2.5791v0.8086h-2.5791v1.4395h2.9639v0.8545h-3.8726v-5.3813
			H34.1919z"/>
		<path fill="#FFFFFF" d="M39.4805,283.9854h0.9082v5.3813h-0.9854l-3.0483-3.9263v3.9263h-0.9087v-5.3813h0.9087l3.1255,4.0186
			V283.9854z"/>
		<path fill="#FFFFFF" d="M45.6626,283.9854v0.8545H42.791v1.4243h2.5791v0.8086H42.791v1.4395h2.9639v0.8545h-3.8726v-5.3813
			H45.6626z"/>
		<path fill="#FFFFFF" d="M51.2129,285.7329c0,0.8882-0.3877,1.4473-1.1626,1.6782l1.4092,1.9556h-1.1548l-1.2856-1.8091h-1.1934
			v1.8091H46.917v-5.3813h2.002c0.8208,0,1.4087,0.1387,1.7627,0.416C51.0356,284.6782,51.2129,285.1226,51.2129,285.7329z
			 M50.0044,286.4951c0.1846-0.1592,0.2769-0.4146,0.2769-0.7661c0-0.3511-0.0947-0.5928-0.2847-0.7236
			s-0.5288-0.1963-1.0161-0.1963h-1.1548v1.9248h1.1313C49.4702,286.7339,49.8193,286.6543,50.0044,286.4951z"/>
		<path fill="#FFFFFF" d="M53.2837,288.1426l-0.5386,1.2241h-0.9702l2.3711-5.3813h0.9702l2.3711,5.3813h-0.9702l-0.5391-1.2241
			H53.2837z M55.6089,287.3037l-0.978-2.2173l-0.9775,2.2173H55.6089z"/>
		<path fill="#FFFFFF" d="M59.8428,284.8169v4.5498h-0.9087v-4.5498h-1.6318v-0.8315h4.1724v0.8315H59.8428z"/>
		<path fill="#FFFFFF" d="M66.8174,288.624c-0.5444,0.5308-1.2163,0.7964-2.0171,0.7964s-1.4731-0.2656-2.0171-0.7964
			c-0.5439-0.5312-0.8159-1.1934-0.8159-1.9863s0.272-1.4551,0.8159-1.9863s1.2163-0.7969,2.0171-0.7969
			s1.4727,0.2656,2.0171,0.7969c0.5439,0.5312,0.8159,1.1934,0.8159,1.9863S67.3613,288.0928,66.8174,288.624z M66.1514,285.2559
			c-0.3672-0.3799-0.8174-0.5698-1.3511-0.5698s-0.9844,0.1899-1.3511,0.5698c-0.3672,0.3799-0.5503,0.8403-0.5503,1.3818
			s0.1831,1.002,0.5503,1.3818c0.3667,0.3799,0.8174,0.5698,1.3511,0.5698s0.9839-0.1899,1.3511-0.5698
			c0.3667-0.3799,0.5503-0.8403,0.5503-1.3818S66.5181,285.6357,66.1514,285.2559z"/>
		<path fill="#FFFFFF" d="M73.0762,285.7329c0,0.8882-0.3877,1.4473-1.1626,1.6782l1.4092,1.9556H72.168l-1.2856-1.8091H69.689
			v1.8091h-0.9087v-5.3813h2.002c0.8208,0,1.4087,0.1387,1.7627,0.416C72.8989,284.6782,73.0762,285.1226,73.0762,285.7329z
			 M71.8677,286.4951c0.1846-0.1592,0.2769-0.4146,0.2769-0.7661c0-0.3511-0.0947-0.5928-0.2847-0.7236
			s-0.5288-0.1963-1.0161-0.1963H69.689v1.9248h1.1313C71.3335,286.7339,71.6826,286.6543,71.8677,286.4951z"/>
		<path fill="#FFFFFF" d="M27.7329,292.1367v1.0396h-2.125v0.9004c0.1592-0.0459,0.3413-0.0688,0.5469-0.0688
			c0.5181,0,0.9648,0.1562,1.3394,0.4692c0.3745,0.3135,0.562,0.7354,0.562,1.2666s-0.1938,0.9697-0.5811,1.3164
			c-0.3877,0.3462-0.8662,0.5195-1.436,0.5195c-0.7285,0-1.3369-0.2695-1.8242-0.8081l0.6309-0.8779
			c0.0464,0.0464,0.1079,0.103,0.1851,0.1694c0.0767,0.0669,0.2178,0.1553,0.4233,0.2656c0.2051,0.1104,0.4106,0.1655,0.6157,0.1655
			c0.2056,0,0.3877-0.0615,0.5469-0.1846c0.1587-0.1235,0.2383-0.3057,0.2383-0.5469s-0.0859-0.4272-0.2578-0.5581
			s-0.394-0.1963-0.666-0.1963s-0.5874,0.0977-0.9468,0.2925l-0.5005-0.5386v-2.6255H27.7329z"/>
		<path fill="#FFFFFF" d="M31.0815,297.5796c-0.7441,0-1.3008-0.2524-1.6704-0.7583c-0.3696-0.5054-0.5542-1.1802-0.5542-2.0244
			s0.1846-1.5195,0.5542-2.0249s0.9263-0.7583,1.6704-0.7583s1.3013,0.2529,1.6709,0.7583
			c0.3691,0.5054,0.5542,1.1807,0.5542,2.0249s-0.1851,1.519-0.5542,2.0244C32.3828,297.3271,31.8257,297.5796,31.0815,297.5796z
			 M30.2886,293.4995c-0.1689,0.3286-0.2539,0.7622-0.2539,1.3008c0,0.5391,0.085,0.9727,0.2539,1.3013
			c0.1694,0.3286,0.4341,0.4927,0.793,0.4927c0.3594,0,0.6235-0.1641,0.793-0.4927s0.2544-0.7622,0.2544-1.3013
			c0-0.5386-0.085-0.9722-0.2544-1.3008s-0.4336-0.4927-0.793-0.4927C30.7227,293.0068,30.458,293.1709,30.2886,293.4995z"/>
		<path fill="#FFFFFF" d="M36.3931,297.5796c-0.7441,0-1.3008-0.2524-1.6704-0.7583c-0.3696-0.5054-0.5542-1.1802-0.5542-2.0244
			s0.1846-1.5195,0.5542-2.0249s0.9263-0.7583,1.6704-0.7583s1.3013,0.2529,1.6709,0.7583
			c0.3691,0.5054,0.5542,1.1807,0.5542,2.0249s-0.1851,1.519-0.5542,2.0244C37.6943,297.3271,37.1372,297.5796,36.3931,297.5796z
			 M35.6001,293.4995c-0.1689,0.3286-0.2539,0.7622-0.2539,1.3008c0,0.5391,0.085,0.9727,0.2539,1.3013
			c0.1694,0.3286,0.4341,0.4927,0.793,0.4927c0.3594,0,0.6235-0.1641,0.793-0.4927s0.2544-0.7622,0.2544-1.3013
			c0-0.5386-0.085-0.9722-0.2544-1.3008s-0.4336-0.4927-0.793-0.4927C36.0342,293.0068,35.7695,293.1709,35.6001,293.4995z"/>
		<path fill="#FFFFFF" d="M41.7051,297.5796c-0.7441,0-1.3008-0.2524-1.6704-0.7583c-0.3696-0.5054-0.5542-1.1802-0.5542-2.0244
			s0.1846-1.5195,0.5542-2.0249s0.9263-0.7583,1.6704-0.7583s1.3013,0.2529,1.6709,0.7583
			c0.3691,0.5054,0.5542,1.1807,0.5542,2.0249s-0.1851,1.519-0.5542,2.0244C43.0063,297.3271,42.4492,297.5796,41.7051,297.5796z
			 M40.9121,293.4995c-0.1689,0.3286-0.2539,0.7622-0.2539,1.3008c0,0.5391,0.085,0.9727,0.2539,1.3013
			c0.1694,0.3286,0.4341,0.4927,0.793,0.4927c0.3594,0,0.6235-0.1641,0.793-0.4927s0.2544-0.7622,0.2544-1.3013
			c0-0.5386-0.085-0.9722-0.2544-1.3008s-0.4336-0.4927-0.793-0.4927C41.3462,293.0068,41.0815,293.1709,40.9121,293.4995z"/>
	</g>
	<g>
		<circle fill="#D1D3D4" cx="168.4893" cy="288.2393" r="3.1284"/>
	</g>
	<g>
		<circle fill="#D1D3D4" cx="168.4893" cy="300.4355" r="3.1284"/>
	</g>
	<g>
		<circle fill="#E6E7E8" cx="168.4893" cy="316" r="3.1284"/>
	</g>
	<g>
		<circle fill="#E6E7E8" cx="168.4893" cy="328.1963" r="3.1284"/>
	</g>
	<g>
		<path fill="#D1D3D4" d="M168.4893,277.8428c-1.728,0-3.1284,1.4014-3.1284,3.1289h6.2568
			C171.6177,279.2441,170.2173,277.8428,168.4893,277.8428z"/>
	</g>
	<g>
		<path fill="#E6E7E8" d="M168.4893,338.8594c-1.728,0-3.1284-1.4014-3.1284-3.1289h6.2568
			C171.6177,337.458,170.2173,338.8594,168.4893,338.8594z"/>
	</g>
	<g>
		<g>
			<g>
				<path fill="#F4E2AE" d="M448.2812,528.6914l-0.001-20.8779h-71.2441v20.8672c-2.6914,0.0771-4.8516,2.2705-4.8516,4.9795
					c0,2.7373,2.2002,4.9521,4.9268,4.9893c1.1436,18.6416,16.6172,33.4102,35.5479,33.4111
					c19.6699,0,35.6172-15.9453,35.623-35.6143v2.2354c2.7578,0,4.9932-2.2363,4.9932-4.9961
					C453.2754,530.9277,451.0391,528.6914,448.2812,528.6914z"/>
			</g>
			<g opacity="0.06">
				<path d="M412.6582,507.8125l0.001,64.248c19.6729,0,35.6221-15.9502,35.623-35.623l-0.002-28.624L412.6582,507.8125z"/>
			</g>
			<g>
				<path fill="#F4E2AE" d="M419.8867,537.0098H407.292v10.1758l12.5957,0.001c2.8096-0.001,5.0889-2.2783,5.0889-5.0889
					C424.9766,539.2891,422.6963,537.0098,419.8867,537.0098z"/>
			</g>
			<g>
				<path fill="#A97C50" d="M412.6592,546.791c-6.6963,0.001-12.123,5.4287-12.1221,12.123v11.0254
					c3.7842,1.3711,7.8652,2.1211,12.1221,2.1211c4.2568-0.001,8.3369-0.75,12.1211-2.1211V558.915
					C424.7803,552.2188,419.3535,546.792,412.6592,546.791z"/>
			</g>
			<g opacity="0.15">
				<path d="M412.6592,546.791v25.2695c4.2568-0.001,8.3369-0.75,12.1211-2.1211V558.915
					C424.7803,552.2188,419.3535,546.792,412.6592,546.791z"/>
			</g>
			<g>
				<path fill="#414042" d="M412.6602,562.3408c-0.002,0-0.002,0-0.0039,0c-3.501,0-6.3516-2.8496-6.3535-6.3535h1
					c0.002,2.9521,2.4033,5.3535,5.3535,5.3535c0.001,0,0.001,0,0.002,0c0,0,0.001,0,0.002,0c2.9512,0,5.3525-2.4004,5.3535-5.3525
					h1C419.0127,559.4912,416.1621,562.3408,412.6602,562.3408z"/>
			</g>
			<g>
				<path d="M435.0869,534.248c-0.001-1.7227-1.4023-3.125-3.125-3.125c-0.835,0-1.6201,0.3252-2.2109,0.915
					s-0.915,1.374-0.915,2.208h-2c-0.001-1.3682,0.5322-2.6543,1.501-3.6221s2.2559-1.501,3.625-1.501
					c2.8252,0,5.124,2.2988,5.125,5.125H435.0869z"/>
			</g>
			<g>
				<path d="M398.6562,534.249l-2-0.002c0.001-0.834-0.3242-1.6182-0.9141-2.208c-1.1797-1.1816-3.2373-1.1807-4.4189-0.001
					c-0.5898,0.5908-0.9141,1.375-0.9141,2.21h-2c-0.001-1.3682,0.5322-2.6553,1.5-3.623c0.9678-0.9688,2.2549-1.502,3.624-1.502
					s2.6562,0.5332,3.624,1.502S398.6572,532.8809,398.6562,534.249z"/>
			</g>
			<g>
				<path fill="#A97C50" d="M448.2822,504.127c0-3.3135-2.6885-6-6.001-6h-59.2461c-3.3125,0-5.999,2.6865-5.999,5.999
					l-0.001,24.5654l14.3984-18.1758l56.8477,10.6709L448.2822,504.127z"/>
			</g>
			<g opacity="0.15">
				<path d="M442.2812,498.127h-29.6221l-0.001,16.373l35.623,6.6865l0.001-17.0596
					C448.2822,500.8135,445.5938,498.127,442.2812,498.127z"/>
			</g>
		</g>
		<g>
			<g>
				<path fill="#99743C" d="M361.5938,533.0537c-0.002-2.7275-2.1885-4.9355-4.9033-4.9854l-0.001-20.292h-71.2441v20.6787
					c-2.6768,0.0928-4.8203,2.2783-4.8213,4.9775c-0.001,2.7207,2.1768,4.9229,4.8818,4.9844
					c1.0469,18.7344,16.5664,33.6064,35.5625,33.6064c19.1221,0,34.7197-15.0693,35.5801-33.9785
					C359.3838,538.0166,361.5938,535.7959,361.5938,533.0537z"/>
			</g>
			<g>
				<circle cx="321.0791" cy="498.6499" r="18.001"/>
			</g>
			<g>
				<path fill="#282828" d="M356.6914,504.0908c-0.001-3.3145-2.6865-6.001-6-6l-59.2461-0.001c-3.3125,0.001-6,2.6865-6,5.999
					v1.5605v2.127v20.8779l4.7529-8.1885c3.9912,5.0176,10.1299,8.249,17.04,8.248c8.9424,0,16.6113-5.3936,19.9688-13.0986
					l29.4824,5.5342L356.6914,504.0908z"/>
			</g>
			<g opacity="0.2">
				<path d="M321.0684,507.7764v64.2471c19.6738,0,35.6211-15.9502,35.6221-35.623l-0.001-28.624H321.0684z"/>
			</g>
			<g>
				<path fill="#99743C" d="M325.1953,541.4795l-9.4941-0.001v7.6719l9.4941-0.002c2.1182,0,3.8369-1.7168,3.8359-3.835
					C329.0312,543.1963,327.3125,541.4795,325.1953,541.4795z"/>
			</g>
			<g>
				<path d="M325.418,556.7041c-0.001,2.4004-1.9473,4.3477-4.3506,4.3477c-2.4014,0-4.3486-1.9473-4.3486-4.3477"/>
			</g>
			<g>
				<circle cx="340.2822" cy="537.6494" r="2.751"/>
			</g>
			<g>
				<circle cx="301.854" cy="537.6494" r="2.7495"/>
			</g>
			<g>
				<path fill="#282828" d="M350.6914,498.0908l-59.2461-0.001c-3.3125,0.001-6,2.6865-6,5.999v3.6875l71.2441,13.373l0.002-17.0586
					C356.6904,500.7764,354.0049,498.0898,350.6914,498.0908z"/>
			</g>
			<g>
				<path d="M350.6914,498.0908l-29.6123-0.001v25.6357c2.6279-2.1729,4.748-4.9414,6.1279-8.1113l29.4824,5.5352l0.002-17.0586
					C356.6904,500.7764,354.0049,498.0898,350.6914,498.0908z"/>
			</g>
		</g>
	</g>
	<g>
		<g>
			<g>
				<path fill="#F4E2AE" d="M448.2812,528.6914l-0.001-20.8779h-71.2441v20.8672c-2.6914,0.0771-4.8516,2.2705-4.8516,4.9795
					c0,2.7373,2.2002,4.9521,4.9268,4.9893c1.1436,18.6416,16.6172,33.4102,35.5479,33.4111
					c19.6699,0,35.6172-15.9453,35.623-35.6143v2.2354c2.7578,0,4.9932-2.2363,4.9932-4.9961
					C453.2754,530.9277,451.0391,528.6914,448.2812,528.6914z"/>
			</g>
			<g opacity="0.06">
				<path d="M412.6582,507.8125l0.001,64.248c19.6729,0,35.6221-15.9502,35.623-35.623l-0.002-28.624L412.6582,507.8125z"/>
			</g>
			<g>
				<path fill="#F4E2AE" d="M419.8867,537.0098H407.292v10.1758l12.5957,0.001c2.8096-0.001,5.0889-2.2783,5.0889-5.0889
					C424.9766,539.2891,422.6963,537.0098,419.8867,537.0098z"/>
			</g>
			<g>
				<path fill="#A97C50" d="M412.6592,546.791c-6.6963,0.001-12.123,5.4287-12.1221,12.123v11.0254
					c3.7842,1.3711,7.8652,2.1211,12.1221,2.1211c4.2568-0.001,8.3369-0.75,12.1211-2.1211V558.915
					C424.7803,552.2188,419.3535,546.792,412.6592,546.791z"/>
			</g>
			<g opacity="0.15">
				<path d="M412.6592,546.791v25.2695c4.2568-0.001,8.3369-0.75,12.1211-2.1211V558.915
					C424.7803,552.2188,419.3535,546.792,412.6592,546.791z"/>
			</g>
			<g>
				<path fill="#414042" d="M418.0137,561.8408c-0.002-2.9521-2.4033-5.3535-5.3535-5.3535c-0.001,0-0.001,0-0.002,0
					c0,0-0.001,0-0.002,0c-2.9512,0-5.3525,2.4004-5.3535,5.3525h-1c0.001-3.5029,2.8516-6.3525,6.3535-6.3525
					c0.002,0,0.002,0,0.0039,0c3.501,0,6.3516,2.8496,6.3535,6.3535H418.0137z"/>
			</g>
			<g>
				<path fill="#A97C50" d="M448.2822,504.127c0-3.3135-2.6885-6-6.001-6h-59.2461c-3.3125,0-5.999,2.6865-5.999,5.999
					l-0.001,24.5654l14.3984-18.1758l56.8477,10.6709L448.2822,504.127z"/>
			</g>
			<g opacity="0.15">
				<path d="M442.2812,498.127h-29.6221l-0.001,16.373l35.623,6.6865l0.001-17.0596
					C448.2822,500.8135,445.5938,498.127,442.2812,498.127z"/>
			</g>
			<g>
				<circle cx="393.5327" cy="533.6865" r="2.8013"/>
			</g>
			<g>
				<circle cx="431.7837" cy="533.6865" r="2.8013"/>
			</g>
			<g>
				<path display="none" fill="#46D6F7" d="M392.8975,542.9785c0,1.1973-0.9697,2.167-2.167,2.167
					c-1.1963,0-2.166-0.9697-2.166-2.167c0-1.1963,2.166-5.166,2.166-5.166S392.8975,541.7822,392.8975,542.9785z"/>
			</g>
		</g>
		<g>
			<g>
				<g>
					<circle cx="321.0791" cy="498.6499" r="18.001"/>
				</g>
			</g>
			<g>
				<g>
					<path fill="#99743C" d="M361.5938,533.0537c-0.002-2.7275-2.1885-4.9355-4.9033-4.9854l-0.001-20.292h-71.2441v20.6787
						c-2.6768,0.0928-4.8203,2.2783-4.8213,4.9775c-0.001,2.7207,2.1768,4.9229,4.8818,4.9844
						c1.0469,18.7344,16.5664,33.6064,35.5625,33.6064c19.1221,0,34.7197-15.0693,35.5801-33.9785
						C359.3838,538.0166,361.5938,535.7959,361.5938,533.0537z"/>
				</g>
			</g>
			<g opacity="0.2">
				<g>
					<path d="M321.0684,507.7764v64.2471c19.6738,0,35.6211-15.9502,35.6221-35.623l-0.001-28.624H321.0684z"/>
				</g>
			</g>
			<g>
				<g>
					<path fill="#99743C" d="M325.1953,541.4795l-9.4941-0.001v7.6719l9.4941-0.002c2.1182,0,3.8369-1.7168,3.8359-3.835
						C329.0312,543.1963,327.3125,541.4795,325.1953,541.4795z"/>
				</g>
			</g>
			<g>
				<g>
					<path d="M316.7188,561.0518c0.001-2.4004,1.9473-4.3477,4.3506-4.3477c2.4014,0,4.3486,1.9473,4.3486,4.3477"/>
				</g>
			</g>
			<g>
				<g>
					<path d="M340.2852,541.8115c-2.5254-0.001-4.5791-2.0537-4.5791-4.5752h2c0,1.4189,1.1572,2.5742,2.5791,2.5752
						c1.4189-0.001,2.5742-1.1562,2.5742-2.5752h2C344.8594,539.7578,342.8076,541.8105,340.2852,541.8115z"/>
				</g>
			</g>
			<g>
				<g>
					<path d="M301.8535,541.8115c-2.5215,0-4.5732-2.0527-4.5732-4.5752h2c0,1.4199,1.1543,2.5752,2.5732,2.5752
						c1.4199,0,2.5752-1.1553,2.5752-2.5752h2C306.4287,539.7588,304.376,541.8115,301.8535,541.8115z"/>
				</g>
			</g>
			<g>
				<g>
					<path fill="#282828" d="M350.6914,498.0908l-59.2461-0.001c-3.3125,0.001-6,2.6865-6,5.999v3.6875l71.2441,13.373
						l0.002-17.0586C356.6904,500.7764,354.0049,498.0898,350.6914,498.0908z"/>
				</g>
			</g>
			<g>
				<g>
					<path fill="#282828" d="M356.6914,504.0908c-0.001-3.3145-2.6865-6.001-6-6l-59.2461-0.001c-3.3125,0.001-6,2.6865-6,5.999
						v1.5605v2.127v20.8779l4.7529-8.1885c3.9912,5.0176,10.1299,8.249,17.04,8.248c8.9424,0,16.6113-5.3936,19.9688-13.0986
						l29.4824,5.5342L356.6914,504.0908z"/>
				</g>
			</g>
			<g>
				<g>
					<path d="M350.6914,498.0908l-29.6123-0.001v25.6357c2.6279-2.1729,4.748-4.9414,6.1279-8.1113l29.4824,5.5352l0.002-17.0586
						C356.6904,500.7764,354.0049,498.0898,350.6914,498.0908z"/>
				</g>
			</g>
		</g>
	</g>
	<g>
		<g>
			<g>
				<g>
					<g>
						<path fill="#FF3D2B" d="M367.5,471.9062c-0.79,0-1.5605-0.3203-2.1201-0.8799c-0.5605-0.5605-0.8799-1.3301-0.8799-2.1201
							s0.3193-1.5605,0.8799-2.1201c1.1201-1.1201,3.1299-1.1201,4.2402,0c0.5596,0.5596,0.8799,1.3301,0.8799,2.1201
							s-0.3203,1.5596-0.8799,2.1201C369.0596,471.5859,368.29,471.9062,367.5,471.9062z"/>
					</g>
				</g>
			</g>
			<g>
				<g>
					<g>
						<path fill="#FF3D2B" d="M364.5,457.5459c0-1.6602,1.3398-3,3-3l0,0c1.6602,0,3,1.3398,3,3l0,0c0,1.6602-1.3398,3-3,3l0,0
							C365.8398,460.5459,364.5,459.2061,364.5,457.5459z M364.5,446.1963c0-1.6602,1.3398-3,3-3l0,0c1.6602,0,3,1.3398,3,3l0,0
							c0,1.6494-1.3398,3-3,3l0,0C365.8398,449.1963,364.5,447.8457,364.5,446.1963z M364.5,434.8359c0-1.6602,1.3398-3,3-3l0,0
							c1.6602,0,3,1.3398,3,3l0,0c0,1.6504-1.3398,3-3,3l0,0C365.8398,437.8359,364.5,436.4863,364.5,434.8359z M364.5,423.4756
							c0-1.6592,1.3398-3,3-3l0,0c1.6602,0,3,1.3408,3,3l0,0c0,1.6602-1.3398,3-3,3l0,0
							C365.8398,426.4756,364.5,425.1357,364.5,423.4756z M364.5,412.1162c0-1.6504,1.3398-3,3-3l0,0c1.6602,0,3,1.3496,3,3l0,0
							c0,1.6602-1.3398,3-3,3l0,0C365.8398,415.1162,364.5,413.7764,364.5,412.1162z M364.5,400.7656c0-1.6592,1.3398-3,3-3l0,0
							c1.6602,0,3,1.3408,3,3l0,0c0,1.6504-1.3398,3-3,3l0,0C365.8398,403.7656,364.5,402.416,364.5,400.7656z"/>
					</g>
				</g>
			</g>
			<g>
				<g>
					<g>
						<path fill="#FF3D2B" d="M367.5,392.4062c-0.79,0-1.5605-0.3203-2.1201-0.8799c-0.5605-0.5605-0.8799-1.3301-0.8799-2.1201
							s0.3193-1.5605,0.8799-2.1201c1.1201-1.1201,3.1201-1.1201,4.2402,0c0.5596,0.5596,0.8799,1.3301,0.8799,2.1201
							s-0.3203,1.5596-0.8799,2.1201C369.0596,392.0859,368.29,392.4062,367.5,392.4062z"/>
					</g>
				</g>
			</g>
		</g>
		<g>
			<g>
				<g>
					<polygon fill="#FF3D2B" points="367.5,488.3545 364.3613,482.918 361.2227,477.4805 367.5,477.4805 373.7773,477.4805 
						370.6387,482.918 					"/>
				</g>
			</g>
		</g>
	</g>
	<g>
		<g>
			<g>
				<g>
					<rect x="294.7734" y="253.9771" fill="#46D6F7" width="144.1084" height="90.8267"/>
				</g>
			</g>
		</g>
		<g>
			<g>
				<g>
					<path fill="#FFFFFF" d="M307.0781,265.0571v0.999h-3.3574v1.665h3.0156v0.9448h-3.0156v1.6831h3.4658v0.999h-4.5273v-6.291
						H307.0781z"/>
				</g>
			</g>
			<g>
				<g>
					<path fill="#FFFFFF" d="M308.5449,271.3481v-6.291h1.0615v5.2832h2.8711v1.0078H308.5449z"/>
				</g>
			</g>
			<g>
				<g>
					<path fill="#FFFFFF" d="M318.0576,265.0571v0.999h-3.3574v1.665h3.0156v0.9448h-3.0156v1.6831h3.4658v0.999h-4.5273v-6.291
						H318.0576z"/>
				</g>
			</g>
			<g>
				<g>
					<path fill="#FFFFFF" d="M323.7734,265.606c0.4375,0.3662,0.6572,0.9302,0.6572,1.6924c0,0.7617-0.2236,1.3198-0.6709,1.6738
						s-1.1328,0.5308-2.0566,0.5308h-1.1162v1.8452h-1.0615v-6.291h2.1602C322.6396,265.0571,323.335,265.2402,323.7734,265.606z
						 M323.0215,268.2026c0.2129-0.2251,0.3203-0.5547,0.3203-0.9902c0-0.4346-0.1357-0.7422-0.4053-0.9224
						c-0.2705-0.1797-0.6934-0.27-1.2695-0.27h-1.0801v2.52h1.2334C322.4082,268.54,322.8086,268.4277,323.0215,268.2026z"/>
				</g>
			</g>
			<g>
				<g>
					<path fill="#FFFFFF" d="M325.6807,271.3481v-6.291h1.0615v2.7271h3.123v-2.7271h1.0625v6.291h-1.0625v-2.5742h-3.123v2.5742
						H325.6807z"/>
				</g>
			</g>
			<g>
				<g>
					<path fill="#FFFFFF" d="M333.5645,269.917l-0.6299,1.4312h-1.1338l2.7725-6.291h1.1338l2.7715,6.291h-1.1338l-0.6299-1.4312
						H333.5645z M336.2832,268.936l-1.1436-2.5918l-1.1426,2.5918H336.2832z"/>
				</g>
			</g>
			<g>
				<g>
					<path fill="#FFFFFF" d="M344.0674,265.0571h1.0625v6.291h-1.1523l-3.5645-4.5898v4.5898h-1.0615v-6.291h1.0615l3.6543,4.6982
						V265.0571z"/>
				</g>
			</g>
			<g>
				<g>
					<path fill="#FFFFFF" d="M349.252,266.0293v5.3188h-1.0625v-5.3188h-1.9072v-0.9722h4.8779v0.9722H349.252z"/>
				</g>
			</g>
			<g>
				<g>
					<path fill="#FFFFFF" d="M354.2148,265.8853c-0.3086,0-0.5625,0.063-0.7607,0.189c-0.1973,0.126-0.2969,0.3164-0.2969,0.5713
						c0,0.2554,0.0996,0.4502,0.2969,0.585c0.1982,0.1353,0.6201,0.2808,1.2646,0.4365c0.6455,0.1562,1.1309,0.375,1.458,0.6572
						s0.4902,0.6973,0.4902,1.2466c0,0.5488-0.2061,0.9941-0.6201,1.3364c-0.4141,0.3418-0.957,0.5127-1.6299,0.5127
						c-0.9834,0-1.8564-0.3389-2.6182-1.0166l0.666-0.8013c0.6357,0.5522,1.2959,0.8281,1.9795,0.8281
						c0.3418,0,0.6133-0.0732,0.8145-0.2207c0.2012-0.147,0.3018-0.3418,0.3018-0.585c0-0.2427-0.0947-0.4316-0.2832-0.5669
						c-0.1895-0.1348-0.5146-0.2578-0.9766-0.3691c-0.4619-0.1108-0.8135-0.2129-1.0537-0.3057
						c-0.2393-0.0933-0.4531-0.2148-0.6387-0.3647c-0.3721-0.2817-0.5576-0.7139-0.5576-1.2959s0.2109-1.0308,0.6338-1.3457
						c0.4238-0.3149,0.9473-0.4722,1.5713-0.4722c0.4014,0,0.8008,0.0659,1.1963,0.1978c0.3965,0.1323,0.7383,0.3184,1.0264,0.5581
						l-0.5674,0.8008c-0.1855-0.1675-0.4375-0.3057-0.7559-0.4136C354.8369,265.939,354.5244,265.8853,354.2148,265.8853z"/>
				</g>
			</g>
			<g>
				<g>
					<path fill="#FFFFFF" d="M365.1631,265.0571h1.0625v6.291h-1.1523l-3.5645-4.5898v4.5898h-1.0615v-6.291h1.0615l3.6543,4.6982
						V265.0571z"/>
				</g>
			</g>
			<g>
				<g>
					<path fill="#FFFFFF" d="M372.3906,265.0571v0.999h-3.3574v1.665h3.0156v0.9448h-3.0156v1.6831h3.4658v0.999h-4.5273v-6.291
						H372.3906z"/>
				</g>
			</g>
			<g>
				<g>
					<path fill="#FFFFFF" d="M376.7285,271.3481H375.54l-2.5283-6.291h1.1875l1.9355,4.6982l1.9346-4.6982h1.1885L376.7285,271.3481
						z"/>
				</g>
			</g>
			<g>
				<g>
					<path fill="#FFFFFF" d="M384.5762,265.0571v0.999h-3.3574v1.665h3.0156v0.9448h-3.0156v1.6831h3.4658v0.999h-4.5273v-6.291
						H384.5762z"/>
				</g>
			</g>
			<g>
				<g>
					<path fill="#FFFFFF" d="M391.0645,267.1001c0,1.0381-0.4521,1.6919-1.3584,1.9619l1.6465,2.2861h-1.3496l-1.5029-2.1152
						h-1.3955v2.1152h-1.0615v-6.291h2.3398c0.96,0,1.6475,0.1621,2.0615,0.4858
						C390.8584,265.8672,391.0645,266.3862,391.0645,267.1001z M389.6523,267.9912c0.2158-0.186,0.3232-0.4844,0.3232-0.8955
						s-0.1104-0.6929-0.333-0.8462c-0.2217-0.1528-0.6182-0.2295-1.1875-0.2295h-1.3506v2.25h1.3232
						C389.0273,268.27,389.4355,268.1772,389.6523,267.9912z"/>
				</g>
			</g>
			<g>
				<g>
					<path fill="#FFFFFF" d="M396.123,266.0474v1.7275h2.79v0.9814h-2.79v2.5918h-1.0615v-6.291h4.1943l-0.0098,0.9902H396.123z"/>
				</g>
			</g>
			<g>
				<g>
					<path fill="#FFFFFF" d="M405.7617,270.4795c-0.6357,0.6211-1.4219,0.9316-2.3574,0.9316c-0.9365,0-1.7227-0.3105-2.3584-0.9316
						c-0.6357-0.6206-0.9541-1.395-0.9541-2.3218c0-0.9272,0.3184-1.7012,0.9541-2.3223c0.6357-0.6206,1.4219-0.9312,2.3584-0.9312
						c0.9355,0,1.7217,0.3105,2.3574,0.9312c0.6357,0.6211,0.9541,1.395,0.9541,2.3223
						C406.7158,269.0845,406.3975,269.8589,405.7617,270.4795z M404.9834,266.542c-0.4287-0.4438-0.9551-0.666-1.5791-0.666
						s-1.1504,0.2222-1.5801,0.666c-0.4287,0.4443-0.6436,0.9829-0.6436,1.6157s0.2148,1.1714,0.6436,1.6152
						c0.4297,0.4443,0.9561,0.666,1.5801,0.666s1.1504-0.2217,1.5791-0.666c0.4287-0.4438,0.6436-0.9824,0.6436-1.6152
						S405.4121,266.9863,404.9834,266.542z"/>
				</g>
			</g>
			<g>
				<g>
					<path fill="#FFFFFF" d="M413.0781,267.1001c0,1.0381-0.4521,1.6919-1.3584,1.9619l1.6465,2.2861h-1.3496l-1.5029-2.1152
						h-1.3955v2.1152h-1.0615v-6.291h2.3398c0.96,0,1.6475,0.1621,2.0615,0.4858
						C412.8721,265.8672,413.0781,266.3862,413.0781,267.1001z M411.666,267.9912c0.2158-0.186,0.3232-0.4844,0.3232-0.8955
						s-0.1104-0.6929-0.333-0.8462c-0.2217-0.1528-0.6182-0.2295-1.1875-0.2295h-1.3506v2.25h1.3232
						C411.041,268.27,411.4492,268.1772,411.666,267.9912z"/>
				</g>
			</g>
			<g>
				<g>
					<path fill="#FFFFFF" d="M418.9648,268.2881h1.0625v2.1509c-0.5938,0.6543-1.4434,0.981-2.5469,0.981
						c-0.9307,0-1.709-0.3057-2.3359-0.918c-0.627-0.6118-0.9404-1.3857-0.9404-2.3218s0.3193-1.7158,0.959-2.3398
						c0.6387-0.624,1.4111-0.936,2.3174-0.936s1.6592,0.2642,2.2588,0.792l-0.5674,0.8101c-0.2461-0.21-0.4932-0.3555-0.7422-0.4365
						s-0.5381-0.1216-0.8682-0.1216c-0.6367,0-1.1699,0.2056-1.6025,0.6162c-0.4316,0.4111-0.6475,0.9512-0.6475,1.6201
						s0.21,1.2061,0.6299,1.6108c0.4199,0.4053,0.9287,0.6079,1.5254,0.6079s1.0967-0.1289,1.498-0.3872V268.2881z"/>
				</g>
			</g>
			<g>
				<g>
					<path fill="#FFFFFF" d="M425.8408,265.0571v0.999h-3.3574v1.665h3.0156v0.9448h-3.0156v1.6831h3.4658v0.999h-4.5273v-6.291
						H425.8408z"/>
				</g>
			</g>
			<g>
				<g>
					<path fill="#FFFFFF" d="M429.6836,266.0293v5.3188h-1.0625v-5.3188h-1.9072v-0.9722h4.8779v0.9722H429.6836z"/>
				</g>
			</g>
			<g>
				<g>
					<path fill="#FFFFFF" d="M330.4219,336.3486h-1.6797v-3.8643l-3.6406-5.9219h1.8066l2.6738,4.4521l2.6738-4.4521h1.8057
						l-3.6396,5.9219V336.3486z"/>
				</g>
			</g>
			<g>
				<g>
					<path fill="#FFFFFF" d="M343.1758,334.998c-0.9893,0.9658-2.2119,1.4482-3.668,1.4482s-2.6787-0.4824-3.668-1.4482
						c-0.9893-0.9668-1.4844-2.1709-1.4844-3.6123c0-1.4424,0.4951-2.6465,1.4844-3.6123s2.2119-1.4492,3.668-1.4492
						s2.6787,0.4834,3.668,1.4492s1.4844,2.1699,1.4844,3.6123C344.6602,332.8271,344.165,334.0312,343.1758,334.998z
						 M341.9648,328.873c-0.667-0.6914-1.4863-1.0361-2.457-1.0361s-1.79,0.3447-2.457,1.0361
						c-0.667,0.6904-1.001,1.5283-1.001,2.5127s0.334,1.8223,1.001,2.5127c0.667,0.6914,1.4863,1.0361,2.457,1.0361
						s1.79-0.3447,2.457-1.0361c0.667-0.6904,1.001-1.5283,1.001-2.5127S342.6318,329.5635,341.9648,328.873z"/>
				</g>
			</g>
			<g>
				<g>
					<path fill="#FFFFFF" d="M348.9434,334.1084c0.4482,0.5234,1.0547,0.7842,1.8203,0.7842s1.3721-0.2607,1.8203-0.7842
						c0.4473-0.5225,0.6719-1.2314,0.6719-2.1279v-5.418h1.6514v5.4883c0,1.4092-0.3867,2.4941-1.1611,3.2549
						c-0.7754,0.7607-1.7695,1.1406-2.9824,1.1406c-1.2139,0-2.207-0.3799-2.9824-1.1406
						c-0.7744-0.7607-1.1611-1.8457-1.1611-3.2549v-5.4883h1.6514v5.418C348.2715,332.877,348.4961,333.5859,348.9434,334.1084z"/>
				</g>
			</g>
			<g>
				<g>
					<path fill="#FFFFFF" d="M365.3096,329.7402c0,1.6152-0.7051,2.6328-2.1143,3.0527l2.5625,3.5557h-2.1006l-2.3379-3.29h-2.1699
						v3.29h-1.6514v-9.7861h3.6396c1.4932,0,2.5615,0.252,3.2061,0.7559C364.9873,327.8223,365.3096,328.6299,365.3096,329.7402z
						 M363.1113,331.127c0.3359-0.2891,0.5039-0.7539,0.5039-1.3936c0-0.6387-0.1729-1.0781-0.5176-1.3154
						c-0.3457-0.2383-0.9609-0.3574-1.8477-0.3574h-2.1006v3.5h2.0586C362.1406,331.5605,362.7754,331.416,363.1113,331.127z"/>
				</g>
			</g>
			<g>
				<g>
					<path fill="#FFFFFF" d="M373.1768,336.3486h-1.6514v-9.7861h2.5752l2.9541,6.1465l2.9541-6.1465h2.5625v9.7861h-1.6523v-7.6436
						l-3.416,6.79h-0.9238l-3.4023-6.79V336.3486z"/>
				</g>
			</g>
			<g>
				<g>
					<path fill="#FFFFFF" d="M387.4854,334.1084c0.4482,0.5234,1.0547,0.7842,1.8203,0.7842s1.3721-0.2607,1.8203-0.7842
						c0.4473-0.5225,0.6719-1.2314,0.6719-2.1279v-5.418h1.6514v5.4883c0,1.4092-0.3867,2.4941-1.1611,3.2549
						c-0.7754,0.7607-1.7695,1.1406-2.9824,1.1406c-1.2139,0-2.207-0.3799-2.9824-1.1406
						c-0.7744-0.7607-1.1611-1.8457-1.1611-3.2549v-5.4883h1.6514v5.418C386.8135,332.877,387.0381,333.5859,387.4854,334.1084z"/>
				</g>
			</g>
			<g>
				<g>
					<path fill="#FFFFFF" d="M397.6904,336.3486h-1.6514v-9.7861h2.5752l2.9541,6.1465l2.9541-6.1465h2.5625v9.7861h-1.6523v-7.6436
						l-3.416,6.79h-0.9238l-3.4023-6.79V336.3486z"/>
				</g>
			</g>
		</g>
		<g>
			<g>
				<g>
					<g>
						<path fill="#D1D3D4" d="M362.7041,281.7168c-0.3428-0.0859-7.9736-1.4575-14.4893,0
							c-6.5166,1.4575-9.8613,10.4604-4.8008,15.0903c5.0576,4.6299,8.6631,12.146,15.8203,5.2583
							C366.3916,295.1787,362.7041,281.7168,362.7041,281.7168z"/>
					</g>
				</g>
			</g>
			<g>
				<g>
					<g>
						<path fill="#BCBEC0" d="M370.251,281.7168c0.3428-0.0859,7.9736-1.4575,14.4893,0
							c6.5166,1.4575,9.8604,10.4604,4.8008,15.0903c-5.0576,4.6299-8.6631,12.146-15.8203,5.2583
							C366.5635,295.1787,370.251,281.7168,370.251,281.7168z"/>
					</g>
				</g>
			</g>
			<g>
				<g>
					<g>
						<path fill="#FFFFFF" d="M361.9326,302.3809c0,0-2.0576,7.5449-1.457,10.2031c0.6006,2.6572-2.4014-1.3721-1.7148-5.9165
							C359.4473,302.1235,360.2227,299.1641,361.9326,302.3809z"/>
					</g>
				</g>
			</g>
			<g>
				<g>
					<g>
						<path fill="#EAEBEC" d="M371.0215,302.3809c0,0,2.0586,7.5449,1.458,10.2031c-0.6006,2.6572,2.4014-1.3721,1.7148-5.9165
							C373.5078,302.1235,372.7324,299.1641,371.0215,302.3809z"/>
					</g>
				</g>
			</g>
			<g>
				<g>
					<g>
						<path fill="#E6E7E8" d="M379.4678,291.3198c0-6.0269-5.8154-10.9126-12.9902-10.9126s-12.9902,4.8857-12.9902,10.9126
							c0,1.6392,0.4316,3.1919,1.2021,4.5864c0.001,0.0029,0.002,0.0063,0.0029,0.0093c1.083,3.0923,4.4111,5.7925,7.0049,8.811
							c2.5508,2.9697,3.5332,15.4023,3.5332,15.4023h1.2471h1.2471c0,0,0.8105-12.0898,3.5332-15.4023
							c2.5273-3.0742,5.9219-5.7188,7.0049-8.811c0.001-0.0029,0.002-0.0063,0.0029-0.0093
							C379.0361,294.5117,379.4678,292.959,379.4678,291.3198z"/>
					</g>
				</g>
			</g>
			<g>
				<g>
					<g>
						<path fill="#D1D3D4" d="M378.2627,295.9155c0.001-0.0029,0.002-0.0063,0.0029-0.0093
							c0.7705-1.3945,1.2021-2.9473,1.2021-4.5864c0-6.0269-5.8154-10.9126-12.9902-10.9126v39.7217h1.2471
							c0,0,0.8105-12.0898,3.5332-15.4023C373.7852,301.6523,377.1797,299.0078,378.2627,295.9155z"/>
					</g>
				</g>
			</g>
			<g>
				<g>
					<g>
						<circle fill="#404041" cx="375.0259" cy="293.814" r="0.9458"/>
					</g>
				</g>
			</g>
			<g>
				<g>
					<g>
						<circle fill="#404041" cx="357.9292" cy="293.814" r="0.9458"/>
					</g>
				</g>
			</g>
		</g>
	</g>
	<g>
		<g>
			<g>
				<rect x="294.7734" y="253.9771" fill="#FF3D2B" width="144.1084" height="90.8267"/>
			</g>
		</g>
		<g>
			<g>
				<path fill="#FFFFFF" d="M326.9336,271.168v2.4229h-6.0654v2.5098h5.4551v2.3179h-5.4551v2.5273h6.2568v2.4053h-8.9756V271.168
					H326.9336z"/>
			</g>
			<g>
				<path fill="#FFFFFF" d="M339.4307,275.2114c0,1.9521-0.7734,3.2129-2.3184,3.7822l3.085,4.3574h-3.3467l-2.7012-3.8867h-1.8828
					v3.8867h-2.7188V271.168h4.6191c1.8936,0,3.2441,0.3198,4.0518,0.9585C339.0264,272.7656,339.4307,273.7939,339.4307,275.2114z
					 M336.1533,276.6582c0.3369-0.3022,0.5059-0.7812,0.5059-1.438c0-0.6562-0.1748-1.1069-0.5234-1.3506
					c-0.3486-0.2441-0.958-0.3662-1.8301-0.3662h-2.0391v3.6079h1.9873C335.1836,277.1113,335.8164,276.9604,336.1533,276.6582z"/>
			</g>
			<g>
				<path fill="#FFFFFF" d="M352.1016,275.2114c0,1.9521-0.7734,3.2129-2.3184,3.7822l3.085,4.3574h-3.3467l-2.7012-3.8867h-1.8828
					v3.8867h-2.7188V271.168h4.6191c1.8936,0,3.2441,0.3198,4.0518,0.9585C351.6973,272.7656,352.1016,273.7939,352.1016,275.2114z
					 M348.8242,276.6582c0.3369-0.3022,0.5059-0.7812,0.5059-1.438c0-0.6562-0.1748-1.1069-0.5234-1.3506
					c-0.3486-0.2441-0.958-0.3662-1.8301-0.3662h-2.0391v3.6079h1.9873C347.8545,277.1113,348.4873,276.9604,348.8242,276.6582z"/>
			</g>
			<g>
				<path fill="#FFFFFF" d="M365.0166,281.6689c-1.2314,1.2026-2.748,1.8042-4.5488,1.8042s-3.3174-0.6016-4.5488-1.8042
					s-1.8477-2.6982-1.8477-4.4878s0.6162-3.2856,1.8477-4.4883s2.748-1.8037,4.5488-1.8037s3.3174,0.6011,4.5488,1.8037
					s1.8477,2.6987,1.8477,4.4883S366.248,280.4663,365.0166,281.6689z M364.0928,277.1899c0-1.0864-0.3486-2.0132-1.0449-2.7803
					c-0.6973-0.7666-1.5547-1.1504-2.5713-1.1504s-1.874,0.3838-2.5713,1.1504c-0.6963,0.7671-1.0449,1.6938-1.0449,2.7803
					s0.3486,2.0103,1.0449,2.771c0.6973,0.7612,1.5547,1.1416,2.5713,1.1416s1.874-0.3804,2.5713-1.1416
					C363.7441,279.2002,364.0928,278.2764,364.0928,277.1899z"/>
			</g>
			<g>
				<path fill="#FFFFFF" d="M379.0479,275.2114c0,1.9521-0.7734,3.2129-2.3184,3.7822l3.085,4.3574h-3.3467l-2.7012-3.8867h-1.8828
					v3.8867h-2.7188V271.168h4.6191c1.8936,0,3.2441,0.3198,4.0518,0.9585C378.6436,272.7656,379.0479,273.7939,379.0479,275.2114z
					 M375.7705,276.6582c0.3369-0.3022,0.5059-0.7812,0.5059-1.438c0-0.6562-0.1748-1.1069-0.5234-1.3506
					c-0.3486-0.2441-0.958-0.3662-1.8301-0.3662h-2.0391v3.6079h1.9873C374.8008,277.1113,375.4336,276.9604,375.7705,276.6582z"/>
			</g>
			<g>
				<path fill="#FFFFFF" d="M385.8623,278.0874v-2.1265h2.6143v2.1265h1.377v2.353h-1.377v2.9106h-2.6143v-2.9106h-4.8975v-2.0742
					l4.3398-7.1982h2.9629l-4.1309,6.9194H385.8623z"/>
			</g>
			<g>
				<path fill="#FFFFFF" d="M396.5977,283.4907c-1.6846,0-2.9453-0.5723-3.7812-1.7168c-0.8369-1.1445-1.2559-2.6729-1.2559-4.584
					c0-1.9116,0.4189-3.4395,1.2559-4.584c0.8359-1.1445,2.0967-1.7168,3.7812-1.7168c1.6855,0,2.9463,0.5723,3.7822,1.7168
					c0.8369,1.1445,1.2549,2.6724,1.2549,4.584c0,1.9111-0.418,3.4395-1.2549,4.584
					C399.5439,282.9185,398.2832,283.4907,396.5977,283.4907z M394.8027,274.2529c-0.3838,0.7437-0.5752,1.7256-0.5752,2.9458
					c0,1.2197,0.1914,2.2017,0.5752,2.9453s0.9814,1.1157,1.7949,1.1157s1.4121-0.3721,1.7959-1.1157
					c0.3828-0.7437,0.5752-1.7256,0.5752-2.9453c0-1.2202-0.1924-2.2021-0.5752-2.9458c-0.3838-0.7437-0.9824-1.1157-1.7959-1.1157
					S395.1865,273.5093,394.8027,274.2529z"/>
			</g>
			<g>
				<path fill="#FFFFFF" d="M408.1367,278.0874v-2.1265h2.6143v2.1265h1.377v2.353h-1.377v2.9106h-2.6143v-2.9106h-4.8975v-2.0742
					l4.3398-7.1982h2.9629l-4.1309,6.9194H408.1367z"/>
			</g>
			<g>
				<path fill="#FFFFFF" d="M414.0615,271.168h3.0859v2.1611l-0.5234,6.2744h-2.0566l-0.5059-6.2744V271.168z M414.5068,283.0459
					c-0.2969-0.2959-0.4453-0.6592-0.4453-1.0894c0-0.4297,0.1484-0.793,0.4453-1.0894c0.2959-0.2959,0.6592-0.4443,1.0889-0.4443
					s0.793,0.1484,1.0898,0.4443c0.2959,0.2964,0.4443,0.6597,0.4443,1.0894c0,0.4302-0.1484,0.7935-0.4443,1.0894
					c-0.2969,0.2964-0.6602,0.4448-1.0898,0.4448S414.8027,283.3423,414.5068,283.0459z"/>
			</g>
			<g>
				<path fill="#FFFFFF" d="M335.8926,304.2661l-1.1328-2.6318h-5.1064l-1.1338,2.6318h-2.8926l5.2637-12.1831h2.6318
					l5.2637,12.1831H335.8926z M332.2148,295.7085l-1.5332,3.5381h3.0498L332.2148,295.7085z"/>
			</g>
			<g>
				<path fill="#FFFFFF" d="M348.7197,292.083h2.7197v12.1831h-2.7197l-5.8037-7.6343v7.6343h-2.7188V292.083h2.5449l5.9775,7.8433
					V292.083z"/>
			</g>
			<g>
				<path fill="#FFFFFF" d="M354.4375,292.083h2.7188v12.1831h-2.7188V292.083z"/>
			</g>
			<g>
				<path fill="#FFFFFF" d="M371.0654,296.5972l-3.2949,6.6582h-1.6201l-3.2773-6.6582v7.6689h-2.7188V292.083h3.6777l3.1367,6.6929
					l3.1553-6.6929h3.6602v12.1831h-2.7188V296.5972z"/>
			</g>
			<g>
				<path fill="#FFFFFF" d="M385.4609,304.2661l-1.1328-2.6318h-5.1064l-1.1338,2.6318h-2.8926l5.2637-12.1831h2.6318
					l5.2637,12.1831H385.4609z M381.7832,295.7085l-1.5332,3.5381h3.0498L381.7832,295.7085z"/>
			</g>
			<g>
				<path fill="#FFFFFF" d="M389.7666,304.2661V292.083h2.7188v9.7603h5.1943v2.4229H389.7666z"/>
			</g>
			<g>
				<path fill="#FFFFFF" d="M402.5156,294.5142c-0.2617,0.2153-0.3926,0.5-0.3926,0.8545s0.1602,0.6357,0.4795,0.8452
					c0.3193,0.209,1.0576,0.4561,2.2139,0.7407s2.0537,0.7119,2.6924,1.2808c0.6396,0.5698,0.959,1.4004,0.959,2.4927
					s-0.4092,1.978-1.2285,2.6577c-0.8193,0.6802-1.8975,1.02-3.2334,1.02c-1.9287,0-3.666-0.7148-5.2109-2.144l1.6201-1.9868
					c1.3135,1.1504,2.5273,1.7256,3.6436,1.7256c0.499,0,0.8916-0.1074,1.1758-0.3228c0.2852-0.2148,0.4277-0.5054,0.4277-0.8716
					c0-0.3657-0.1514-0.6562-0.4541-0.8711c-0.3018-0.2148-0.9004-0.4331-1.7949-0.6538c-1.418-0.3369-2.4551-0.7754-3.1113-1.3159
					c-0.6562-0.54-0.9844-1.3882-0.9844-2.5444s0.415-2.0483,1.2461-2.6758s1.8682-0.9409,3.1113-0.9409
					c0.8135,0,1.627,0.1392,2.4404,0.418c0.8125,0.2793,1.5215,0.6743,2.126,1.1855l-1.377,1.9868
					c-1.0576-0.8018-2.1494-1.2026-3.2764-1.2026C403.1348,294.1919,402.7773,294.2993,402.5156,294.5142z"/>
			</g>
			<g>
				<path fill="#FFFFFF" d="M320.127,312.998h2.7197v12.1836h-2.7197l-5.8037-7.6338v7.6338h-2.7188V312.998h2.5449l5.9775,7.8438
					V312.998z"/>
			</g>
			<g>
				<path fill="#FFFFFF" d="M336.0918,323.5c-1.2314,1.2021-2.748,1.8037-4.5488,1.8037s-3.3174-0.6016-4.5488-1.8037
					c-1.2314-1.2031-1.8477-2.6992-1.8477-4.4883s0.6162-3.2852,1.8477-4.4883c1.2314-1.2021,2.748-1.8037,4.5488-1.8037
					s3.3174,0.6016,4.5488,1.8037c1.2314,1.2031,1.8477,2.6992,1.8477,4.4883S337.3232,322.2969,336.0918,323.5z M335.168,319.0205
					c0-1.0869-0.3486-2.0137-1.0449-2.7803c-0.6973-0.7666-1.5547-1.1504-2.5713-1.1504s-1.874,0.3838-2.5713,1.1504
					c-0.6963,0.7666-1.0449,1.6934-1.0449,2.7803s0.3486,2.0098,1.0449,2.7715c0.6973,0.7607,1.5547,1.1416,2.5713,1.1416
					s1.874-0.3809,2.5713-1.1416C334.8193,321.0303,335.168,320.1074,335.168,319.0205z"/>
			</g>
			<g>
				<path fill="#FFFFFF" d="M345.0684,315.3516v9.8301h-2.7188v-9.8301h-3.4512v-2.3535h9.6211v2.3535H345.0684z"/>
			</g>
			<g>
				<path fill="#FFFFFF" d="M363.4736,312.998v2.3887h-5.6475v2.6318h5.3682v2.3877h-5.3682v4.7754h-2.7188V312.998H363.4736z"/>
			</g>
			<g>
				<path fill="#FFFFFF" d="M376.0225,323.5c-1.2314,1.2021-2.748,1.8037-4.5488,1.8037s-3.3174-0.6016-4.5488-1.8037
					c-1.2314-1.2031-1.8477-2.6992-1.8477-4.4883s0.6162-3.2852,1.8477-4.4883c1.2314-1.2021,2.748-1.8037,4.5488-1.8037
					s3.3174,0.6016,4.5488,1.8037c1.2314,1.2031,1.8477,2.6992,1.8477,4.4883S377.2539,322.2969,376.0225,323.5z M375.0986,319.0205
					c0-1.0869-0.3486-2.0137-1.0449-2.7803c-0.6973-0.7666-1.5547-1.1504-2.5713-1.1504s-1.874,0.3838-2.5713,1.1504
					c-0.6963,0.7666-1.0449,1.6934-1.0449,2.7803s0.3486,2.0098,1.0449,2.7715c0.6973,0.7607,1.5547,1.1416,2.5713,1.1416
					s1.874-0.3809,2.5713-1.1416C374.75,321.0303,375.0986,320.1074,375.0986,319.0205z"/>
			</g>
			<g>
				<path fill="#FFFFFF" d="M383.3955,322.0352c0.4531,0.5645,1.0625,0.8457,1.8301,0.8457c0.7666,0,1.374-0.2812,1.8213-0.8457
					c0.4473-0.5625,0.6709-1.333,0.6709-2.3086v-6.7285h2.7188v6.8154c0,1.7666-0.4883,3.123-1.4639,4.0693
					c-0.9756,0.9473-2.2256,1.4209-3.7471,1.4209c-1.5225,0-2.7744-0.4766-3.7559-1.4297
					c-0.9824-0.9521-1.4736-2.3057-1.4736-4.0605v-6.8154h2.7197v6.7285C382.7158,320.7021,382.9424,321.4727,383.3955,322.0352z"/>
			</g>
			<g>
				<path fill="#FFFFFF" d="M401.7822,312.998h2.7197v12.1836h-2.7197l-5.8037-7.6338v7.6338h-2.7188V312.998h2.5449l5.9775,7.8438
					V312.998z"/>
			</g>
			<g>
				<path fill="#FFFFFF" d="M416.8076,314.5938c1.1611,1.0625,1.7422,2.541,1.7422,4.4355c0,1.8936-0.5664,3.3926-1.6992,4.4961
					c-1.1328,1.1045-2.8613,1.6562-5.1846,1.6562H407.5V312.998h4.3047C413.9775,312.998,415.6455,313.5303,416.8076,314.5938z
					 M414.8115,321.835c0.668-0.627,1.002-1.5391,1.002-2.7363c0-1.1963-0.334-2.1172-1.002-2.7627
					c-0.668-0.6445-1.6934-0.9668-3.0762-0.9668h-1.5166v7.4072h1.7256C413.1875,322.7764,414.1436,322.4629,414.8115,321.835z"/>
			</g>
			<g>
				<path fill="#FFFFFF" d="M420.6055,312.998h3.0859v2.1621l-0.5234,6.2744h-2.0566l-0.5059-6.2744V312.998z M421.0508,324.877
					c-0.2969-0.2969-0.4453-0.6592-0.4453-1.0898c0-0.4297,0.1484-0.793,0.4453-1.0889c0.2959-0.2969,0.6592-0.4443,1.0889-0.4443
					s0.793,0.1475,1.0898,0.4443c0.2959,0.2959,0.4443,0.6592,0.4443,1.0889c0,0.4307-0.1484,0.793-0.4443,1.0898
					c-0.2969,0.2959-0.6602,0.4443-1.0898,0.4443S421.3467,325.1729,421.0508,324.877z"/>
			</g>
		</g>
	</g>
</g>
<g id="Immobiles" display="none">
	<rect x="-61" y="-87.5938" display="inline" fill="#262525" width="612" height="87.5938"/>
</g>
</svg>
