<?xml version="1.0" encoding="utf-8"?>
<!-- Generator: Adobe Illustrator 16.0.4, SVG Export Plug-In . SVG Version: 6.00 Build 0)  -->
<!DOCTYPE svg PUBLIC "-//W3C//DTD SVG 1.1//EN" "http://www.w3.org/Graphics/SVG/1.1/DTD/svg11.dtd">
<svg version="1.1" id="Layer_1" xmlns="http://www.w3.org/2000/svg" xmlns:xlink="http://www.w3.org/1999/xlink" x="0px" y="0px"
	 width="960.035px" height="1208.16px" viewBox="-249.017 -313.377 960.035 1208.16"
	 enable-background="new -249.017 -313.377 960.035 1208.16" xml:space="preserve">
<g id="Base_Layer" display="none">
	<rect x="-61" y="-87.594" display="inline" fill="#F9F8F3" width="612" height="792"/>
</g>
<g id="Layer_2">
	<g display="none">
		<g display="inline">
			
				<rect x="441.317" y="562.048" transform="matrix(0.0719 -0.9974 0.9974 0.0719 -153.0831 1019.5676)" fill="#00A651" width="59.985" height="59.985"/>
		</g>
		<g display="inline">
			<g>
				<path fill="#FFFFFF" d="M446.457,563.325l53.547,3.863l-3.863,53.547l-53.545-3.863L446.457,563.325 M440.627,556.589
					l-0.453,6.283l-3.861,53.547l-0.453,6.285l6.283,0.453l53.545,3.861l6.285,0.453l0.453-6.283l3.861-53.547l0.453-6.283
					l-6.283-0.453l-53.547-3.863L440.627,556.589L440.627,556.589z"/>
			</g>
		</g>
	</g>
	<g display="none">
		<g display="inline">
			<defs>
				<path id="SVGID_1_" d="M299.443,344.714v66.508c0,95.262,77.227,172.486,172.486,172.486
					c95.262,0,172.488-77.225,172.488-172.486v-66.508H299.443z"/>
			</defs>
			<clipPath id="SVGID_2_">
				<use xlink:href="#SVGID_1_"  overflow="visible"/>
			</clipPath>
			<g clip-path="url(#SVGID_2_)">
				<g>
					<g>
						
							<rect x="585.603" y="425.626" transform="matrix(0.8951 -0.4458 0.4458 0.8951 -138.5594 322.2165)" fill="#ED1C24" width="59.982" height="59.983"/>
					</g>
					<g>
						<g>
							<path fill="#FFFFFF" d="M627.645,419.628l23.936,48.055l-48.055,23.936l-23.936-48.057L627.645,419.628 M630.475,411.181
								l-5.639,2.809l-48.053,23.934l-5.641,2.809l2.807,5.639l23.936,48.057l2.811,5.641l5.639-2.809l48.055-23.938l5.639-2.809
								l-2.807-5.639l-23.938-48.055L630.475,411.181L630.475,411.181z"/>
						</g>
					</g>
				</g>
				<g>
					<g>
						
							<rect x="299.936" y="432.037" transform="matrix(0.948 -0.3183 0.3183 0.948 -129.907 129.0501)" fill="#00A651" width="59.985" height="59.985"/>
					</g>
					<g>
						<g>
							<path fill="#FFFFFF" d="M346.836,428.038l17.088,50.893l-50.895,17.088l-17.088-50.895L346.836,428.038 M350.803,420.06
								l-5.973,2.006l-50.891,17.086l-5.975,2.006l2.006,5.971l17.084,50.896l2.006,5.973l5.975-2.006l50.895-17.088l5.971-2.006
								l-2.006-5.973l-17.086-50.893L350.803,420.06L350.803,420.06z"/>
						</g>
					</g>
				</g>
				<g>
					<g>
						
							<rect x="364.109" y="437.352" transform="matrix(0.9911 -0.1331 0.1331 0.9911 -58.6847 56.5995)" fill="#2E3192" width="59.987" height="59.985"/>
					</g>
					<g>
						<g>
							<path fill="#FFFFFF" d="M417.131,437.169l7.145,53.207l-53.209,7.146l-7.143-53.207L417.131,437.169 M422.537,430.087
								l-6.244,0.838l-53.209,7.146l-6.244,0.838l0.84,6.244l7.145,53.207l0.836,6.244l6.244-0.838l53.211-7.146l6.242-0.838
								l-0.84-6.244l-7.145-53.207L422.537,430.087L422.537,430.087z"/>
						</g>
					</g>
				</g>
				<g>
					<g>
						
							<rect x="327.958" y="470.004" transform="matrix(0.7071 -0.7071 0.7071 0.7071 -248.709 399.5535)" fill="#D7FF51" width="59.983" height="59.983"/>
					</g>
					<g>
						<g>
							<path fill="#FFFFFF" d="M357.949,462.028l37.963,37.961l-37.965,37.961l-37.959-37.963L357.949,462.028 M357.949,453.118
								l-4.453,4.455l-37.963,37.959l-4.455,4.455l4.455,4.455l37.961,37.963l4.453,4.455l4.455-4.455l37.963-37.961l4.455-4.455
								l-4.455-4.453l-37.961-37.961L357.949,453.118L357.949,453.118z"/>
						</g>
					</g>
				</g>
				<g>
					<g>
						
							<rect x="432.097" y="444.501" transform="matrix(0.0719 -0.9974 0.9974 0.0719 -44.3954 901.2778)" fill="#00A651" width="59.987" height="59.985"/>
					</g>
					<g>
						<g>
							<path fill="#FFFFFF" d="M437.24,445.786l53.547,3.861l-3.861,53.547l-53.549-3.861L437.24,445.786 M431.41,439.048
								l-0.453,6.285l-3.863,53.547l-0.453,6.283l6.283,0.453l53.549,3.861l6.283,0.453l0.453-6.283l3.861-53.547l0.453-6.283
								l-6.283-0.453l-53.547-3.863L431.41,439.048L431.41,439.048z"/>
						</g>
					</g>
				</g>
				<g>
					<g>
						
							<rect x="477.931" y="444.485" transform="matrix(0.1043 -0.9945 0.9945 0.1043 -16.9357 930.1467)" fill="#ED1C24" width="59.985" height="59.981"/>
					</g>
					<g>
						<g>
							<path fill="#FFFFFF" d="M484.027,444.993l53.393,5.598l-5.598,53.395l-53.391-5.598L484.027,444.993 M478.418,438.071
								l-0.656,6.266l-5.596,53.395l-0.658,6.266l6.268,0.656l53.391,5.598l6.266,0.656l0.658-6.266l5.596-53.395l0.656-6.264
								l-6.266-0.658l-53.391-5.596L478.418,438.071L478.418,438.071z"/>
						</g>
					</g>
				</g>
				<g>
					<g>
						
							<rect x="387.988" y="473.346" transform="matrix(0.8951 -0.4458 0.4458 0.8951 -180.5652 239.1407)" fill="#ED1C24" width="59.983" height="59.983"/>
					</g>
					<g>
						<g>
							<path fill="#FFFFFF" d="M430.033,467.345l23.936,48.055l-48.055,23.936l-23.936-48.057L430.033,467.345 M432.863,458.897
								l-5.639,2.809l-48.053,23.934l-5.641,2.809l2.809,5.639l23.934,48.057l2.811,5.639l5.639-2.809l48.055-23.936l5.639-2.809
								l-2.807-5.639l-23.938-48.055L432.863,458.897L432.863,458.897z"/>
						</g>
					</g>
				</g>
				<g>
					<g>
						
							<rect x="347.973" y="509.816" transform="matrix(0.9595 -0.2817 0.2817 0.9595 -136.7639 128.3417)" fill="#00A651" width="59.984" height="59.986"/>
					</g>
					<g>
						<g>
							<path fill="#FFFFFF" d="M396.158,506.491l15.123,51.512l-51.51,15.123l-15.125-51.512L396.158,506.491 M400.428,498.673
								l-6.047,1.773l-51.508,15.123l-6.047,1.775l1.775,6.045l15.123,51.512l1.775,6.045l6.045-1.775l51.512-15.125l6.045-1.773
								l-1.775-6.045l-15.125-51.512L400.428,498.673L400.428,498.673z"/>
						</g>
					</g>
				</g>
				<g>
					<g>
						
							<rect x="441.932" y="506.472" transform="matrix(0.4829 -0.8757 0.8757 0.4829 -225.7361 690.6578)" fill="#2E3192" width="59.985" height="59.984"/>
					</g>
					<g>
						<g>
							<path fill="#FFFFFF" d="M461.387,499.989l47.01,25.924l-25.924,47.012l-47.012-25.924L461.387,499.989 M458.912,491.431
								l-3.041,5.516l-25.928,47.012l-3.041,5.518l5.518,3.041l47.012,25.924l5.518,3.043l3.041-5.516l25.924-47.012l3.043-5.518
								l-5.518-3.041l-47.012-25.924L458.912,491.431L458.912,491.431z"/>
						</g>
					</g>
				</g>
				<g>
					<g>
						
							<rect x="491.268" y="470.002" transform="matrix(0.969 -0.2471 0.2471 0.969 -107.381 144.3029)" fill="#D7FF51" width="59.987" height="59.985"/>
					</g>
					<g>
						<g>
							<path fill="#FFFFFF" d="M540.643,467.347l13.268,52.02l-52.021,13.268l-13.266-52.023L540.643,467.347 M545.191,459.687
								l-6.105,1.555l-52.02,13.266l-6.105,1.557l1.557,6.104l13.268,52.021l1.557,6.105l6.102-1.557l52.023-13.268l6.105-1.557
								l-1.559-6.104l-13.266-52.02L545.191,459.687L545.191,459.687z"/>
						</g>
					</g>
				</g>
				<g>
					<g>
						
							<rect x="528.177" y="444.504" transform="matrix(0.4829 -0.8757 0.8757 0.4829 -126.872 734.1482)" fill="#2E3192" width="59.987" height="59.987"/>
					</g>
					<g>
						<g>
							<path fill="#FFFFFF" d="M547.631,438.022l47.01,25.924l-25.924,47.012l-47.012-25.924L547.631,438.022 M545.154,429.464
								l-3.041,5.516l-25.926,47.012l-3.041,5.516l5.518,3.043l47.012,25.924l5.516,3.043l3.041-5.518l25.924-47.01l3.045-5.518
								l-5.518-3.043l-47.012-25.924L545.154,429.464L545.154,429.464z"/>
						</g>
					</g>
				</g>
				<g>
					<g>
						
							<rect x="539.963" y="502.06" transform="matrix(0.0719 -0.9974 0.9974 0.0719 -1.6956 1062.2832)" fill="#D7FF51" width="59.985" height="59.985"/>
					</g>
					<g>
						<g>
							<path fill="#FFFFFF" d="M545.1,503.341l53.547,3.863l-3.863,53.545l-53.545-3.861L545.1,503.341 M539.27,496.604
								l-0.453,6.283l-3.861,53.547l-0.453,6.283l6.283,0.453l53.545,3.861l6.285,0.453l0.453-6.283l3.861-53.545l0.453-6.285
								l-6.283-0.453l-53.547-3.861L539.27,496.604L539.27,496.604z"/>
						</g>
					</g>
				</g>
				<g>
					<g>
						
							<rect x="398.086" y="522.059" transform="matrix(0.3184 -0.948 0.948 0.3184 -231.5391 782.0905)" fill="#D7FF51" width="59.989" height="59.987"/>
					</g>
					<g>
						<g>
							<path fill="#FFFFFF" d="M411.191,518.056l50.891,17.094L444.99,586.04L394.1,568.948L411.191,518.056 M407.227,510.077
								l-2.006,5.973l-17.094,50.893l-2.006,5.973l5.973,2.006l50.891,17.092l5.973,2.006l2.006-5.973l17.092-50.891l2.006-5.973
								l-5.973-2.006l-50.891-17.092L407.227,510.077L407.227,510.077z"/>
						</g>
					</g>
				</g>
				<g>
					<g>
						
							<rect x="568.64" y="466.055" transform="matrix(0.9931 -0.1176 0.1176 0.9931 -54.1832 73.8442)" fill="#00A651" width="59.987" height="59.987"/>
					</g>
					<g>
						<g>
							<path fill="#FFFFFF" d="M622.146,466.237l6.312,53.314l-53.312,6.312l-6.312-53.314L622.146,466.237 M627.662,459.241
								l-6.258,0.74l-53.311,6.312l-6.258,0.74l0.74,6.256l6.312,53.314l0.74,6.258l6.258-0.742l53.314-6.312l6.256-0.74
								l-0.742-6.258l-6.312-53.312L627.662,459.241L627.662,459.241z"/>
						</g>
					</g>
				</g>
				<g>
					<g>
						
							<rect x="491.276" y="533.321" transform="matrix(0.8407 -0.5415 0.5415 0.8407 -221.989 371.9729)" fill="#00A651" width="59.986" height="59.984"/>
					</g>
					<g>
						<g>
							<path fill="#FFFFFF" d="M529.295,526.224l29.074,45.131l-45.135,29.074l-29.072-45.133L529.295,526.224 M531.18,517.515
								l-5.295,3.412l-45.133,29.072l-5.297,3.412l3.412,5.295l29.072,45.135l3.41,5.295l5.297-3.41l45.133-29.074l5.297-3.412
								l-3.412-5.297l-29.072-45.131L531.18,517.515L531.18,517.515z"/>
						</g>
					</g>
				</g>
				<g>
					<g>
						
							<rect x="441.317" y="562.048" transform="matrix(0.0719 -0.9974 0.9974 0.0719 -153.0831 1019.5676)" fill="#00A651" width="59.985" height="59.985"/>
					</g>
					<g>
						<g>
							<path fill="#FFFFFF" d="M446.457,563.325l53.547,3.863l-3.863,53.547l-53.545-3.863L446.457,563.325 M440.627,556.589
								l-0.453,6.283l-3.861,53.547l-0.453,6.285l6.283,0.453l53.545,3.861l6.285,0.453l0.453-6.283l3.861-53.547l0.453-6.283
								l-6.283-0.453l-53.547-3.863L440.627,556.589L440.627,556.589z"/>
						</g>
					</g>
				</g>
			</g>
		</g>
	</g>
	<g display="none">
		<g display="inline">
			
				<rect x="441.922" y="818.142" transform="matrix(0.4829 -0.8757 0.8757 0.4829 -498.6644 851.8297)" fill="#2E3192" width="59.987" height="59.988"/>
		</g>
		<g display="inline">
			<g>
				<path fill="#FFFFFF" d="M461.385,811.661l47.012,25.924l-25.924,47.012l-47.012-25.924L461.385,811.661 M458.912,803.103
					l-3.043,5.516l-25.926,47.012l-3.043,5.518l5.518,3.041l47.012,25.924l5.516,3.043l3.045-5.518l25.924-47.01l3.041-5.518
					l-5.518-3.041l-47.01-25.924L458.912,803.103L458.912,803.103z"/>
			</g>
		</g>
	</g>
	<g display="none">
		<g display="inline">
			
				<rect x="441.916" y="727.074" transform="matrix(0.2808 -0.9598 0.9598 0.2808 -387.2049 997.4269)" fill="#D7FF51" width="59.989" height="59.989"/>
		</g>
		<g display="inline">
			<g>
				<path fill="#FFFFFF" d="M453.703,723.778l51.525,15.072l-15.07,51.527l-51.529-15.072L453.703,723.778 M449.424,715.964
					l-1.77,6.047l-15.072,51.527l-1.768,6.045l6.045,1.77l51.527,15.072l6.049,1.77l1.768-6.047l15.07-51.527l1.771-6.047
					l-6.049-1.77l-51.525-15.072L449.424,715.964L449.424,715.964z"/>
			</g>
		</g>
	</g>
	<g display="none">
		<g display="inline">
			
				<rect x="441.951" y="632.01" transform="matrix(0.8951 -0.4458 0.4458 0.8951 -245.6429 279.8404)" fill="#ED1C24" width="59.983" height="59.983"/>
		</g>
		<g display="inline">
			<g>
				<path fill="#FFFFFF" d="M483.988,626.007l23.938,48.055l-48.057,23.936l-23.934-48.057L483.988,626.007 M486.818,617.56
					l-5.637,2.809l-48.055,23.934l-5.639,2.809l2.807,5.639l23.936,48.057l2.809,5.639l5.641-2.809l48.053-23.936l5.641-2.809
					l-2.809-5.639l-23.936-48.055L486.818,617.56L486.818,617.56z"/>
			</g>
		</g>
	</g>
	<g>
		<path fill="#FF3D2B" d="M280.561,395.333c-10.566,0-19.162-8.598-19.162-19.166v-84.014c0-6.514-5.303-11.814-11.816-11.814
			c-6.516,0-11.816,5.301-11.816,11.814v84.014c0,10.568-8.596,19.166-19.164,19.166c-10.566,0-19.164-8.598-19.164-19.166v-84.014
			c0-6.514-5.301-11.814-11.816-11.814s-11.816,5.301-11.816,11.814v26.516c0,10.568-8.598,19.166-19.164,19.166h-20.729v-7.352
			h20.729c6.514,0,11.814-5.301,11.814-11.814v-26.516c0-10.568,8.598-19.164,19.166-19.164s19.166,8.596,19.166,19.164v84.014
			c0,6.516,5.299,11.814,11.814,11.814c6.514,0,11.814-5.299,11.814-11.814v-84.014c0-10.568,8.598-19.164,19.166-19.164
			c10.566,0,19.166,8.596,19.166,19.164v84.014c0,6.516,5.299,11.814,11.812,11.814c6.516,0,11.816-5.299,11.816-11.814v-37.018
			c0-10.568,8.598-19.166,19.164-19.166h18.877v7.352h-18.877c-6.516,0-11.814,5.301-11.814,11.814v37.018
			C299.727,386.735,291.127,395.333,280.561,395.333z"/>
	</g>
	<g>
		<path fill="#FF3D2B" d="M346.811,304.884c-10.371,0-18.777,8.406-18.777,18.775c0,10.371,8.406,18.777,18.777,18.777"/>
	</g>
	<g>
		<path fill="#FF3D2B" d="M121.402,352.937c10.371,0,18.777-8.406,18.777-18.777c0-10.369-8.406-18.775-18.777-18.775"/>
	</g>
	<g>
		<path fill="#414042" d="M690.383,420.185c0,5.596-4.535,10.129-10.129,10.129H356.938c-5.594,0-10.127-4.533-10.127-10.129
			V210.499c0-5.594,4.533-10.129,10.127-10.129h323.316c5.594,0,10.129,4.535,10.129,10.129V420.185z"/>
	</g>
	<g>
		<path fill="#BCBEC0" d="M547.105,430.313h-28.51h-28.512c0,0-0.08,32.926-21.191,32.926l49.703,2.113l49.707-2.113
			C547.191,463.239,547.105,430.313,547.105,430.313z"/>
	</g>
	<g>
		<rect x="434.863" y="463.708" fill="#E6E7E8" width="167.467" height="6.73"/>
	</g>
	<g>
		<circle fill="#FF3D2B" cx="203.111" cy="353.617" r="9.411"/>
	</g>
	<g>
		<path fill="#FF3D2B" d="M234.066,301.554c5.201,0,9.414,4.213,9.414,9.414c0,5.195-4.213,9.412-9.414,9.412
			c-5.197,0-9.412-4.217-9.412-9.412C224.654,305.767,228.869,301.554,234.066,301.554z"/>
	</g>
	<g>
		<circle fill="#FF3D2B" cx="265.352" cy="353.506" r="9.413"/>
	</g>
	<g>
		<path fill="#E6E7E8" d="M122.732,382.271c0,5.184-4.203,9.387-9.385,9.387H82.375c-5.182,0-9.385-4.203-9.385-9.387V286.05
			c0-5.184,4.203-9.387,9.385-9.387h30.973c5.182,0,9.385,4.203,9.385,9.387V382.271L122.732,382.271z"/>
	</g>
	<g>
		<path fill="#D1D3D4" d="M72.99,334.159v48.111c0,5.184,4.203,9.387,9.385,9.387h30.973c5.182,0,9.385-4.203,9.385-9.387v-48.111
			H72.99z"/>
	</g>
	<g opacity="0.8">
		<path fill="#55E2F9" d="M-17.195-2.967h-98.673v-78.85c0,0,23.649,5.955,49.338,5.955c25.687,0,49.335-5.955,49.335-5.955V-2.967
			L-17.195-2.967z"/>
	</g>
	<g opacity="0.8">
		<g>
			<path fill="#55E2F9" d="M-239.018-313.377v66.507c0,95.262,77.227,172.486,172.487,172.486s172.487-77.225,172.487-172.486
				v-66.507H-239.018z"/>
		</g>
	</g>
	<g>
		<path fill="#55E2F9" d="M-1.268,4.841c0,6.282-3.242,11.376-7.24,11.376h-116.048c-3.996,0-7.236-5.094-7.236-11.376v-9.1
			c0-6.282,3.24-11.377,7.236-11.377H-8.508c3.998,0,7.24,5.095,7.24,11.377V4.841z"/>
	</g>
	<g>
		<path fill="#FFFFFF" d="M-165.917-269.859h-4.562l-0.791-4.165c-0.527-0.333-1.299-0.626-2.312-0.875
			c-1.014-0.25-2.09-0.375-3.229-0.375c-1.667,0-2.955,0.351-3.863,1.052c-0.91,0.702-1.366,1.607-1.366,2.719
			c0,1.027,0.477,1.871,1.428,2.53s2.595,1.356,4.926,2.093c3.347,0.931,5.884,2.16,7.612,3.687
			c1.729,1.528,2.595,3.534,2.595,6.021c0,2.596-1.029,4.644-3.084,6.144c-2.056,1.499-4.763,2.25-8.121,2.25
			c-2.404,0-4.573-0.383-6.51-1.146c-1.938-0.763-3.552-1.818-4.844-3.165v-6.332h4.709l0.646,4.312
			c0.609,0.5,1.439,0.913,2.487,1.239c1.048,0.325,2.22,0.488,3.512,0.488c1.665,0,2.933-0.339,3.8-1.02
			c0.867-0.68,1.302-1.59,1.302-2.729c0-1.166-0.414-2.104-1.238-2.812c-0.826-0.709-2.274-1.376-4.344-2
			c-3.597-1.042-6.318-2.277-8.164-3.708c-1.848-1.429-2.771-3.388-2.771-5.873c0-2.458,1.042-4.468,3.123-6.029
			c2.084-1.562,4.7-2.364,7.853-2.405c2.334,0,4.459,0.354,6.374,1.062c1.915,0.708,3.527,1.651,4.832,2.831V-269.859
			L-165.917-269.859z"/>
		<path fill="#FFFFFF" d="M-129.959-279.544v3.666l-3.248,0.624v26.036h-6.062l-12.247-20.412l-0.125,0.021v16.121l3.25,0.625v3.646
			h-12.559v-3.646l3.228-0.625v-21.766l-3.228-0.624v-3.666h3.228h6.081l12.247,20.411l0.125-0.021v-16.101l-3.248-0.624v-3.666
			h9.311H-129.959L-129.959-279.544z"/>
		<path fill="#FFFFFF" d="M-128.846-252.863l2.166-0.312l9.227-26.369h6.228l9.165,26.369l2.166,0.312v3.646h-10.332v-3.646
			l2.104-0.374l-1.333-4.167h-9.832l-1.333,4.167l2.104,0.374v3.646h-10.33V-252.863z M-117.85-261.882h6.957l-3.415-10.685h-0.125
			L-117.85-261.882z"/>
		<path fill="#FFFFFF" d="M-81.329-279.544c3.47,0,6.21,0.892,8.216,2.676c2.008,1.784,3.011,4.121,3.011,7.009
			c0,2.903-1.003,5.235-3.011,6.998c-2.006,1.764-4.746,2.646-8.216,2.646h-5.125v6.728l3.251,0.625v3.646h-12.56v-3.646
			l3.229-0.625v-21.766l-3.229-0.624v-3.666h3.229H-81.329z M-86.454-264.901h5.125c1.694,0,2.974-0.462,3.844-1.386
			c0.867-0.924,1.3-2.1,1.3-3.53c0-1.458-0.433-2.663-1.3-3.613c-0.87-0.951-2.149-1.428-3.844-1.428h-5.125V-264.901z"/>
		<path fill="#FFFFFF" d="M-42.996-269.859h-4.561l-0.791-4.165c-0.529-0.333-1.299-0.626-2.313-0.875
			c-1.014-0.25-2.09-0.375-3.229-0.375c-1.665,0-2.953,0.351-3.863,1.052c-0.908,0.702-1.364,1.607-1.364,2.719
			c0,1.027,0.477,1.871,1.428,2.53c0.949,0.659,2.592,1.356,4.926,2.093c3.345,0.931,5.885,2.16,7.613,3.687
			c1.729,1.528,2.592,3.534,2.592,6.021c0,2.596-1.027,4.644-3.082,6.144c-2.055,1.499-4.763,2.25-8.124,2.25
			c-2.401,0-4.571-0.383-6.509-1.146c-1.936-0.763-3.55-1.818-4.842-3.165v-6.332h4.706l0.646,4.312
			c0.611,0.5,1.439,0.913,2.489,1.239c1.048,0.325,2.217,0.488,3.509,0.488c1.668,0,2.933-0.339,3.803-1.02
			c0.868-0.68,1.3-1.59,1.3-2.729c0-1.166-0.412-2.104-1.238-2.812c-0.827-0.709-2.274-1.376-4.344-2
			c-3.595-1.042-6.316-2.277-8.164-3.708c-1.846-1.429-2.771-3.388-2.771-5.873c0-2.458,1.042-4.468,3.125-6.029
			c2.082-1.562,4.7-2.364,7.853-2.405c2.332,0,4.456,0.354,6.373,1.062c1.916,0.708,3.525,1.651,4.832,2.831V-269.859
			L-42.996-269.859z"/>
		<path fill="#FFFFFF" d="M-38.031-275.878v-3.666h12.559v3.666l-3.248,0.624v8.749h12.373v-8.749l-3.25-0.624v-3.666h3.25h6.061
			h3.25v3.666l-3.25,0.624v21.766l3.25,0.625v3.646h-12.561v-3.646l3.25-0.625v-8.331h-12.373v8.331l3.248,0.625v3.646h-12.559
			v-3.646l3.229-0.625v-21.766L-38.031-275.878z"/>
		<path fill="#FFFFFF" d="M25.17-264.152c0,4.443-1.271,8.116-3.812,11.019s-5.865,4.354-9.975,4.354
			c-4.098,0-7.406-1.451-9.926-4.354s-3.779-6.575-3.779-11.019v-0.458c0-4.415,1.254-8.081,3.77-10.997
			c2.512-2.916,5.818-4.375,9.912-4.375c4.113,0,7.441,1.459,9.988,4.375c2.549,2.916,3.822,6.582,3.822,10.997V-264.152z
			 M19.109-264.652c0-3.138-0.654-5.686-1.957-7.644c-1.307-1.958-3.236-2.937-5.793-2.937c-2.553,0-4.459,0.972-5.717,2.915
			c-1.256,1.944-1.885,4.5-1.885,7.665v0.5c0,3.194,0.637,5.767,1.908,7.718c1.27,1.95,3.174,2.926,5.717,2.926
			c2.568,0,4.498-0.976,5.789-2.926c1.293-1.951,1.938-4.523,1.938-7.718V-264.652z"/>
		<path fill="#FFFFFF" d="M55.879-279.544v8.081h-4.666l-0.25-3.396h-5.58v21.37l3.248,0.625v3.646h-12.58v-3.646l3.25-0.625v-21.37
			h-5.562l-0.25,3.396h-4.643v-8.081H55.879L55.879-279.544z"/>
		<path fill="#FFFFFF" d="M-172.045-218.672h-4.562l-0.791-4.165c-0.527-0.333-1.299-0.626-2.312-0.875
			c-1.013-0.25-2.09-0.375-3.228-0.375c-1.668,0-2.955,0.351-3.864,1.052c-0.91,0.702-1.365,1.607-1.365,2.719
			c0,1.027,0.476,1.871,1.427,2.53c0.952,0.659,2.595,1.356,4.926,2.093c3.348,0.931,5.884,2.16,7.613,3.687
			c1.729,1.528,2.594,3.534,2.594,6.021c0,2.596-1.029,4.644-3.084,6.144c-2.055,1.499-4.762,2.25-8.121,2.25
			c-2.403,0-4.573-0.383-6.51-1.146c-1.938-0.763-3.552-1.818-4.844-3.165v-6.332h4.709l0.646,4.312
			c0.609,0.5,1.439,0.913,2.488,1.239c1.048,0.325,2.219,0.488,3.511,0.488c1.665,0,2.933-0.339,3.8-1.02
			c0.867-0.68,1.303-1.59,1.303-2.729c0-1.166-0.415-2.104-1.239-2.812c-0.826-0.709-2.274-1.376-4.344-2
			c-3.597-1.042-6.318-2.277-8.164-3.707c-1.848-1.43-2.771-3.389-2.771-5.874c0-2.458,1.042-4.468,3.123-6.029
			c2.084-1.562,4.701-2.364,7.853-2.405c2.334,0,4.459,0.354,6.374,1.062c1.916,0.708,3.527,1.651,4.832,2.831V-218.672
			L-172.045-218.672z"/>
		<path fill="#FFFFFF" d="M-147.501-211.36h-10.269v8.664h9.79l0.271-3.624h4.625v8.29h-23.994v-3.646l3.228-0.625v-21.766
			l-3.228-0.624v-3.666h3.228h20.724v8.311h-4.666l-0.271-3.625h-9.706v7.624h10.269V-211.36L-147.501-211.36z"/>
		<path fill="#FFFFFF" d="M-124.081-228.356c3.442,0,6.144,0.788,8.103,2.363c1.958,1.576,2.937,3.753,2.937,6.529
			c0,1.528-0.41,2.854-1.229,3.979c-0.82,1.125-2.021,2.035-3.604,2.729c1.791,0.527,3.078,1.405,3.864,2.635
			c0.783,1.229,1.177,2.752,1.177,4.571v1.541c0,0.667,0.131,1.185,0.396,1.553c0.263,0.368,0.699,0.586,1.311,0.655l0.751,0.104
			v3.666h-3.146c-1.984,0-3.379-0.534-4.186-1.604c-0.806-1.069-1.208-2.45-1.208-4.145v-1.729c0-1.472-0.392-2.628-1.177-3.468
			c-0.783-0.84-1.891-1.281-3.322-1.323h-4.978v7.998l3.249,0.625v3.646h-12.56v-3.646l3.229-0.625v-21.766l-3.229-0.624v-3.666
			h3.229H-124.081z M-128.393-214.984h4.206c1.694,0,2.966-0.361,3.812-1.084c0.848-0.722,1.271-1.763,1.271-3.124
			s-0.42-2.447-1.261-3.259c-0.841-0.813-2.08-1.22-3.718-1.22h-4.312V-214.984z"/>
		<path fill="#FFFFFF" d="M-86.665-211.36h-10.269v8.664h9.789l0.271-3.624h4.624v8.29h-23.994v-3.646l3.229-0.625v-21.766
			l-3.229-0.624v-3.666h3.229h20.725v8.311h-4.665l-0.271-3.625h-9.707v7.624h10.269V-211.36L-86.665-211.36z"/>
		<path fill="#FFFFFF" d="M-45.875-228.356v3.666l-3.248,0.624v26.036h-6.062l-12.247-20.412l-0.125,0.021v16.121l3.25,0.625v3.646
			h-12.559v-3.646l3.228-0.625v-21.766l-3.228-0.624v-3.666h3.228h6.081l12.247,20.411l0.125-0.021v-16.101l-3.248-0.624v-3.666
			h9.311H-45.875L-45.875-228.356z"/>
		<path fill="#FFFFFF" d="M-16.645-201.405c-0.986,0.972-2.422,1.851-4.311,2.636c-1.889,0.784-4.279,1.177-7.166,1.177
			c-4.096,0-7.428-1.372-9.998-4.114c-2.57-2.741-3.854-6.307-3.854-10.695v-1.041c0-4.54,1.268-8.233,3.803-11.081
			c2.533-2.846,5.84-4.271,9.924-4.271c2.375,0,4.545,0.379,6.51,1.136c1.963,0.758,3.598,1.781,4.904,3.072v6.103h-4.5
			l-0.852-4.062c-0.557-0.472-1.291-0.851-2.199-1.135s-1.955-0.427-3.133-0.427c-2.654,0-4.715,0.979-6.188,2.937
			s-2.207,4.52-2.207,7.686v1.083c0,3.083,0.723,5.543,2.166,7.383c1.443,1.842,3.527,2.761,6.248,2.761
			c1.221,0,2.211-0.104,2.967-0.312c0.758-0.208,1.35-0.451,1.781-0.729v-5.145l-4.332-0.333v-4.271h10.436V-201.405
			L-16.645-201.405z"/>
		<path fill="#FFFFFF" d="M8.107-211.36H-2.16v8.664h9.787l0.271-3.624h4.625v8.29h-23.994v-3.646l3.229-0.625v-21.766l-3.229-0.624
			v-3.666h3.229h20.725v8.311H7.816l-0.271-3.625H-2.16v7.624H8.107V-211.36L8.107-211.36z"/>
		<path fill="#FFFFFF" d="M45.023-228.356v8.081h-4.666l-0.25-3.396h-5.582v21.37l3.248,0.625v3.646H25.195v-3.646l3.248-0.625
			v-21.37h-5.561l-0.25,3.396H17.99v-8.081H45.023L45.023-228.356z"/>
		<path fill="#FFFFFF" d="M49.115-224.69v-3.666h12.559v3.666l-3.248,0.624v21.766l3.248,0.625v3.646H49.115v-3.646l3.248-0.625
			v-21.766L49.115-224.69z"/>
	</g>
	<g>
		<ellipse cx="26.422" cy="451.336" rx="5.092" ry="3.37"/>
		<ellipse cx="-143.936" cy="471.484" rx="5.093" ry="3.37"/>
		<path d="M2.139,458.079h-25.811c-2.293,0.326-4.012,1.678-4.012,3.295c0,1.859,2.279,3.369,5.092,3.369h5.109
			c5.625,0,10.184,3.018,10.184,6.74c0,3.725-4.559,6.744-10.184,6.744h-101.82c-5.624,0-10.183-3.02-10.183-6.744
			c0-3.723,4.559-6.74,10.183-6.74h24.224c2.813,0,5.092-1.51,5.092-3.369c0-1.617-1.719-2.969-4.014-3.295h-25.302
			c-5.624,0-10.183-3.02-10.183-6.742s4.559-6.742,10.183-6.742h52.422c2.812,0,5.09-1.508,5.09-3.371
			c0-1.861-2.278-3.371-5.09-3.371h-2.636c-5.625,0-10.184-3.016-10.184-6.742c0-3.723,4.559-6.742,10.184-6.742h3.388h17.826h6.551
			h15.34h3.145c5.623,0,10.182,3.02,10.182,6.742c0,3.727-4.559,6.742-10.182,6.742h0.676c-2.812,0-5.092,1.51-5.092,3.371
			c0,1.863,2.279,3.371,5.092,3.371h24.73c5.625,0,10.184,3.02,10.184,6.742S7.764,458.079,2.139,458.079z"/>
		<ellipse cx="-93.609" cy="431.111" rx="5.091" ry="3.37"/>
	</g>
	<g>
		<polygon fill="#E6E7E8" points="-17.746,232.642 -115.314,232.642 -126.922,189.417 -6.139,189.417 		"/>
	</g>
	<g>
		<polygon fill="#D1D3D4" points="-17.746,232.642 -6.139,189.417 -60.458,189.417 -66.532,232.642 		"/>
	</g>
	<g>
		<rect x="-220.456" y="232.642" fill="#BCBEC0" width="306.591" height="196.557"/>
	</g>
	<g>
		<polygon points="63.809,448.052 43.609,448.052 38.223,429.198 69.195,429.198 		"/>
	</g>
	<g>
		<polygon points="-175.521,448.052 -195.72,448.052 -201.104,429.198 -170.134,429.198 		"/>
	</g>
	<g>
		<polygon fill="#A7A9AC" points="86.135,429.198 86.135,320.378 -220.456,369.267 -220.341,429.198 		"/>
	</g>
	<g>
		<path fill="#FFFFFF" d="M-194.733,277.175h-3.814v-22.6h5.95l6.82,14.193l6.823-14.193h5.916v22.6h-3.814v-17.654l-7.889,15.682
			h-2.135l-7.857-15.682V277.175z"/>
		<path fill="#FFFFFF" d="M-150.89,254.575v3.588h-12.061v5.982h10.832v3.395h-10.832v6.047h12.448v3.588h-16.263v-22.6H-150.89
			L-150.89,254.575z"/>
		<path fill="#FFFFFF" d="M-141.805,277.175h-3.814v-22.6h5.949l6.821,14.193l6.823-14.193h5.916v22.6h-3.814v-17.654l-7.889,15.682
			h-2.136l-7.856-15.682V277.175L-141.805,277.175z"/>
		<path fill="#FFFFFF" d="M-97.961,254.575v3.588h-12.059v5.982h10.83v3.395h-10.83v6.047h12.448v3.588h-16.265v-22.6H-97.961
			L-97.961,254.575z"/>
		<path fill="#FFFFFF" d="M-192.293,288.796h1.91v3.865c-1.069,1.174-2.593,1.762-4.576,1.762c-1.671,0-3.069-0.551-4.195-1.648
			c-1.126-1.1-1.69-2.49-1.69-4.172s0.574-3.082,1.723-4.203c1.146-1.121,2.535-1.682,4.163-1.682c1.627,0,2.98,0.475,4.057,1.424
			l-1.017,1.455c-0.443-0.379-0.889-0.641-1.335-0.785c-0.447-0.146-0.967-0.219-1.559-0.219c-1.145,0-2.103,0.369-2.88,1.107
			c-0.775,0.738-1.163,1.709-1.163,2.91s0.378,2.166,1.133,2.895c0.752,0.727,1.667,1.092,2.739,1.092
			c1.073,0,1.969-0.232,2.69-0.695V288.796L-192.293,288.796z"/>
		<path fill="#FFFFFF" d="M-179.94,282.993v1.793h-6.029v2.992h5.416v1.697h-5.416v3.023h6.224v1.795h-8.133v-11.301H-179.94
			L-179.94,282.993z"/>
		<path fill="#FFFFFF" d="M-168.834,282.993h1.907v11.301h-2.069l-6.402-8.246v8.246h-1.907v-11.301h1.907l6.564,8.438V282.993z"/>
		<path fill="#FFFFFF" d="M-155.853,282.993v1.793h-6.029v2.992h5.416v1.697h-5.416v3.023h6.225v1.795h-8.134v-11.301H-155.853
			L-155.853,282.993z"/>
		<path fill="#FFFFFF" d="M-144.195,286.663c0,1.865-0.814,3.039-2.442,3.523l2.959,4.107h-2.424l-2.701-3.801h-2.506v3.801h-1.907
			v-11.301h4.204c1.723,0,2.957,0.291,3.701,0.873C-144.568,284.448-144.195,285.38-144.195,286.663z M-146.734,288.263
			c0.388-0.334,0.582-0.871,0.582-1.609c0-0.736-0.198-1.244-0.599-1.52c-0.397-0.273-1.109-0.412-2.133-0.412h-2.426v4.043h2.377
			C-147.856,288.765-147.122,288.597-146.734,288.263z"/>
		<path fill="#FFFFFF" d="M-139.848,291.722l-1.13,2.572h-2.039l4.979-11.301h2.038l4.979,11.301h-2.038l-1.132-2.572H-139.848z
			 M-134.965,289.96l-2.053-4.656l-2.053,4.656H-134.965z"/>
		<path fill="#FFFFFF" d="M-126.073,284.739v9.555h-1.909v-9.555h-3.427v-1.746h8.764v1.746H-126.073z"/>
		<path fill="#FFFFFF" d="M-111.426,292.733c-1.145,1.115-2.556,1.672-4.237,1.672s-3.093-0.557-4.234-1.672
			c-1.143-1.115-1.715-2.506-1.715-4.172c0-1.664,0.572-3.055,1.715-4.17c1.142-1.117,2.553-1.674,4.234-1.674
			s3.093,0.557,4.237,1.674c1.142,1.115,1.712,2.506,1.712,4.17C-109.714,290.228-110.284,291.618-111.426,292.733z
			 M-112.825,285.661c-0.771-0.799-1.716-1.197-2.838-1.197c-1.12,0-2.067,0.398-2.836,1.197c-0.771,0.797-1.157,1.764-1.157,2.9
			c0,1.139,0.386,2.105,1.157,2.902c0.769,0.799,1.716,1.197,2.836,1.197c1.122,0,2.067-0.398,2.838-1.197
			c0.77-0.797,1.155-1.764,1.155-2.902C-111.67,287.425-112.056,286.458-112.825,285.661z"/>
		<path fill="#FFFFFF" d="M-98.282,286.663c0,1.865-0.814,3.039-2.443,3.523l2.96,4.107h-2.424l-2.701-3.801h-2.506v3.801h-1.907
			v-11.301h4.204c1.723,0,2.957,0.291,3.701,0.873C-98.656,284.448-98.282,285.38-98.282,286.663z M-100.821,288.263
			c0.388-0.334,0.582-0.871,0.582-1.609c0-0.736-0.199-1.244-0.599-1.52c-0.397-0.273-1.109-0.412-2.133-0.412h-2.426v4.043h2.377
			C-101.943,288.765-101.209,288.597-100.821,288.263z"/>
		<path fill="#FFFFFF" d="M-193.505,300.11v2.182h-4.462v1.891c0.334-0.094,0.718-0.143,1.148-0.143
			c1.089,0,2.026,0.328,2.813,0.984c0.785,0.66,1.179,1.545,1.179,2.662c0,1.115-0.405,2.033-1.22,2.764
			c-0.814,0.727-1.819,1.092-3.015,1.092c-1.53,0-2.808-0.566-3.831-1.699l1.325-1.844c0.096,0.098,0.226,0.217,0.388,0.355
			c0.162,0.141,0.457,0.328,0.89,0.559c0.431,0.232,0.861,0.348,1.292,0.348c0.433,0,0.814-0.129,1.148-0.387
			c0.334-0.262,0.5-0.643,0.5-1.148c0-0.508-0.18-0.896-0.541-1.172s-0.826-0.414-1.398-0.414c-0.57,0-1.232,0.205-1.987,0.615
			l-1.052-1.133v-5.512H-193.505L-193.505,300.11z"/>
		<path fill="#FFFFFF" d="M-186.473,311.542c-1.562,0-2.731-0.531-3.507-1.594c-0.777-1.061-1.165-2.48-1.165-4.252
			s0.388-3.191,1.165-4.254c0.775-1.059,1.944-1.59,3.507-1.59s2.734,0.531,3.509,1.59c0.775,1.062,1.165,2.482,1.165,4.254
			s-0.39,3.191-1.165,4.252C-183.738,311.011-184.91,311.542-186.473,311.542z M-188.138,302.974c-0.354,0.689-0.533,1.6-0.533,2.73
			c0,1.133,0.179,2.043,0.533,2.732c0.356,0.689,0.913,1.033,1.665,1.033c0.755,0,1.311-0.344,1.665-1.033
			c0.357-0.689,0.536-1.6,0.536-2.732c0-1.131-0.179-2.041-0.536-2.73c-0.354-0.691-0.91-1.037-1.665-1.037
			C-187.225,301.937-187.781,302.282-188.138,302.974z"/>
		<path fill="#FFFFFF" d="M-175.318,311.542c-1.562,0-2.731-0.531-3.507-1.594c-0.777-1.061-1.165-2.48-1.165-4.252
			s0.388-3.191,1.165-4.254c0.775-1.059,1.944-1.59,3.507-1.59s2.733,0.531,3.509,1.59c0.775,1.062,1.165,2.482,1.165,4.254
			s-0.39,3.191-1.165,4.252C-172.585,311.011-173.756,311.542-175.318,311.542z M-176.983,302.974
			c-0.354,0.689-0.533,1.6-0.533,2.73c0,1.133,0.179,2.043,0.533,2.732c0.356,0.689,0.912,1.033,1.665,1.033
			c0.755,0,1.311-0.344,1.665-1.033c0.357-0.689,0.535-1.6,0.535-2.732c0-1.131-0.178-2.041-0.535-2.73
			c-0.354-0.691-0.91-1.037-1.665-1.037C-176.071,301.937-176.627,302.282-176.983,302.974z"/>
		<path fill="#FFFFFF" d="M-164.162,311.542c-1.562,0-2.731-0.531-3.509-1.594c-0.775-1.061-1.163-2.48-1.163-4.252
			s0.388-3.191,1.163-4.254c0.777-1.059,1.946-1.59,3.509-1.59s2.731,0.531,3.509,1.59c0.775,1.062,1.163,2.482,1.163,4.254
			s-0.388,3.191-1.163,4.252C-161.431,311.011-162.6,311.542-164.162,311.542z M-165.827,302.974c-0.354,0.689-0.533,1.6-0.533,2.73
			c0,1.133,0.179,2.043,0.533,2.732s0.91,1.033,1.665,1.033s1.309-0.344,1.665-1.033c0.355-0.689,0.533-1.6,0.533-2.732
			c0-1.131-0.178-2.041-0.533-2.73c-0.356-0.691-0.91-1.037-1.665-1.037S-165.473,302.282-165.827,302.974z"/>
	</g>
	<g>
		<circle fill="#D1D3D4" cx="102.084" cy="291.926" r="6.569"/>
	</g>
	<g>
		<circle fill="#D1D3D4" cx="102.084" cy="317.538" r="6.57"/>
	</g>
	<g>
		<circle fill="#E6E7E8" cx="102.084" cy="350.224" r="6.57"/>
	</g>
	<g>
		<circle fill="#E6E7E8" cx="102.084" cy="375.835" r="6.568"/>
	</g>
	<g>
		<path fill="#D1D3D4" d="M102.084,270.093c-3.629,0-6.57,2.943-6.57,6.57h13.141C108.654,273.036,105.713,270.093,102.084,270.093z
			"/>
	</g>
	<g>
		<path fill="#E6E7E8" d="M102.084,398.228c-3.629,0-6.57-2.943-6.57-6.57h13.141C108.654,395.284,105.713,398.228,102.084,398.228z
			"/>
	</g>
	<g>
		<g>
			<g>
				<path fill="#F4E2AE" d="M689.648,796.876l-0.002-43.844H540.033v43.82c-5.652,0.162-10.188,4.768-10.188,10.457
					c0,5.748,4.619,10.398,10.346,10.477c2.4,39.148,34.896,70.162,74.65,70.164c41.307,0,74.797-33.484,74.809-74.789v4.693
					c5.791,0,10.484-4.695,10.484-10.492C700.135,801.571,695.439,796.876,689.648,796.876z"/>
			</g>
			<g opacity="0.06">
				<path d="M614.84,753.03l0.002,134.92c41.312,0,74.807-33.496,74.809-74.809l-0.004-60.109L614.84,753.03z"/>
			</g>
			<g>
				<path fill="#F4E2AE" d="M630.02,814.343H603.57v21.369l26.451,0.002c5.9-0.002,10.688-4.783,10.688-10.686
					C640.709,819.13,635.92,814.343,630.02,814.343z"/>
			</g>
			<g>
				<path fill="#A97C50" d="M614.842,834.884c-14.062,0.002-25.459,11.4-25.457,25.459v23.152
					c7.947,2.881,16.518,4.455,25.457,4.455c8.939-0.002,17.508-1.574,25.455-4.455v-23.15
					C640.297,846.282,628.9,834.886,614.842,834.884z"/>
			</g>
			<g opacity="0.15">
				<path d="M614.842,834.884v53.066c8.939-0.002,17.508-1.574,25.455-4.455v-23.15C640.297,846.282,628.9,834.886,614.842,834.884z
					"/>
			</g>
			<g>
				<path fill="#414042" d="M614.844,867.538c-0.004,0-0.004,0-0.008,0c-7.352,0-13.338-5.984-13.344-13.342h2.102
					c0.004,6.199,5.047,11.242,11.242,11.242c0.002,0,0.002,0,0.004,0c0,0,0.002,0,0.004,0c6.197,0,11.24-5.041,11.242-11.24h2.1
					C628.184,861.554,622.197,867.538,614.844,867.538z"/>
			</g>
			<g>
				<path d="M661.939,808.544c-0.002-3.617-2.945-6.562-6.562-6.562c-1.754,0-3.402,0.684-4.643,1.922s-1.922,2.885-1.922,4.637
					h-4.199c-0.002-2.873,1.117-5.574,3.152-7.607c2.033-2.031,4.736-3.15,7.611-3.15c5.934,0,10.762,4.826,10.764,10.762H661.939
					L661.939,808.544z"/>
			</g>
			<g>
				<path d="M585.436,808.546l-4.199-0.004c0.002-1.752-0.682-3.398-1.92-4.637c-2.479-2.482-6.799-2.48-9.279-0.002
					c-1.24,1.24-1.92,2.887-1.92,4.641h-4.201c-0.002-2.873,1.119-5.576,3.15-7.607c2.033-2.035,4.736-3.154,7.611-3.154
					s5.578,1.119,7.609,3.154C584.32,802.97,585.438,805.673,585.436,808.546z"/>
			</g>
			<g>
				<path fill="#A97C50" d="M689.65,745.29c0-6.959-5.646-12.6-12.602-12.6H552.631c-6.955,0-12.598,5.641-12.598,12.598
					l-0.002,51.588l30.236-38.17l119.381,22.408L689.65,745.29z"/>
			</g>
			<g opacity="0.15">
				<path d="M677.049,732.69h-62.207l-0.002,34.383l74.809,14.041l0.002-35.824C689.65,738.331,684.004,732.69,677.049,732.69z"/>
			</g>
		</g>
		<g>
			<g>
				<path fill="#99743C" d="M507.604,806.036c-0.004-5.729-4.596-10.365-10.297-10.469l-0.002-42.613H347.693v43.424
					c-5.621,0.195-10.123,4.785-10.125,10.453c-0.002,5.715,4.57,10.338,10.252,10.467c2.197,39.344,34.789,70.574,74.68,70.574
					c40.158,0,72.912-31.645,74.719-71.355C502.963,816.458,507.604,811.794,507.604,806.036z"/>
			</g>
			<g>
				<circle cx="422.523" cy="733.787" r="37.802"/>
			</g>
			<g>
				<path fill="#282828" d="M497.309,745.214c-0.002-6.961-5.641-12.602-12.6-12.6l-124.416-0.002
					c-6.957,0.002-12.6,5.641-12.6,12.598v3.277v4.467v43.844l9.98-17.197c8.381,10.537,21.273,17.324,35.783,17.322
					c18.779,0,34.885-11.326,41.936-27.508l61.912,11.621L497.309,745.214z"/>
			</g>
			<g opacity="0.2">
				<path d="M422.5,752.954v134.918c41.316,0,74.805-33.496,74.807-74.809l-0.002-60.109H422.5L422.5,752.954z"/>
			</g>
			<g>
				<path fill="#99743C" d="M431.168,823.729l-19.938-0.002v16.111l19.938-0.004c4.447,0,8.057-3.605,8.055-8.053
					C439.223,827.335,435.613,823.729,431.168,823.729z"/>
			</g>
			<g>
				<path d="M431.635,855.702c-0.002,5.041-4.09,9.129-9.137,9.129c-5.043,0-9.131-4.088-9.131-9.129"/>
			</g>
			<g>
				<circle cx="462.85" cy="815.687" r="5.777"/>
			</g>
			<g>
				<circle cx="382.15" cy="815.687" r="5.773"/>
			</g>
			<g>
				<path fill="#282828" d="M484.709,732.614l-124.416-0.002c-6.957,0.002-12.6,5.641-12.6,12.598v7.744l149.611,28.082
					l0.004-35.822C497.307,738.253,491.668,732.612,484.709,732.614z"/>
			</g>
			<g>
				<path d="M484.709,732.614l-62.186-0.002v53.834c5.52-4.562,9.971-10.377,12.869-17.033l61.912,11.623l0.004-35.822
					C497.307,738.253,491.668,732.612,484.709,732.614z"/>
			</g>
		</g>
	</g>
	<g>
		<g>
			<g>
				<path fill="#F4E2AE" d="M689.648,796.876l-0.002-43.844H540.033v43.82c-5.652,0.162-10.188,4.768-10.188,10.457
					c0,5.748,4.619,10.398,10.346,10.477c2.4,39.148,34.896,70.162,74.65,70.164c41.307,0,74.797-33.484,74.809-74.789v4.693
					c5.791,0,10.484-4.695,10.484-10.492C700.135,801.571,695.439,796.876,689.648,796.876z"/>
			</g>
			<g opacity="0.06">
				<path d="M614.84,753.03l0.002,134.92c41.312,0,74.807-33.496,74.809-74.809l-0.004-60.109L614.84,753.03z"/>
			</g>
			<g>
				<path fill="#F4E2AE" d="M630.02,814.343H603.57v21.369l26.451,0.002c5.9-0.002,10.688-4.783,10.688-10.686
					C640.709,819.13,635.92,814.343,630.02,814.343z"/>
			</g>
			<g>
				<path fill="#A97C50" d="M614.842,834.884c-14.062,0.002-25.459,11.4-25.457,25.459v23.152
					c7.947,2.881,16.518,4.455,25.457,4.455c8.939-0.002,17.508-1.574,25.455-4.455v-23.15
					C640.297,846.282,628.9,834.886,614.842,834.884z"/>
			</g>
			<g opacity="0.15">
				<path d="M614.842,834.884v53.066c8.939-0.002,17.508-1.574,25.455-4.455v-23.15C640.297,846.282,628.9,834.886,614.842,834.884z
					"/>
			</g>
			<g>
				<path fill="#414042" d="M626.086,866.489c-0.004-6.199-5.047-11.242-11.242-11.242c-0.002,0-0.002,0-0.004,0
					c0,0-0.002,0-0.004,0c-6.197,0-11.24,5.041-11.242,11.24h-2.102c0.004-7.357,5.988-13.342,13.344-13.342
					c0.004,0,0.004,0,0.008,0c7.352,0,13.338,5.984,13.342,13.344H626.086z"/>
			</g>
			<g>
				<path fill="#A97C50" d="M689.65,745.29c0-6.959-5.646-12.6-12.602-12.6H552.631c-6.955,0-12.598,5.641-12.598,12.598
					l-0.002,51.588l30.236-38.17l119.381,22.408L689.65,745.29z"/>
			</g>
			<g opacity="0.15">
				<path d="M677.049,732.69h-62.207l-0.002,34.383l74.809,14.041l0.002-35.824C689.65,738.331,684.004,732.69,677.049,732.69z"/>
			</g>
			<g>
				<path d="M574.678,801.481c3.248,0,5.881,2.635,5.881,5.883s-2.633,5.885-5.881,5.885c-3.252,0-5.885-2.637-5.885-5.885
					S571.426,801.481,574.678,801.481z"/>
			</g>
			<g>
				<circle cx="655.002" cy="807.365" r="5.884"/>
			</g>
			<g>
				<path display="none" fill="#46D6F7" d="M1111.803,1484.97c0,2.514-2.037,4.551-4.551,4.551c-2.512,0-4.549-2.037-4.549-4.551
					c0-2.512,4.549-10.85,4.549-10.85S1111.803,1482.458,1111.803,1484.97z"/>
			</g>
		</g>
		<g>
			<g>
				<g>
					<circle cx="422.523" cy="733.787" r="37.802"/>
				</g>
			</g>
			<g>
				<g>
					<path fill="#99743C" d="M507.604,806.036c-0.004-5.729-4.596-10.365-10.297-10.469l-0.002-42.613H347.693v43.424
						c-5.621,0.195-10.123,4.785-10.125,10.453c-0.002,5.715,4.57,10.338,10.252,10.467c2.197,39.344,34.789,70.574,74.68,70.574
						c40.158,0,72.912-31.645,74.719-71.355C502.963,816.458,507.604,811.794,507.604,806.036z"/>
				</g>
			</g>
			<g opacity="0.2">
				<g>
					<path d="M422.5,752.954v134.918c41.316,0,74.805-33.496,74.807-74.809l-0.002-60.109H422.5L422.5,752.954z"/>
				</g>
			</g>
			<g>
				<g>
					<path fill="#99743C" d="M431.168,823.729l-19.938-0.002v16.111l19.938-0.004c4.447,0,8.057-3.605,8.055-8.053
						C439.223,827.335,435.613,823.729,431.168,823.729z"/>
				</g>
			</g>
			<g>
				<g>
					<path d="M413.367,864.831c0.002-5.041,4.088-9.129,9.137-9.129c5.041,0,9.131,4.088,9.131,9.129"/>
				</g>
			</g>
			<g>
				<g>
					<path d="M462.855,824.427c-5.303-0.002-9.615-4.312-9.615-9.607h4.199c0,2.98,2.432,5.406,5.416,5.408
						c2.98-0.002,5.406-2.428,5.406-5.408h4.201C472.463,820.114,468.154,824.425,462.855,824.427z"/>
				</g>
			</g>
			<g>
				<g>
					<path d="M382.15,824.427c-5.295,0-9.604-4.311-9.604-9.607h4.199c0,2.982,2.424,5.408,5.404,5.408s5.408-2.426,5.408-5.408
						h4.199C391.758,820.116,387.447,824.427,382.15,824.427z"/>
				</g>
			</g>
			<g>
				<g>
					<path fill="#282828" d="M484.709,732.614l-124.416-0.002c-6.957,0.002-12.6,5.641-12.6,12.598v7.744l149.611,28.082
						l0.004-35.822C497.307,738.253,491.668,732.612,484.709,732.614z"/>
				</g>
			</g>
			<g>
				<g>
					<path fill="#282828" d="M497.309,745.214c-0.002-6.961-5.641-12.602-12.6-12.6l-124.416-0.002
						c-6.957,0.002-12.6,5.641-12.6,12.598v3.277v4.467v43.844l9.98-17.197c8.381,10.537,21.273,17.324,35.783,17.322
						c18.779,0,34.885-11.326,41.936-27.508l61.912,11.621L497.309,745.214z"/>
				</g>
			</g>
			<g>
				<g>
					<path d="M484.709,732.614l-62.186-0.002v53.834c5.52-4.562,9.971-10.377,12.869-17.033l61.912,11.623l0.004-35.822
						C497.307,738.253,491.668,732.612,484.709,732.614z"/>
				</g>
			</g>
		</g>
	</g>
	<g>
		<g>
			<g>
				<g>
					<g>
						<path fill="#FF3D2B" d="M520.008,677.626c-1.66,0-3.277-0.672-4.453-1.848c-1.176-1.178-1.848-2.793-1.848-4.451
							c0-1.66,0.672-3.277,1.848-4.453c2.354-2.352,6.572-2.352,8.904,0c1.176,1.176,1.848,2.793,1.848,4.453
							c0,1.658-0.672,3.273-1.848,4.451C523.283,676.954,521.666,677.626,520.008,677.626z"/>
					</g>
				</g>
			</g>
			<g>
				<g>
					<g>
						<path fill="#FF3D2B" d="M513.707,647.47c0-3.486,2.814-6.301,6.301-6.301l0,0c3.486,0,6.299,2.814,6.299,6.301l0,0
							c0,3.486-2.812,6.299-6.299,6.299l0,0C516.521,653.769,513.707,650.956,513.707,647.47z M513.707,623.636
							c0-3.486,2.814-6.301,6.301-6.301l0,0c3.486,0,6.299,2.814,6.299,6.301l0,0c0,3.463-2.812,6.299-6.299,6.299l0,0
							C516.521,629.935,513.707,627.099,513.707,623.636z M513.707,599.778c0-3.486,2.814-6.299,6.301-6.299l0,0
							c3.486,0,6.299,2.812,6.299,6.299l0,0c0,3.467-2.812,6.301-6.299,6.301l0,0C516.521,606.079,513.707,603.245,513.707,599.778z
							 M513.707,575.921c0-3.482,2.814-6.299,6.301-6.299l0,0c3.486,0,6.299,2.816,6.299,6.299l0,0c0,3.486-2.812,6.301-6.299,6.301
							l0,0C516.521,582.222,513.707,579.407,513.707,575.921z M513.707,552.067c0-3.467,2.814-6.301,6.301-6.301l0,0
							c3.486,0,6.299,2.834,6.299,6.301l0,0c0,3.486-2.812,6.299-6.299,6.299l0,0C516.521,558.366,513.707,555.554,513.707,552.067z
							 M513.707,528.231c0-3.484,2.814-6.301,6.301-6.301l0,0c3.486,0,6.299,2.816,6.299,6.301l0,0c0,3.465-2.812,6.299-6.299,6.299
							l0,0C516.521,534.53,513.707,531.696,513.707,528.231z"/>
					</g>
				</g>
			</g>
			<g>
				<g>
					<g>
						<path fill="#FF3D2B" d="M520.008,510.677c-1.66,0-3.277-0.674-4.453-1.848c-1.176-1.178-1.848-2.793-1.848-4.453
							c0-1.658,0.672-3.277,1.848-4.451c2.354-2.354,6.553-2.354,8.904,0c1.176,1.174,1.848,2.793,1.848,4.451
							c0,1.66-0.672,3.275-1.848,4.453C523.283,510.003,521.666,510.677,520.008,510.677z"/>
					</g>
				</g>
			</g>
		</g>
		<g>
			<g>
				<g>
					<polygon fill="#FF3D2B" points="520.008,712.167 513.416,700.751 506.824,689.333 520.008,689.333 533.189,689.333 
						526.598,700.751 					"/>
				</g>
			</g>
		</g>
	</g>
	<g>
		<g>
			<g>
				<g>
					<rect x="367.281" y="219.976" fill="#46D6F7" width="302.629" height="190.734"/>
				</g>
			</g>
		</g>
		<g>
			<g>
				<g>
					<path fill="#FFFFFF" d="M393.121,243.243v2.098h-7.051v3.496h6.334v1.984h-6.334v3.535h7.279v2.098h-9.508v-13.211H393.121
						L393.121,243.243z"/>
				</g>
			</g>
			<g>
				<g>
					<path fill="#FFFFFF" d="M396.201,256.454v-13.211h2.23v11.094h6.029v2.117H396.201L396.201,256.454z"/>
				</g>
			</g>
			<g>
				<g>
					<path fill="#FFFFFF" d="M416.178,243.243v2.098h-7.051v3.496h6.334v1.984h-6.334v3.535h7.279v2.098h-9.508v-13.211H416.178
						L416.178,243.243z"/>
				</g>
			</g>
			<g>
				<g>
					<path fill="#FFFFFF" d="M428.182,244.396c0.918,0.77,1.381,1.953,1.381,3.555c0,1.6-0.471,2.771-1.41,3.514
						c-0.939,0.744-2.379,1.115-4.318,1.115h-2.344v3.875h-2.23v-13.211h4.537C425.801,243.243,427.262,243.628,428.182,244.396z
						 M426.602,249.849c0.447-0.473,0.674-1.164,0.674-2.08c0-0.912-0.285-1.559-0.852-1.936c-0.568-0.379-1.455-0.568-2.666-0.568
						h-2.268v5.293h2.59C425.314,250.558,426.156,250.321,426.602,249.849z"/>
				</g>
			</g>
			<g>
				<g>
					<path fill="#FFFFFF" d="M432.188,256.454v-13.211h2.229v5.727h6.559v-5.727h2.23v13.211h-2.23v-5.406h-6.559v5.406H432.188z"/>
				</g>
			</g>
			<g>
				<g>
					<path fill="#FFFFFF" d="M448.742,253.448l-1.322,3.006h-2.381l5.822-13.211h2.381l5.82,13.211h-2.381l-1.322-3.006H448.742z
						 M454.451,251.39l-2.4-5.443l-2.4,5.443H454.451z"/>
				</g>
			</g>
			<g>
				<g>
					<path fill="#FFFFFF" d="M470.799,243.243h2.23v13.211h-2.42l-7.484-9.639v9.639h-2.229v-13.211h2.229l7.674,9.865V243.243
						L470.799,243.243z"/>
				</g>
			</g>
			<g>
				<g>
					<path fill="#FFFFFF" d="M481.686,245.284v11.17h-2.23v-11.17h-4.006v-2.041h10.244v2.041H481.686z"/>
				</g>
			</g>
			<g>
				<g>
					<path fill="#FFFFFF" d="M492.109,244.981c-0.648,0-1.182,0.133-1.598,0.398c-0.414,0.264-0.625,0.664-0.625,1.199
						s0.211,0.945,0.625,1.229c0.416,0.283,1.301,0.59,2.654,0.916c1.355,0.328,2.375,0.787,3.062,1.381
						c0.688,0.592,1.029,1.463,1.029,2.617c0,1.152-0.432,2.088-1.303,2.807c-0.869,0.717-2.01,1.076-3.422,1.076
						c-2.064,0-3.898-0.711-5.498-2.135l1.398-1.682c1.336,1.158,2.721,1.738,4.156,1.738c0.719,0,1.289-0.154,1.711-0.463
						s0.633-0.719,0.633-1.229s-0.197-0.906-0.594-1.191c-0.398-0.283-1.08-0.541-2.051-0.775c-0.971-0.232-1.709-0.447-2.213-0.641
						c-0.502-0.197-0.951-0.451-1.342-0.766c-0.781-0.592-1.17-1.5-1.17-2.723s0.443-2.164,1.33-2.826
						c0.891-0.66,1.99-0.99,3.301-0.99c0.842,0,1.682,0.137,2.512,0.414c0.832,0.279,1.551,0.67,2.154,1.172l-1.191,1.682
						c-0.389-0.352-0.918-0.641-1.586-0.867C493.414,245.095,492.758,244.981,492.109,244.981z"/>
				</g>
			</g>
			<g>
				<g>
					<path fill="#FFFFFF" d="M515.1,243.243h2.232v13.211h-2.42l-7.486-9.639v9.639h-2.229v-13.211h2.229l7.674,9.865V243.243
						L515.1,243.243z"/>
				</g>
			</g>
			<g>
				<g>
					<path fill="#FFFFFF" d="M530.277,243.243v2.098h-7.051v3.496h6.334v1.984h-6.334v3.535h7.279v2.098h-9.508v-13.211H530.277
						L530.277,243.243z"/>
				</g>
			</g>
			<g>
				<g>
					<path fill="#FFFFFF" d="M539.387,256.454h-2.496l-5.309-13.211h2.494l4.064,9.865l4.062-9.865h2.496L539.387,256.454z"/>
				</g>
			</g>
			<g>
				<g>
					<path fill="#FFFFFF" d="M555.867,243.243v2.098h-7.051v3.496h6.334v1.984h-6.334v3.535h7.279v2.098h-9.508v-13.211H555.867
						L555.867,243.243z"/>
				</g>
			</g>
			<g>
				<g>
					<path fill="#FFFFFF" d="M569.492,247.534c0,2.18-0.949,3.553-2.852,4.119l3.457,4.801h-2.834l-3.156-4.441h-2.93v4.441h-2.23
						v-13.211h4.914c2.016,0,3.459,0.34,4.33,1.02C569.061,244.944,569.492,246.034,569.492,247.534z M566.527,249.405
						c0.453-0.391,0.68-1.018,0.68-1.881s-0.232-1.455-0.701-1.777c-0.465-0.32-1.297-0.482-2.492-0.482h-2.836v4.725h2.777
						C565.215,249.989,566.072,249.796,566.527,249.405z"/>
				</g>
			</g>
			<g>
				<g>
					<path fill="#FFFFFF" d="M580.115,245.323v3.627h5.859v2.061h-5.859v5.443h-2.229v-13.211h8.809l-0.021,2.08H580.115
						L580.115,245.323z"/>
				</g>
			</g>
			<g>
				<g>
					<path fill="#FFFFFF" d="M600.357,254.63c-1.336,1.305-2.986,1.957-4.951,1.957c-1.967,0-3.617-0.652-4.953-1.957
						c-1.334-1.303-2.004-2.93-2.004-4.875c0-1.947,0.67-3.572,2.004-4.877c1.336-1.303,2.986-1.955,4.953-1.955
						c1.965,0,3.615,0.652,4.951,1.955c1.334,1.305,2.004,2.93,2.004,4.877C602.361,251.7,601.691,253.327,600.357,254.63z
						 M598.723,246.36c-0.9-0.932-2.006-1.398-3.316-1.398s-2.416,0.467-3.318,1.398c-0.9,0.934-1.352,2.064-1.352,3.395
						c0,1.328,0.451,2.459,1.352,3.391c0.902,0.934,2.008,1.398,3.318,1.398s2.416-0.465,3.316-1.398
						c0.9-0.932,1.352-2.062,1.352-3.391C600.074,248.425,599.623,247.294,598.723,246.36z"/>
				</g>
			</g>
			<g>
				<g>
					<path fill="#FFFFFF" d="M615.721,247.534c0,2.18-0.949,3.553-2.852,4.119l3.457,4.801h-2.834l-3.156-4.441h-2.93v4.441h-2.23
						v-13.211h4.914c2.016,0,3.459,0.34,4.33,1.02C615.289,244.944,615.721,246.034,615.721,247.534z M612.756,249.405
						c0.453-0.391,0.68-1.018,0.68-1.881s-0.232-1.455-0.699-1.777c-0.467-0.32-1.299-0.482-2.494-0.482h-2.836v4.725h2.777
						C611.443,249.989,612.301,249.796,612.756,249.405z"/>
				</g>
			</g>
			<g>
				<g>
					<path fill="#FFFFFF" d="M628.084,250.028h2.23v4.516c-1.246,1.375-3.031,2.061-5.348,2.061c-1.955,0-3.59-0.641-4.906-1.928
						c-1.316-1.285-1.975-2.91-1.975-4.875c0-1.967,0.67-3.604,2.014-4.914c1.342-1.311,2.963-1.965,4.867-1.965
						c1.902,0,3.484,0.555,4.742,1.662l-1.191,1.701c-0.516-0.441-1.035-0.746-1.559-0.916c-0.521-0.17-1.129-0.256-1.822-0.256
						c-1.338,0-2.457,0.432-3.365,1.295c-0.906,0.863-1.359,1.996-1.359,3.402c0,1.404,0.439,2.531,1.322,3.383
						c0.881,0.85,1.951,1.275,3.203,1.275c1.254,0,2.303-0.27,3.146-0.812V250.028z"/>
				</g>
			</g>
			<g>
				<g>
					<path fill="#FFFFFF" d="M642.523,243.243v2.098h-7.051v3.496h6.332v1.984h-6.332v3.535h7.277v2.098h-9.506v-13.211H642.523
						L642.523,243.243z"/>
				</g>
			</g>
			<g>
				<g>
					<path fill="#FFFFFF" d="M650.594,245.284v11.17h-2.232v-11.17h-4.004v-2.041H654.6v2.041H650.594z"/>
				</g>
			</g>
			<g>
				<g>
					<path fill="#FFFFFF" d="M442.143,392.956h-3.527v-8.115l-7.645-12.436h3.793l5.615,9.348l5.615-9.348h3.793l-7.645,12.436
						V392.956L442.143,392.956z"/>
				</g>
			</g>
			<g>
				<g>
					<path fill="#FFFFFF" d="M468.926,390.118c-2.076,2.029-4.645,3.043-7.701,3.043c-3.059,0-5.627-1.014-7.703-3.043
						c-2.078-2.029-3.117-4.559-3.117-7.586s1.039-5.557,3.117-7.584c2.076-2.029,4.645-3.045,7.703-3.045
						c3.057,0,5.625,1.016,7.701,3.045c2.078,2.027,3.117,4.557,3.117,7.584S471.004,388.089,468.926,390.118z M466.383,377.257
						c-1.4-1.453-3.121-2.176-5.158-2.176c-2.039,0-3.76,0.723-5.16,2.176c-1.4,1.449-2.102,3.209-2.102,5.275
						c0,2.068,0.701,3.828,2.102,5.277c1.4,1.453,3.121,2.176,5.16,2.176c2.037,0,3.758-0.723,5.158-2.176
						c1.402-1.449,2.104-3.209,2.104-5.277C468.486,380.466,467.785,378.706,466.383,377.257z"/>
				</g>
			</g>
			<g>
				<g>
					<path fill="#FFFFFF" d="M481.039,388.251c0.941,1.1,2.215,1.646,3.822,1.646s2.881-0.547,3.822-1.646
						c0.939-1.098,1.41-2.586,1.41-4.469v-11.377h3.469v11.525c0,2.959-0.812,5.236-2.438,6.834
						c-1.629,1.598-3.717,2.396-6.264,2.396c-2.549,0-4.635-0.799-6.264-2.396c-1.625-1.598-2.438-3.875-2.438-6.834v-11.525h3.467
						v11.377C479.627,385.665,480.1,387.153,481.039,388.251z"/>
				</g>
			</g>
			<g>
				<g>
					<path fill="#FFFFFF" d="M515.408,379.077c0,3.393-1.48,5.529-4.441,6.412l5.383,7.467h-4.412l-4.91-6.91h-4.557v6.91h-3.467
						v-20.551h7.643c3.135,0,5.379,0.527,6.732,1.586C514.73,375.05,515.408,376.745,515.408,379.077z M510.791,381.989
						c0.705-0.607,1.059-1.582,1.059-2.926c0-1.342-0.363-2.264-1.088-2.762c-0.725-0.502-2.018-0.752-3.879-0.752h-4.412v7.35
						h4.324C508.752,382.899,510.086,382.597,510.791,381.989z"/>
				</g>
			</g>
			<g>
				<g>
					<path fill="#FFFFFF" d="M531.928,392.956h-3.467v-20.551h5.408l6.203,12.906l6.203-12.906h5.381v20.551h-3.469v-16.053
						l-7.174,14.26h-1.939l-7.146-14.26V392.956L531.928,392.956z"/>
				</g>
			</g>
			<g>
				<g>
					<path fill="#FFFFFF" d="M561.977,388.251c0.941,1.1,2.215,1.646,3.822,1.646s2.881-0.547,3.822-1.646
						c0.939-1.098,1.412-2.586,1.412-4.469v-11.377h3.467v11.525c0,2.959-0.811,5.236-2.438,6.834
						c-1.629,1.598-3.717,2.396-6.264,2.396c-2.549,0-4.635-0.799-6.262-2.396s-2.439-3.875-2.439-6.834v-11.525h3.469v11.377
						C560.566,385.665,561.037,387.153,561.977,388.251z"/>
				</g>
			</g>
			<g>
				<g>
					<path fill="#FFFFFF" d="M583.408,392.956h-3.469v-20.551h5.408l6.203,12.906l6.203-12.906h5.383v20.551h-3.471v-16.053
						l-7.174,14.26h-1.939l-7.145-14.26V392.956L583.408,392.956z"/>
				</g>
			</g>
		</g>
		<g>
			<g>
				<g>
					<g>
						<path fill="#D1D3D4" d="M509.936,278.228c-0.719-0.18-16.744-3.061-30.428,0c-13.684,3.062-20.709,21.969-10.08,31.689
							c10.621,9.725,18.191,25.508,33.223,11.043C517.68,306.499,509.936,278.228,509.936,278.228z"/>
					</g>
				</g>
			</g>
			<g>
				<g>
					<g>
						<path fill="#BCBEC0" d="M525.785,278.228c0.719-0.18,16.744-3.061,30.426,0c13.686,3.062,20.707,21.969,10.082,31.689
							c-10.621,9.725-18.191,25.508-33.223,11.043C518.041,306.499,525.785,278.228,525.785,278.228z"/>
					</g>
				</g>
			</g>
			<g>
				<g>
					<g>
						<path fill="#FFFFFF" d="M508.316,321.622c0,0-4.322,15.846-3.061,21.428c1.262,5.58-5.043-2.881-3.602-12.424
							C503.096,321.081,504.725,314.868,508.316,321.622z"/>
					</g>
				</g>
			</g>
			<g>
				<g>
					<g>
						<path fill="#EAEBEC" d="M527.402,321.622c0,0,4.322,15.846,3.062,21.428c-1.262,5.58,5.043-2.881,3.602-12.424
							C532.623,321.081,530.996,314.868,527.402,321.622z"/>
					</g>
				</g>
			</g>
			<g>
				<g>
					<g>
						<path fill="#E6E7E8" d="M545.141,298.396c0-12.656-12.213-22.918-27.281-22.918c-15.066,0-27.279,10.262-27.279,22.918
							c0,3.441,0.906,6.703,2.525,9.631c0.002,0.006,0.004,0.012,0.006,0.02c2.273,6.494,9.264,12.164,14.711,18.504
							c5.355,6.236,7.42,32.344,7.42,32.344h2.617h2.619c0,0,1.703-25.389,7.42-32.344c5.309-6.457,12.436-12.01,14.711-18.504
							c0.002-0.008,0.004-0.014,0.006-0.02C544.232,305.099,545.141,301.837,545.141,298.396z"/>
					</g>
				</g>
			</g>
			<g>
				<g>
					<g>
						<path fill="#D1D3D4" d="M542.609,308.046c0.002-0.008,0.004-0.014,0.006-0.02c1.617-2.928,2.525-6.189,2.525-9.631
							c0-12.656-12.213-22.918-27.281-22.918v83.416h2.619c0,0,1.703-25.389,7.42-32.344
							C533.207,320.093,540.334,314.54,542.609,308.046z"/>
					</g>
				</g>
			</g>
			<g>
				<g>
					<g>
						<circle fill="#404041" cx="535.812" cy="303.632" r="1.986"/>
					</g>
				</g>
			</g>
			<g>
				<g>
					<g>
						<circle fill="#404041" cx="499.91" cy="303.632" r="1.986"/>
					</g>
				</g>
			</g>
		</g>
	</g>
	<g>
		<g>
			<g>
				<rect x="367.281" y="219.976" fill="#FF3D2B" width="302.629" height="190.734"/>
			</g>
		</g>
		<g>
			<g>
				<path fill="#FFFFFF" d="M434.818,256.075v5.088H422.08v5.271h11.457v4.867H422.08v5.307h13.141v5.053h-18.85v-25.586H434.818z"
					/>
			</g>
			<g>
				<path fill="#FFFFFF" d="M461.062,264.567c0,4.1-1.625,6.746-4.869,7.941l6.479,9.152h-7.027l-5.674-8.162h-3.953v8.162h-5.709
					v-25.586h9.699c3.977,0,6.812,0.672,8.51,2.014C460.213,259.431,461.062,261.591,461.062,264.567z M454.18,267.604
					c0.707-0.635,1.062-1.641,1.062-3.02c0-1.377-0.367-2.324-1.1-2.836s-2.012-0.77-3.844-0.77h-4.281v7.578h4.174
					C452.143,268.558,453.473,268.239,454.18,267.604z"/>
			</g>
			<g>
				<path fill="#FFFFFF" d="M487.67,264.567c0,4.1-1.623,6.746-4.867,7.941l6.479,9.152h-7.029l-5.672-8.162h-3.953v8.162h-5.711
					v-25.586h9.701c3.977,0,6.812,0.672,8.508,2.014C486.822,259.431,487.67,261.591,487.67,264.567z M480.789,267.604
					c0.707-0.635,1.061-1.641,1.061-3.02c0-1.377-0.365-2.324-1.098-2.836s-2.012-0.77-3.844-0.77h-4.281v7.578h4.172
					C478.752,268.558,480.08,268.239,480.789,267.604z"/>
			</g>
			<g>
				<path fill="#FFFFFF" d="M514.793,278.128c-2.586,2.525-5.771,3.789-9.553,3.789s-6.967-1.264-9.553-3.789
					s-3.881-5.666-3.881-9.424s1.295-6.9,3.881-9.426s5.771-3.787,9.553-3.787s6.967,1.262,9.553,3.787s3.879,5.668,3.879,9.426
					S517.379,275.603,514.793,278.128z M512.852,268.722c0-2.281-0.732-4.227-2.193-5.838c-1.465-1.609-3.266-2.416-5.4-2.416
					s-3.936,0.807-5.398,2.416c-1.463,1.611-2.195,3.557-2.195,5.838s0.732,4.223,2.195,5.82s3.264,2.396,5.398,2.396
					s3.936-0.799,5.4-2.396C512.119,272.944,512.852,271.003,512.852,268.722z"/>
			</g>
			<g>
				<path fill="#FFFFFF" d="M544.258,264.567c0,4.1-1.625,6.746-4.869,7.941l6.479,9.152h-7.027l-5.672-8.162h-3.955v8.162h-5.709
					v-25.586h9.701c3.975,0,6.812,0.672,8.508,2.014S544.258,261.591,544.258,264.567z M537.375,267.604
					c0.707-0.635,1.062-1.641,1.062-3.02c0-1.377-0.367-2.324-1.1-2.836s-2.012-0.77-3.842-0.77h-4.283v7.578h4.174
					C535.34,268.558,536.668,268.239,537.375,267.604z"/>
			</g>
			<g>
				<path fill="#FFFFFF" d="M558.568,270.606v-4.465h5.49v4.465h2.891v4.941h-2.891v6.113h-5.49v-6.113h-10.285v-4.355l9.113-15.117
					h6.223l-8.674,14.531H558.568z"/>
			</g>
			<g>
				<path fill="#FFFFFF" d="M581.113,281.954c-3.539,0-6.186-1.203-7.941-3.605c-1.758-2.404-2.637-5.613-2.637-9.627
					s0.879-7.223,2.637-9.627c1.756-2.402,4.402-3.604,7.941-3.604s6.186,1.201,7.941,3.604c1.758,2.404,2.635,5.613,2.635,9.627
					s-0.877,7.223-2.635,9.627C587.299,280.751,584.652,281.954,581.113,281.954z M577.344,262.554
					c-0.807,1.562-1.209,3.625-1.209,6.188c0,2.561,0.402,4.623,1.209,6.184c0.805,1.562,2.061,2.344,3.77,2.344
					c1.707,0,2.965-0.781,3.771-2.344c0.803-1.561,1.207-3.623,1.207-6.184c0-2.562-0.404-4.625-1.207-6.188
					c-0.807-1.561-2.064-2.342-3.771-2.342C579.404,260.212,578.148,260.993,577.344,262.554z"/>
			</g>
			<g>
				<path fill="#FFFFFF" d="M605.344,270.606v-4.465h5.49v4.465h2.893v4.941h-2.893v6.113h-5.49v-6.113h-10.283v-4.355l9.113-15.117
					h6.223l-8.676,14.531H605.344z"/>
			</g>
			<g>
				<path fill="#FFFFFF" d="M617.787,256.075h6.48v4.539l-1.1,13.176h-4.318l-1.062-13.176V256.075z M618.723,281.019
					c-0.625-0.621-0.936-1.383-0.936-2.287c0-0.902,0.311-1.664,0.936-2.287c0.621-0.621,1.383-0.934,2.285-0.934
					s1.666,0.312,2.289,0.934c0.621,0.623,0.934,1.385,0.934,2.287c0,0.904-0.312,1.666-0.934,2.287
					c-0.623,0.623-1.387,0.936-2.289,0.936S619.344,281.642,618.723,281.019z"/>
			</g>
			<g>
				<path fill="#FFFFFF" d="M453.631,325.581l-2.379-5.525h-10.723l-2.381,5.525h-6.074l11.053-25.584h5.527l11.055,25.584H453.631z
					 M445.908,307.612l-3.219,7.428h6.404L445.908,307.612z"/>
			</g>
			<g>
				<path fill="#FFFFFF" d="M480.568,299.997h5.711v25.584h-5.711l-12.188-16.031v16.031h-5.709v-25.584h5.344l12.553,16.471
					V299.997L480.568,299.997z"/>
			</g>
			<g>
				<path fill="#FFFFFF" d="M492.576,299.997h5.709v25.584h-5.709V299.997z"/>
			</g>
			<g>
				<path fill="#FFFFFF" d="M527.494,309.478l-6.918,13.982h-3.402l-6.883-13.982v16.104h-5.709v-25.584h7.723l6.588,14.055
					l6.625-14.055h7.688v25.584h-5.711V309.478L527.494,309.478z"/>
			</g>
			<g>
				<path fill="#FFFFFF" d="M557.725,325.581l-2.379-5.525h-10.723l-2.381,5.525h-6.074l11.053-25.584h5.527l11.055,25.584H557.725z
					 M550.002,307.612l-3.219,7.428h6.404L550.002,307.612z"/>
			</g>
			<g>
				<path fill="#FFFFFF" d="M566.768,325.581v-25.584h5.709v20.498h10.908v5.086H566.768L566.768,325.581z"/>
			</g>
			<g>
				<path fill="#FFFFFF" d="M593.541,305.103c-0.551,0.453-0.826,1.049-0.826,1.795c0,0.744,0.338,1.334,1.008,1.775
					c0.67,0.438,2.221,0.957,4.648,1.557c2.43,0.596,4.314,1.492,5.654,2.688c1.344,1.195,2.014,2.941,2.014,5.236
					c0,2.293-0.859,4.152-2.58,5.58c-1.721,1.43-3.984,2.143-6.789,2.143c-4.051,0-7.699-1.5-10.943-4.504l3.402-4.17
					c2.758,2.416,5.307,3.621,7.652,3.621c1.047,0,1.871-0.227,2.469-0.678s0.898-1.061,0.898-1.828c0-0.77-0.318-1.379-0.955-1.83
					c-0.633-0.451-1.891-0.91-3.768-1.373c-2.979-0.709-5.156-1.629-6.535-2.766c-1.377-1.131-2.066-2.914-2.066-5.342
					s0.871-4.301,2.617-5.619c1.744-1.318,3.922-1.975,6.533-1.975c1.709,0,3.416,0.291,5.125,0.877
					c1.705,0.588,3.195,1.416,4.465,2.49l-2.893,4.172c-2.221-1.684-4.514-2.527-6.881-2.527
					C594.84,304.425,594.09,304.651,593.541,305.103z"/>
			</g>
			<g>
				<path fill="#FFFFFF" d="M420.523,343.919h5.713v25.586h-5.713l-12.188-16.031v16.031h-5.709v-25.586h5.344l12.553,16.473
					V343.919L420.523,343.919z"/>
			</g>
			<g>
				<path fill="#FFFFFF" d="M454.051,365.974c-2.586,2.523-5.771,3.787-9.553,3.787s-6.967-1.264-9.553-3.787
					c-2.586-2.527-3.881-5.668-3.881-9.426s1.295-6.898,3.881-9.426c2.586-2.523,5.771-3.787,9.553-3.787s6.967,1.264,9.553,3.787
					c2.586,2.527,3.879,5.668,3.879,9.426S456.637,363.446,454.051,365.974z M452.109,356.565c0-2.281-0.73-4.229-2.193-5.838
					c-1.465-1.609-3.266-2.416-5.4-2.416s-3.936,0.807-5.398,2.416s-2.195,3.557-2.195,5.838c0,2.283,0.732,4.221,2.195,5.82
					c1.463,1.598,3.264,2.398,5.398,2.398s3.936-0.801,5.4-2.398C451.379,360.786,452.109,358.849,452.109,356.565z"/>
			</g>
			<g>
				<path fill="#FFFFFF" d="M472.9,348.862v20.643h-5.709v-20.643h-7.248v-4.943h20.205v4.943H472.9z"/>
			</g>
			<g>
				<path fill="#FFFFFF" d="M511.553,343.919v5.016h-11.861v5.527h11.273v5.014h-11.273v10.029h-5.709v-25.586H511.553z"/>
			</g>
			<g>
				<path fill="#FFFFFF" d="M537.904,365.974c-2.586,2.523-5.771,3.787-9.553,3.787s-6.967-1.264-9.553-3.787
					c-2.586-2.527-3.879-5.668-3.879-9.426s1.293-6.898,3.879-9.426c2.586-2.523,5.771-3.787,9.553-3.787s6.967,1.264,9.553,3.787
					c2.586,2.527,3.881,5.668,3.881,9.426S540.49,363.446,537.904,365.974z M535.965,356.565c0-2.281-0.732-4.229-2.195-5.838
					s-3.264-2.416-5.398-2.416s-3.936,0.807-5.4,2.416c-1.463,1.609-2.193,3.557-2.193,5.838c0,2.283,0.73,4.221,2.193,5.82
					c1.465,1.598,3.266,2.398,5.4,2.398s3.936-0.801,5.398-2.398C535.232,360.786,535.965,358.849,535.965,356.565z"/>
			</g>
			<g>
				<path fill="#FFFFFF" d="M553.389,362.897c0.951,1.186,2.23,1.775,3.842,1.775s2.887-0.59,3.826-1.775
					c0.938-1.182,1.408-2.801,1.408-4.848v-14.131h5.709v14.312c0,3.709-1.025,6.559-3.074,8.545
					c-2.049,1.99-4.674,2.984-7.869,2.984c-3.197,0-5.826-1-7.887-3.002c-2.062-2-3.094-4.842-3.094-8.527v-14.312h5.711v14.131
					C551.961,360.097,552.436,361.716,553.389,362.897z"/>
			</g>
			<g>
				<path fill="#FFFFFF" d="M592,343.919h5.711v25.586H592l-12.188-16.031v16.031h-5.709v-25.586h5.344L592,360.392V343.919
					L592,343.919z"/>
			</g>
			<g>
				<path fill="#FFFFFF" d="M623.553,347.271c2.439,2.23,3.66,5.336,3.66,9.314c0,3.977-1.189,7.125-3.568,9.441
					c-2.379,2.32-6.01,3.479-10.889,3.479h-8.748v-25.586h9.039C617.609,343.919,621.113,345.036,623.553,347.271z M619.361,362.476
					c1.402-1.316,2.104-3.23,2.104-5.746c0-2.512-0.701-4.445-2.104-5.801c-1.402-1.354-3.557-2.031-6.459-2.031h-3.186v15.557
					h3.623C615.951,364.454,617.959,363.796,619.361,362.476z"/>
			</g>
			<g>
				<path fill="#FFFFFF" d="M631.529,343.919h6.48v4.541l-1.1,13.176h-4.318l-1.062-13.176V343.919z M632.465,368.864
					c-0.625-0.623-0.936-1.385-0.936-2.289c0-0.902,0.311-1.664,0.936-2.285c0.621-0.625,1.383-0.934,2.285-0.934
					s1.666,0.309,2.289,0.934c0.621,0.621,0.934,1.383,0.934,2.285c0,0.904-0.312,1.666-0.934,2.289
					c-0.623,0.621-1.387,0.934-2.289,0.934S633.086,369.485,632.465,368.864z"/>
			</g>
		</g>
	</g>
</g>
<g id="Immobiles" display="none">
	<rect x="-61" y="-87.594" display="inline" fill="#262525" width="612" height="87.594"/>
</g>
</svg>
