<?xml version="1.0" encoding="utf-8"?>
<!-- Generator: Adobe Illustrator 16.0.4, SVG Export Plug-In . SVG Version: 6.00 Build 0)  -->
<!DOCTYPE svg PUBLIC "-//W3C//DTD SVG 1.1//EN" "http://www.w3.org/Graphics/SVG/1.1/DTD/svg11.dtd">
<svg version="1.1" id="Layer_1" xmlns="http://www.w3.org/2000/svg" xmlns:xlink="http://www.w3.org/1999/xlink" x="0px" y="0px"
	 width="960.035px" height="1208.16px" viewBox="-249.017 -313.377 960.035 1208.16"
	 enable-background="new -249.017 -313.377 960.035 1208.16" xml:space="preserve">
<g id="Base_Layer" display="none">
	<rect x="-61" y="-87.594" display="inline" fill="#F9F8F3" width="612" height="792"/>
</g>
<g id="Layer_2">
	<g>
		<g>
			<g>
				
					<rect x="-97.664" y="-96.042" transform="matrix(0.0719 -0.9974 0.9974 0.0719 3.0726 -128.7976)" fill="#00A651" width="59.985" height="59.985"/>
			</g>
		</g>
		<g>
			<g>
				<g>
					<path fill="#FFFFFF" d="M-92.524-94.766l53.545,3.862l-3.861,53.546l-53.547-3.861L-92.524-94.766 M-98.354-101.503
						l-0.454,6.284l-3.862,53.547l-0.453,6.283l6.283,0.453l53.547,3.862l6.283,0.453l0.453-6.284l3.863-53.546l0.453-6.283
						l-6.285-0.453l-53.545-3.862L-98.354-101.503L-98.354-101.503z"/>
				</g>
			</g>
		</g>
	</g>
	<g>
		<g>
			<defs>
				<path id="SVGID_1_" d="M-239.54-313.377v66.507c0,95.262,77.227,172.486,172.487,172.486
					c95.263,0,172.487-77.225,172.487-172.486v-66.507H-239.54z"/>
			</defs>
			<clipPath id="SVGID_2_">
				<use xlink:href="#SVGID_1_"  overflow="visible"/>
			</clipPath>
			<g clip-path="url(#SVGID_2_)">
				<g>
					<g>
						<g>
							
								<rect x="46.622" y="-232.466" transform="matrix(0.8951 -0.4458 0.4458 0.8951 98.2989 12.9208)" fill="#ED1C24" width="59.982" height="59.983"/>
						</g>
					</g>
					<g>
						<g>
							<g>
								<path fill="#FFFFFF" d="M88.662-238.463l23.936,48.054l-48.055,23.936l-23.934-48.056L88.662-238.463 M91.492-246.911
									l-5.639,2.809L37.8-220.169l-5.641,2.81l2.809,5.639l23.936,48.056l2.809,5.64l5.639-2.809l48.055-23.936l5.641-2.81
									l-2.809-5.639l-23.936-48.054L91.492-246.911L91.492-246.911z"/>
							</g>
						</g>
					</g>
				</g>
				<g>
					<g>
						<g>
							
								<rect x="-239.046" y="-226.054" transform="matrix(0.948 -0.3183 0.3183 0.948 51.5323 -76.7356)" fill="#00A651" width="59.986" height="59.984"/>
						</g>
					</g>
					<g>
						<g>
							<g>
								<path fill="#FFFFFF" d="M-192.146-230.054l17.087,50.894l-50.894,17.088l-17.087-50.896L-192.146-230.054 M-188.178-238.031
									l-5.973,2.005l-50.893,17.086l-5.974,2.006l2.005,5.972l17.086,50.896l2.006,5.973l5.973-2.006l50.895-17.088l5.972-2.005
									l-2.006-5.973l-17.087-50.894L-188.178-238.031L-188.178-238.031z"/>
							</g>
						</g>
					</g>
				</g>
				<g>
					<g>
						<g>
							
								<rect x="-174.873" y="-220.739" transform="matrix(0.9911 -0.1331 0.1331 0.9911 24.0977 -20.9791)" fill="#2E3192" width="59.985" height="59.985"/>
						</g>
					</g>
					<g>
						<g>
							<g>
								<path fill="#FFFFFF" d="M-121.851-220.923l7.145,53.208l-53.208,7.146l-7.145-53.207L-121.851-220.923 M-116.446-228.005
									l-6.244,0.839l-53.208,7.146l-6.243,0.838l0.839,6.245l7.144,53.207l0.838,6.244l6.245-0.839l53.208-7.146l6.244-0.838
									l-0.839-6.244l-7.146-53.208L-116.446-228.005L-116.446-228.005z"/>
							</g>
						</g>
					</g>
				</g>
				<g>
					<g>
						<g>
							
								<rect x="-211.023" y="-188.088" transform="matrix(0.7071 -0.7071 0.7071 0.7071 58.7678 -174.3144)" fill="#D7FF51" width="59.983" height="59.984"/>
						</g>
					</g>
					<g>
						<g>
							<g>
								<path fill="#FFFFFF" d="M-181.032-196.062l37.961,37.961l-37.963,37.961l-37.96-37.964L-181.032-196.062 M-181.032-204.973
									l-4.454,4.454l-37.962,37.959l-4.456,4.455l4.455,4.455l37.96,37.963l4.455,4.455l4.454-4.454l37.963-37.961l4.456-4.455
									l-4.456-4.455l-37.961-37.961L-181.032-204.973L-181.032-204.973z"/>
							</g>
						</g>
					</g>
				</g>
				<g>
					<g>
						<g>
							
								<rect x="-106.883" y="-213.588" transform="matrix(0.0719 -0.9974 0.9974 0.0719 111.7614 -247.0825)" fill="#00A651" width="59.985" height="59.983"/>
						</g>
					</g>
					<g>
						<g>
							<g>
								<path fill="#FFFFFF" d="M-101.742-212.307l53.546,3.863l-3.861,53.546l-53.547-3.861L-101.742-212.307 M-107.572-219.043
									l-0.453,6.283l-3.862,53.547l-0.453,6.284l6.283,0.453l53.547,3.861l6.283,0.453l0.453-6.283l3.861-53.546l0.453-6.283
									l-6.283-0.454l-53.546-3.862L-107.572-219.043L-107.572-219.043z"/>
							</g>
						</g>
					</g>
				</g>
				<g>
					<g>
						<g>
							
								<rect x="-61.051" y="-213.607" transform="matrix(0.1043 -0.9945 0.9945 0.1043 154.796 -195.3563)" fill="#ED1C24" width="59.984" height="59.98"/>
						</g>
					</g>
					<g>
						<g>
							<g>
								<path fill="#FFFFFF" d="M-54.954-213.098l53.391,5.598l-5.596,53.393l-53.393-5.597L-54.954-213.098 M-60.563-220.021
									l-0.657,6.266l-5.597,53.394l-0.657,6.267l6.267,0.657l53.393,5.597l6.266,0.656l0.656-6.267l5.596-53.393l0.656-6.266
									l-6.264-0.657l-53.392-5.597L-60.563-220.021L-60.563-220.021z"/>
							</g>
						</g>
					</g>
				</g>
				<g>
					<g>
						<g>
							
								<rect x="-150.993" y="-184.744" transform="matrix(0.8951 -0.4458 0.4458 0.8951 56.3015 -70.1751)" fill="#ED1C24" width="59.982" height="59.983"/>
						</g>
					</g>
					<g>
						<g>
							<g>
								<path fill="#FFFFFF" d="M-108.949-190.746l23.936,48.054l-48.055,23.936l-23.935-48.056L-108.949-190.746 M-106.119-199.194
									l-5.639,2.809l-48.054,23.934l-5.64,2.809l2.809,5.64l23.935,48.056l2.81,5.64l5.639-2.809l48.055-23.936l5.64-2.81
									l-2.809-5.639l-23.936-48.054L-106.119-199.194L-106.119-199.194z"/>
							</g>
						</g>
					</g>
				</g>
				<g>
					<g>
						<g>
							
								<rect x="-191.01" y="-148.275" transform="matrix(0.9595 -0.2817 0.2817 0.9595 26.7994 -50.1488)" fill="#00A651" width="59.984" height="59.984"/>
						</g>
					</g>
					<g>
						<g>
							<g>
								<path fill="#FFFFFF" d="M-142.825-151.6l15.125,51.51l-51.512,15.125l-15.124-51.513L-142.825-151.6 M-138.555-159.42
									l-6.044,1.775l-51.511,15.122l-6.045,1.775l1.775,6.045l15.123,51.512l1.775,6.045l6.044-1.774l51.512-15.125l6.045-1.774
									l-1.775-6.045l-15.124-51.511L-138.555-159.42L-138.555-159.42z"/>
							</g>
						</g>
					</g>
				</g>
				<g>
					<g>
						<g>
							
								<rect x="-97.05" y="-151.621" transform="matrix(0.4829 -0.8757 0.8757 0.4829 71.8316 -121.6146)" fill="#2E3192" width="59.986" height="59.985"/>
						</g>
					</g>
					<g>
						<g>
							<g>
								<path fill="#FFFFFF" d="M-77.595-158.102l47.011,25.924l-25.924,47.011l-47.012-25.924L-77.595-158.102 M-80.07-166.661
									l-3.042,5.517l-25.925,47.012l-3.043,5.517l5.517,3.042L-59.55-79.65l5.517,3.042l3.042-5.517l25.925-47.011l3.041-5.517
									l-5.516-3.042l-47.012-25.924L-80.07-166.661L-80.07-166.661z"/>
							</g>
						</g>
					</g>
				</g>
				<g>
					<g>
						<g>
							
								<rect x="-47.713" y="-188.09" transform="matrix(0.969 -0.2471 0.2471 0.969 38.5138 -9.2804)" fill="#D7FF51" width="59.985" height="59.985"/>
						</g>
					</g>
					<g>
						<g>
							<g>
								<path fill="#FFFFFF" d="M1.662-190.745l13.266,52.02l-52.021,13.267l-13.265-52.021L1.662-190.745 M6.21-198.406
									l-6.105,1.557l-52.021,13.265l-6.105,1.557l1.557,6.104l13.267,52.021l1.557,6.105l6.104-1.558l52.021-13.267l6.105-1.557
									l-1.557-6.104L7.767-192.302L6.21-198.406L6.21-198.406z"/>
							</g>
						</g>
					</g>
				</g>
				<g>
					<g>
						<g>
							
								<rect x="-10.804" y="-213.587" transform="matrix(0.4829 -0.8757 0.8757 0.4829 170.6919 -78.1341)" fill="#2E3192" width="59.986" height="59.986"/>
						</g>
					</g>
					<g>
						<g>
							<g>
								<path fill="#FFFFFF" d="M8.648-220.069l47.012,25.924l-25.924,47.011l-47.012-25.924L8.648-220.069 M6.173-228.628
									l-3.041,5.517l-25.926,47.011l-3.043,5.517l5.518,3.042l47.012,25.924l5.518,3.043l3.041-5.517l25.924-47.012l3.043-5.517
									l-5.518-3.042l-47.01-25.924L6.173-228.628L6.173-228.628z"/>
							</g>
						</g>
					</g>
				</g>
				<g>
					<g>
						<g>
							
								<rect x="0.982" y="-156.032" transform="matrix(0.0719 -0.9974 0.9974 0.0719 154.4617 -86.0834)" fill="#D7FF51" width="59.986" height="59.985"/>
						</g>
					</g>
					<g>
						<g>
							<g>
								<path fill="#FFFFFF" d="M6.119-154.751l53.545,3.862l-3.861,53.546l-53.547-3.861L6.119-154.751 M0.289-161.488
									l-0.453,6.284l-3.863,53.547l-0.453,6.283l6.283,0.453l53.547,3.862l6.283,0.453l0.453-6.284l3.863-53.546l0.453-6.283
									l-6.285-0.453l-53.545-3.862L0.289-161.488L0.289-161.488z"/>
							</g>
						</g>
					</g>
				</g>
				<g>
					<g>
						<g>
							
								<rect x="-140.895" y="-136.033" transform="matrix(0.3184 -0.948 0.948 0.3184 24.9286 -177.4089)" fill="#D7FF51" width="59.988" height="59.988"/>
						</g>
					</g>
					<g>
						<g>
							<g>
								<path fill="#FFFFFF" d="M-127.791-140.035l50.892,17.093l-17.093,50.892l-50.892-17.093L-127.791-140.035 M-131.756-148.015
									l-2.006,5.974l-17.094,50.892l-2.005,5.972l5.972,2.006l50.892,17.093l5.973,2.006l2.005-5.973l17.093-50.891l2.006-5.972
									l-5.972-2.006l-50.892-17.094L-131.756-148.015L-131.756-148.015z"/>
							</g>
						</g>
					</g>
				</g>
				<g>
					<g>
						<g>
							
								<rect x="29.657" y="-192.037" transform="matrix(0.9931 -0.1176 0.1176 0.9931 19.4703 5.8906)" fill="#00A651" width="59.989" height="59.988"/>
						</g>
					</g>
					<g>
						<g>
							<g>
								<path fill="#FFFFFF" d="M83.164-191.854l6.314,53.312l-53.314,6.313l-6.312-53.313L83.164-191.854 M88.679-198.851
									l-6.256,0.741l-53.312,6.312l-6.258,0.74l0.742,6.256l6.312,53.313l0.74,6.257l6.256-0.741l53.314-6.313l6.256-0.74
									l-0.74-6.257l-6.314-53.312L88.679-198.851L88.679-198.851z"/>
							</g>
						</g>
					</g>
				</g>
				<g>
					<g>
						<g>
							
								<rect x="-47.706" y="-124.77" transform="matrix(0.8407 -0.5415 0.5415 0.8407 48.4998 -24.6895)" fill="#00A651" width="59.985" height="59.985"/>
						</g>
					</g>
					<g>
						<g>
							<g>
								<path fill="#FFFFFF" d="M-9.686-131.868l29.072,45.131l-45.133,29.074l-29.072-45.134L-9.686-131.868 M-7.801-140.576
									l-5.297,3.412l-45.132,29.071l-5.296,3.411l3.411,5.297l29.071,45.133l3.412,5.297l5.297-3.412L22.798-81.44l5.295-3.412
									l-3.41-5.296L-4.391-135.28L-7.801-140.576L-7.801-140.576z"/>
							</g>
						</g>
					</g>
				</g>
				<g>
					<g>
						<g>
							
								<rect x="-97.664" y="-96.042" transform="matrix(0.0719 -0.9974 0.9974 0.0719 3.0726 -128.7976)" fill="#00A651" width="59.985" height="59.985"/>
						</g>
					</g>
					<g>
						<g>
							<g>
								<path fill="#FFFFFF" d="M-92.524-94.766l53.545,3.862l-3.861,53.546l-53.547-3.861L-92.524-94.766 M-98.354-101.503
									l-0.454,6.284l-3.862,53.547l-0.453,6.283l6.283,0.453l53.547,3.862l6.283,0.453l0.453-6.284l3.863-53.546l0.453-6.283
									l-6.285-0.453l-53.545-3.862L-98.354-101.503L-98.354-101.503z"/>
							</g>
						</g>
					</g>
				</g>
			</g>
		</g>
	</g>
	<g>
		<g>
			<g>
				
					<rect x="-97.059" y="160.05" transform="matrix(0.4829 -0.8757 0.8757 0.4829 -201.0967 39.5438)" fill="#2E3192" width="59.987" height="59.988"/>
			</g>
		</g>
		<g>
			<g>
				<g>
					<path fill="#FFFFFF" d="M-77.596,153.569l47.012,25.924l-25.925,47.012l-47.012-25.924L-77.596,153.569 M-80.071,145.011
						l-3.042,5.516l-25.925,47.012l-3.043,5.518l5.517,3.041l47.013,25.924l5.517,3.043l3.042-5.516l25.924-47.012l3.043-5.518
						l-5.518-3.041l-47.011-25.924L-80.071,145.011L-80.071,145.011z"/>
				</g>
			</g>
		</g>
	</g>
	<g>
		<g>
			<g>
				
					<rect x="-97.064" y="68.982" transform="matrix(0.2808 -0.9598 0.9598 0.2808 -143.2323 6.8144)" fill="#D7FF51" width="59.988" height="59.989"/>
			</g>
		</g>
		<g>
			<g>
				<g>
					<path fill="#FFFFFF" d="M-85.28,65.688l51.525,15.072l-15.07,51.526l-51.528-15.072L-85.28,65.688 M-89.558,57.872
						l-1.769,6.047l-15.073,51.526l-1.769,6.047l6.047,1.769l51.527,15.072l6.047,1.77l1.77-6.047l15.07-51.527l1.77-6.047
						l-6.047-1.769l-51.526-15.072L-89.558,57.872L-89.558,57.872z"/>
				</g>
			</g>
		</g>
	</g>
	<g>
		<g>
			<g>
				
					<rect x="-97.032" y="-26.081" transform="matrix(0.8951 -0.4458 0.4458 0.8951 -8.7745 -29.4778)" fill="#ED1C24" width="59.982" height="59.983"/>
			</g>
		</g>
		<g>
			<g>
				<g>
					<path fill="#FFFFFF" d="M-54.993-32.085l23.936,48.055l-48.055,23.936l-23.935-48.057L-54.993-32.085 M-52.163-40.533
						l-5.639,2.809l-48.054,23.934l-5.64,2.81l2.809,5.639l23.935,48.057l2.81,5.64l5.639-2.809l48.055-23.936l5.641-2.81
						l-2.809-5.639l-23.938-48.055L-52.163-40.533L-52.163-40.533z"/>
				</g>
			</g>
		</g>
	</g>
	<g>
		<g>
			<path fill="#FF3D2B" d="M280.039,395.333c-10.566,0-19.162-8.598-19.162-19.166v-84.014c0-6.514-5.303-11.814-11.816-11.814
				c-6.516,0-11.816,5.301-11.816,11.814v84.014c0,10.568-8.596,19.166-19.165,19.166c-10.566,0-19.164-8.598-19.164-19.166v-84.014
				c0-6.514-5.301-11.814-11.816-11.814s-11.816,5.301-11.816,11.814v26.516c0,10.568-8.596,19.166-19.164,19.166H135.39v-7.352
				h20.729c6.514,0,11.814-5.301,11.814-11.814v-26.516c0-10.568,8.598-19.164,19.166-19.164s19.166,8.596,19.166,19.164v84.014
				c0,6.516,5.301,11.814,11.814,11.814c6.516,0,11.815-5.299,11.815-11.814v-84.014c0-10.568,8.598-19.164,19.166-19.164
				c10.566,0,19.166,8.596,19.166,19.164v84.014c0,6.516,5.299,11.814,11.812,11.814c6.516,0,11.816-5.299,11.816-11.814v-37.018
				c0-10.568,8.598-19.166,19.164-19.166h18.877v7.352H311.02c-6.516,0-11.814,5.301-11.814,11.814v37.018
				C299.205,386.735,290.605,395.333,280.039,395.333z"/>
		</g>
	</g>
	<g>
		<g>
			<path fill="#FF3D2B" d="M346.289,304.884c-10.371,0-18.777,8.406-18.777,18.775c0,10.371,8.406,18.777,18.777,18.777"/>
		</g>
	</g>
	<g>
		<g>
			<path fill="#FF3D2B" d="M120.882,352.937c10.369,0,18.775-8.406,18.775-18.777c0-10.369-8.406-18.775-18.775-18.775"/>
		</g>
	</g>
	<g>
		<g>
			<path fill="#414042" d="M689.861,420.185c0,5.596-4.535,10.129-10.129,10.129H356.416c-5.594,0-10.127-4.533-10.127-10.129
				V210.499c0-5.594,4.533-10.129,10.127-10.129h323.316c5.594,0,10.129,4.535,10.129,10.129V420.185z"/>
		</g>
	</g>
	<g>
		<g>
			<path fill="#BCBEC0" d="M546.584,430.313h-28.51h-28.512c0,0-0.08,32.926-21.191,32.926l49.703,2.113l49.707-2.113
				C546.67,463.239,546.584,430.313,546.584,430.313z"/>
		</g>
	</g>
	<g>
		<g>
			<rect x="434.342" y="463.708" fill="#E6E7E8" width="167.467" height="6.73"/>
		</g>
	</g>
	<g>
		<g>
			<circle fill="#FF3D2B" cx="202.589" cy="353.617" r="9.411"/>
		</g>
	</g>
	<g>
		<g>
			<path fill="#FF3D2B" d="M233.547,301.554c5.199,0,9.412,4.213,9.412,9.414c0,5.195-4.213,9.412-9.412,9.412
				c-5.2,0-9.415-4.217-9.415-9.412C224.132,305.767,228.347,301.554,233.547,301.554z"/>
		</g>
	</g>
	<g>
		<g>
			<circle fill="#FF3D2B" cx="264.83" cy="353.506" r="9.413"/>
		</g>
	</g>
	<g>
		<g>
			<path fill="#E6E7E8" d="M122.21,382.271c0,5.184-4.201,9.387-9.385,9.387H81.853c-5.182,0-9.385-4.203-9.385-9.387V286.05
				c0-5.184,4.203-9.387,9.385-9.387h30.973c5.184,0,9.385,4.203,9.385,9.387V382.271L122.21,382.271z"/>
		</g>
	</g>
	<g>
		<g>
			<path fill="#D1D3D4" d="M72.468,334.159v48.111c0,5.184,4.203,9.387,9.385,9.387h30.973c5.184,0,9.385-4.203,9.385-9.387v-48.111
				H72.468z"/>
		</g>
	</g>
	<g opacity="0.8">
		<g>
			<path fill="#55E2F9" d="M-17.715-2.967h-98.674v-78.85c0,0,23.649,5.955,49.337,5.955c25.687,0,49.337-5.955,49.337-5.955V-2.967
				L-17.715-2.967z"/>
		</g>
	</g>
	<g opacity="0.8">
		<g>
			<g>
				<path fill="#55E2F9" d="M-239.54-313.377v66.507c0,95.262,77.227,172.486,172.487,172.486
					c95.263,0,172.487-77.225,172.487-172.486v-66.507H-239.54z"/>
			</g>
		</g>
	</g>
	<g>
		<g>
			<path fill="#55E2F9" d="M-1.79,4.841c0,6.282-3.242,11.376-7.238,11.376h-116.048c-3.997,0-7.238-5.094-7.238-11.376v-9.1
				c0-6.282,3.241-11.377,7.238-11.377H-9.028c3.996,0,7.238,5.095,7.238,11.377V4.841z"/>
		</g>
	</g>
	<g>
		<g>
			<path fill="#FFFFFF" d="M-166.438-269.859H-171l-0.791-4.165c-0.528-0.333-1.299-0.626-2.312-0.875
				c-1.014-0.25-2.09-0.375-3.229-0.375c-1.666,0-2.954,0.351-3.863,1.052c-0.909,0.702-1.364,1.607-1.364,2.719
				c0,1.027,0.476,1.871,1.427,2.53c0.95,0.659,2.594,1.356,4.926,2.093c3.346,0.931,5.884,2.16,7.613,3.687
				c1.729,1.528,2.593,3.534,2.593,6.021c0,2.596-1.028,4.644-3.083,6.144c-2.056,1.499-4.763,2.25-8.122,2.25
				c-2.403,0-4.572-0.383-6.51-1.146c-1.937-0.763-3.551-1.818-4.843-3.165v-6.332h4.708l0.646,4.312
				c0.61,0.5,1.439,0.913,2.488,1.239c1.049,0.325,2.219,0.488,3.511,0.488c1.666,0,2.933-0.339,3.801-1.02
				c0.867-0.68,1.301-1.59,1.301-2.729c0-1.166-0.413-2.104-1.238-2.812c-0.826-0.709-2.274-1.376-4.344-2
				c-3.596-1.042-6.317-2.277-8.164-3.708c-1.847-1.429-2.771-3.388-2.771-5.873c0-2.458,1.042-4.468,3.124-6.029
				c2.083-1.562,4.701-2.364,7.853-2.405c2.333,0,4.458,0.354,6.374,1.062c1.915,0.708,3.526,1.651,4.832,2.831V-269.859
				L-166.438-269.859z"/>
		</g>
		<g>
			<path fill="#FFFFFF" d="M-130.48-279.544v3.666l-3.249,0.624v26.036h-6.062l-12.247-20.412l-0.125,0.021v16.121l3.249,0.625
				v3.646h-12.559v-3.646l3.228-0.625v-21.766l-3.228-0.624v-3.666h3.228h6.082l12.247,20.411l0.125-0.021v-16.101l-3.249-0.624
				v-3.666h9.311H-130.48L-130.48-279.544z"/>
		</g>
		<g>
			<path fill="#FFFFFF" d="M-129.368-252.863l2.166-0.312l9.228-26.369h6.227l9.165,26.369l2.166,0.312v3.646h-10.331v-3.646
				l2.104-0.374l-1.333-4.167h-9.832l-1.333,4.167l2.104,0.374v3.646h-10.331V-252.863z M-118.37-261.882h6.956l-3.416-10.685
				h-0.125L-118.37-261.882z"/>
		</g>
		<g>
			<path fill="#FFFFFF" d="M-81.851-279.544c3.472,0,6.21,0.892,8.217,2.676s3.011,4.121,3.011,7.009
				c0,2.903-1.004,5.235-3.011,6.998c-2.007,1.764-4.745,2.646-8.217,2.646h-5.124v6.728l3.25,0.625v3.646h-12.56v-3.646
				l3.229-0.625v-21.766l-3.229-0.624v-3.666h3.229H-81.851z M-86.975-264.901h5.124c1.694,0,2.975-0.462,3.844-1.386
				c0.867-0.924,1.301-2.1,1.301-3.53c0-1.458-0.434-2.663-1.301-3.613c-0.869-0.951-2.149-1.428-3.844-1.428h-5.124V-264.901z"/>
		</g>
		<g>
			<path fill="#FFFFFF" d="M-43.518-269.859h-4.561l-0.791-4.165c-0.529-0.333-1.299-0.626-2.312-0.875
				c-1.014-0.25-2.09-0.375-3.229-0.375c-1.666,0-2.954,0.351-3.863,1.052c-0.909,0.702-1.365,1.607-1.365,2.719
				c0,1.027,0.477,1.871,1.428,2.53c0.95,0.659,2.593,1.356,4.926,2.093c3.346,0.931,5.885,2.16,7.613,3.687
				c1.729,1.528,2.592,3.534,2.592,6.021c0,2.596-1.027,4.644-3.082,6.144c-2.055,1.499-4.763,2.25-8.123,2.25
				c-2.402,0-4.572-0.383-6.509-1.146c-1.937-0.763-3.551-1.818-4.843-3.165v-6.332h4.707l0.646,4.312
				c0.61,0.5,1.439,0.913,2.488,1.239c1.048,0.325,2.218,0.488,3.51,0.488c1.667,0,2.933-0.339,3.802-1.02
				c0.868-0.68,1.302-1.59,1.302-2.729c0-1.166-0.414-2.104-1.239-2.812c-0.826-0.709-2.274-1.376-4.344-2
				c-3.596-1.042-6.317-2.277-8.164-3.708c-1.847-1.429-2.771-3.388-2.771-5.873c0-2.458,1.042-4.468,3.124-6.029
				c2.083-1.562,4.7-2.364,7.853-2.405c2.333,0,4.457,0.354,6.373,1.062c1.916,0.708,3.527,1.651,4.832,2.831V-269.859
				L-43.518-269.859z"/>
		</g>
		<g>
			<path fill="#FFFFFF" d="M-38.551-275.878v-3.666h12.559v3.666l-3.25,0.624v8.749h12.373v-8.749l-3.25-0.624v-3.666h3.25h6.061
				h3.25v3.666l-3.25,0.624v21.766l3.25,0.625v3.646H-20.12v-3.646l3.25-0.625v-8.331h-12.373v8.331l3.25,0.625v3.646h-12.559
				v-3.646l3.229-0.625v-21.766L-38.551-275.878z"/>
		</g>
		<g>
			<path fill="#FFFFFF" d="M24.65-264.152c0,4.443-1.271,8.116-3.812,11.019s-5.867,4.354-9.977,4.354
				c-4.096,0-7.406-1.451-9.924-4.354c-2.521-2.902-3.781-6.575-3.781-11.019v-0.458c0-4.415,1.256-8.081,3.77-10.997
				s5.818-4.375,9.914-4.375c4.111,0,7.439,1.459,9.988,4.375c2.547,2.916,3.822,6.582,3.822,10.997V-264.152z M18.587-264.652
				c0-3.138-0.652-5.686-1.957-7.644c-1.307-1.958-3.236-2.937-5.791-2.937s-4.461,0.972-5.717,2.915
				c-1.258,1.944-1.885,4.5-1.885,7.665v0.5c0,3.194,0.635,5.767,1.906,7.718c1.27,1.95,3.176,2.926,5.717,2.926
				c2.568,0,4.498-0.976,5.789-2.926c1.293-1.951,1.938-4.523,1.938-7.718V-264.652z"/>
		</g>
		<g>
			<path fill="#FFFFFF" d="M55.357-279.544v8.081h-4.664l-0.25-3.396h-5.582v21.37l3.248,0.625v3.646h-12.58v-3.646l3.25-0.625
				v-21.37h-5.561l-0.25,3.396h-4.645v-8.081H55.357L55.357-279.544z"/>
		</g>
		<g>
			<path fill="#FFFFFF" d="M-172.566-218.672h-4.562l-0.791-4.165c-0.528-0.333-1.298-0.626-2.312-0.875
				c-1.013-0.25-2.09-0.375-3.228-0.375c-1.667,0-2.954,0.351-3.864,1.052c-0.909,0.702-1.364,1.607-1.364,2.719
				c0,1.027,0.476,1.871,1.427,2.53s2.594,1.356,4.927,2.093c3.346,0.931,5.883,2.16,7.612,3.687
				c1.729,1.528,2.593,3.534,2.593,6.021c0,2.596-1.028,4.644-3.083,6.144c-2.055,1.499-4.762,2.25-8.122,2.25
				c-2.402,0-4.572-0.383-6.51-1.146c-1.937-0.763-3.551-1.818-4.843-3.165v-6.332h4.708l0.646,4.312
				c0.61,0.5,1.439,0.913,2.489,1.239c1.048,0.325,2.218,0.488,3.51,0.488c1.666,0,2.933-0.339,3.801-1.02
				c0.867-0.68,1.302-1.59,1.302-2.729c0-1.166-0.414-2.104-1.239-2.812c-0.826-0.709-2.274-1.376-4.344-2
				c-3.596-1.042-6.317-2.277-8.164-3.707s-2.771-3.389-2.771-5.874c0-2.458,1.042-4.468,3.125-6.029
				c2.082-1.562,4.7-2.364,7.852-2.405c2.333,0,4.458,0.354,6.374,1.062c1.916,0.708,3.526,1.651,4.832,2.831V-218.672
				L-172.566-218.672z"/>
		</g>
		<g>
			<path fill="#FFFFFF" d="M-148.022-211.36h-10.269v8.664h9.789l0.271-3.624h4.625v8.29H-167.6v-3.646l3.228-0.625v-21.766
				l-3.228-0.624v-3.666h3.228h20.725v8.311h-4.666l-0.271-3.625h-9.706v7.624h10.269V-211.36L-148.022-211.36z"/>
		</g>
		<g>
			<path fill="#FFFFFF" d="M-124.602-228.356c3.443,0,6.144,0.788,8.103,2.363c1.957,1.576,2.937,3.753,2.937,6.529
				c0,1.528-0.41,2.854-1.229,3.979c-0.819,1.125-2.021,2.035-3.604,2.729c1.792,0.527,3.079,1.405,3.864,2.635
				c0.784,1.229,1.177,2.752,1.177,4.571v1.541c0,0.667,0.131,1.185,0.396,1.553c0.264,0.368,0.701,0.586,1.312,0.655l0.751,0.104
				v3.666h-3.146c-1.985,0-3.381-0.534-4.187-1.604c-0.806-1.069-1.209-2.45-1.209-4.145v-1.729c0-1.472-0.392-2.628-1.176-3.468
				s-1.892-1.281-3.322-1.323h-4.979v7.998l3.25,0.625v3.646h-12.56v-3.646l3.229-0.625v-21.766l-3.229-0.624v-3.666h3.229H-124.602
				z M-128.915-214.984h4.208c1.693,0,2.964-0.361,3.812-1.084c0.847-0.722,1.271-1.763,1.271-3.124s-0.42-2.447-1.26-3.259
				c-0.841-0.813-2.079-1.22-3.718-1.22h-4.312V-214.984z"/>
		</g>
		<g>
			<path fill="#FFFFFF" d="M-87.187-211.36h-10.269v8.664h9.79l0.271-3.624h4.624v8.29h-23.994v-3.646l3.229-0.625v-21.766
				l-3.229-0.624v-3.666h3.229h20.724v8.311h-4.665l-0.271-3.625h-9.707v7.624h10.269V-211.36L-87.187-211.36z"/>
		</g>
		<g>
			<path fill="#FFFFFF" d="M-46.395-228.356v3.666l-3.25,0.624v26.036h-6.062l-12.247-20.412l-0.125,0.021v16.121l3.249,0.625v3.646
				h-12.559v-3.646l3.228-0.625v-21.766l-3.228-0.624v-3.666h3.228h6.082l12.247,20.411l0.125-0.021v-16.101l-3.249-0.624v-3.666
				h9.311H-46.395L-46.395-228.356z"/>
		</g>
		<g>
			<path fill="#FFFFFF" d="M-17.167-201.405c-0.986,0.972-2.422,1.851-4.311,2.636c-1.889,0.784-4.277,1.177-7.166,1.177
				c-4.096,0-7.428-1.372-9.996-4.114c-2.57-2.741-3.854-6.307-3.854-10.695v-1.041c0-4.54,1.266-8.233,3.801-11.081
				c2.533-2.846,5.842-4.271,9.924-4.271c2.375,0,4.545,0.379,6.51,1.136c1.963,0.758,3.6,1.781,4.904,3.072v6.103h-4.5
				l-0.852-4.062c-0.557-0.472-1.289-0.851-2.197-1.135c-0.91-0.284-1.957-0.427-3.135-0.427c-2.654,0-4.715,0.979-6.188,2.937
				s-2.207,4.52-2.207,7.686v1.083c0,3.083,0.723,5.543,2.166,7.383c1.443,1.842,3.527,2.761,6.248,2.761
				c1.221,0,2.211-0.104,2.967-0.312c0.758-0.208,1.352-0.451,1.781-0.729v-5.145l-4.332-0.333v-4.271h10.436V-201.405
				L-17.167-201.405z"/>
		</g>
		<g>
			<path fill="#FFFFFF" d="M7.585-211.36H-2.682v8.664h9.789l0.271-3.624h4.623v8.29h-23.994v-3.646l3.229-0.625v-21.766
				l-3.229-0.624v-3.666h3.229H11.96v8.311H7.294l-0.271-3.625h-9.705v7.624H7.585V-211.36L7.585-211.36z"/>
		</g>
		<g>
			<path fill="#FFFFFF" d="M44.501-228.356v8.081h-4.666l-0.25-3.396h-5.58v21.37l3.248,0.625v3.646h-12.58v-3.646l3.25-0.625
				v-21.37h-5.562l-0.25,3.396h-4.643v-8.081H44.501L44.501-228.356z"/>
		</g>
		<g>
			<path fill="#FFFFFF" d="M48.593-224.69v-3.666h12.561v3.666l-3.25,0.624v21.766l3.25,0.625v3.646H48.593v-3.646l3.25-0.625
				v-21.766L48.593-224.69z"/>
		</g>
	</g>
	<g display="none">
		<g display="inline">
			<ellipse cx="25.9" cy="451.336" rx="5.092" ry="3.37"/>
		</g>
		<g display="inline">
			<ellipse cx="-144.456" cy="471.484" rx="5.091" ry="3.37"/>
		</g>
		<g display="inline">
			<path d="M1.617,458.079h-25.811c-2.293,0.326-4.012,1.678-4.012,3.295c0,1.859,2.281,3.369,5.092,3.369h5.111
				c5.623,0,10.182,3.018,10.182,6.74c0,3.725-4.559,6.744-10.182,6.744h-101.821c-5.624,0-10.183-3.02-10.183-6.744
				c0-3.723,4.559-6.74,10.183-6.74H-95.6c2.812,0,5.092-1.51,5.092-3.369c0-1.617-1.719-2.969-4.014-3.295h-25.302
				c-5.624,0-10.183-3.02-10.183-6.742s4.559-6.742,10.183-6.742h52.422c2.812,0,5.09-1.508,5.09-3.371
				c0-1.861-2.278-3.371-5.09-3.371h-2.637c-5.624,0-10.183-3.016-10.183-6.742c0-3.723,4.559-6.742,10.183-6.742h3.388h17.826
				h6.551h15.34h3.145c5.623,0,10.182,3.02,10.182,6.742c0,3.727-4.559,6.742-10.182,6.742h0.676c-2.811,0-5.092,1.51-5.092,3.371
				c0,1.863,2.281,3.371,5.092,3.371h24.73c5.625,0,10.184,3.02,10.184,6.742S7.242,458.079,1.617,458.079z"/>
		</g>
		<g display="inline">
			<ellipse cx="-94.131" cy="431.111" rx="5.092" ry="3.37"/>
		</g>
	</g>
	<g>
		<g>
			<polygon fill="#E6E7E8" points="-18.268,232.642 -115.836,232.642 -127.444,189.417 -6.661,189.417 			"/>
		</g>
	</g>
	<g>
		<g>
			<polygon fill="#D1D3D4" points="-18.268,232.642 -6.661,189.417 -60.98,189.417 -67.054,232.642 			"/>
		</g>
	</g>
	<g>
		<g>
			<rect x="-220.978" y="232.642" fill="#BCBEC0" width="306.591" height="196.557"/>
		</g>
	</g>
	<g>
		<g>
			<polygon points="63.287,448.052 43.087,448.052 37.701,429.198 68.673,429.198 			"/>
		</g>
	</g>
	<g>
		<g>
			<polygon points="-176.042,448.052 -196.241,448.052 -201.626,429.198 -170.655,429.198 			"/>
		</g>
	</g>
	<g>
		<g>
			<polygon fill="#A7A9AC" points="85.613,429.198 85.613,320.378 -220.978,369.267 -220.863,429.198 			"/>
		</g>
	</g>
	<g>
		<g>
			<path fill="#FFFFFF" d="M-195.253,277.175h-3.816v-22.6h5.95l6.821,14.193l6.823-14.193h5.916v22.6h-3.815v-17.654l-7.889,15.682
				h-2.134l-7.856-15.682V277.175z"/>
		</g>
		<g>
			<path fill="#FFFFFF" d="M-151.412,254.575v3.588h-12.06v5.982h10.831v3.395h-10.831v6.047h12.448v3.588h-16.264v-22.6H-151.412
				L-151.412,254.575z"/>
		</g>
		<g>
			<path fill="#FFFFFF" d="M-142.326,277.175h-3.815v-22.6h5.949l6.822,14.193l6.823-14.193h5.916v22.6h-3.815v-17.654
				l-7.889,15.682h-2.134l-7.857-15.682V277.175L-142.326,277.175z"/>
		</g>
		<g>
			<path fill="#FFFFFF" d="M-98.482,254.575v3.588h-12.06v5.982h10.831v3.395h-10.831v6.047h12.448v3.588h-16.264v-22.6H-98.482
				L-98.482,254.575z"/>
		</g>
		<g>
			<path fill="#FFFFFF" d="M-192.813,288.796h1.908v3.865c-1.067,1.174-2.593,1.762-4.576,1.762c-1.671,0-3.068-0.551-4.195-1.648
				c-1.126-1.1-1.688-2.49-1.688-4.172s0.574-3.082,1.721-4.203c1.147-1.121,2.536-1.682,4.163-1.682
				c1.628,0,2.98,0.475,4.058,1.424l-1.018,1.455c-0.442-0.379-0.888-0.641-1.334-0.785c-0.447-0.146-0.968-0.219-1.56-0.219
				c-1.144,0-2.103,0.369-2.879,1.107c-0.775,0.738-1.164,1.709-1.164,2.91s0.378,2.166,1.133,2.895
				c0.753,0.727,1.667,1.092,2.739,1.092c1.073,0,1.97-0.232,2.692-0.695V288.796L-192.813,288.796z"/>
		</g>
		<g>
			<path fill="#FFFFFF" d="M-180.461,282.993v1.793h-6.03v2.992h5.416v1.697h-5.416v3.023h6.224v1.795h-8.132v-11.301H-180.461
				L-180.461,282.993z"/>
		</g>
		<g>
			<path fill="#FFFFFF" d="M-169.356,282.993h1.907v11.301h-2.069l-6.401-8.246v8.246h-1.908v-11.301h1.908l6.563,8.438V282.993z"/>
		</g>
		<g>
			<path fill="#FFFFFF" d="M-156.374,282.993v1.793h-6.03v2.992h5.416v1.697h-5.416v3.023h6.225v1.795h-8.133v-11.301H-156.374
				L-156.374,282.993z"/>
		</g>
		<g>
			<path fill="#FFFFFF" d="M-144.717,286.663c0,1.865-0.814,3.039-2.441,3.523l2.959,4.107h-2.425l-2.7-3.801h-2.506v3.801h-1.908
				v-11.301h4.204c1.724,0,2.958,0.291,3.701,0.873C-145.089,284.448-144.717,285.38-144.717,286.663z M-147.255,288.263
				c0.388-0.334,0.581-0.871,0.581-1.609c0-0.736-0.198-1.244-0.598-1.52c-0.398-0.273-1.11-0.412-2.134-0.412h-2.425v4.043h2.376
				C-148.377,288.765-147.644,288.597-147.255,288.263z"/>
		</g>
		<g>
			<path fill="#FFFFFF" d="M-140.369,291.722l-1.131,2.572h-2.038l4.979-11.301h2.037l4.979,11.301h-2.037l-1.132-2.572H-140.369z
				 M-135.486,289.96l-2.054-4.656l-2.053,4.656H-135.486z"/>
		</g>
		<g>
			<path fill="#FFFFFF" d="M-126.595,284.739v9.555h-1.908v-9.555h-3.427v-1.746h8.763v1.746H-126.595z"/>
		</g>
		<g>
			<path fill="#FFFFFF" d="M-111.948,292.733c-1.144,1.115-2.555,1.672-4.236,1.672s-3.094-0.557-4.235-1.672
				c-1.143-1.115-1.714-2.506-1.714-4.172c0-1.664,0.571-3.055,1.714-4.17c1.142-1.117,2.554-1.674,4.235-1.674
				s3.093,0.557,4.236,1.674c1.142,1.115,1.713,2.506,1.713,4.17C-110.235,290.228-110.806,291.618-111.948,292.733z
				 M-113.347,285.661c-0.771-0.799-1.716-1.197-2.837-1.197s-2.067,0.398-2.837,1.197c-0.771,0.797-1.156,1.764-1.156,2.9
				c0,1.139,0.385,2.105,1.156,2.902c0.77,0.799,1.716,1.197,2.837,1.197s2.066-0.398,2.837-1.197
				c0.771-0.797,1.156-1.764,1.156-2.902C-112.191,287.425-112.577,286.458-113.347,285.661z"/>
		</g>
		<g>
			<path fill="#FFFFFF" d="M-98.804,286.663c0,1.865-0.814,3.039-2.441,3.523l2.959,4.107h-2.425l-2.7-3.801h-2.506v3.801h-1.908
				v-11.301h4.204c1.724,0,2.958,0.291,3.701,0.873S-98.804,285.38-98.804,286.663z M-101.342,288.263
				c0.388-0.334,0.581-0.871,0.581-1.609c0-0.736-0.199-1.244-0.598-1.52c-0.398-0.273-1.11-0.412-2.134-0.412h-2.425v4.043h2.376
				C-102.464,288.765-101.731,288.597-101.342,288.263z"/>
		</g>
		<g>
			<path fill="#FFFFFF" d="M-194.026,300.11v2.182h-4.462v1.891c0.334-0.094,0.717-0.143,1.148-0.143
				c1.088,0,2.026,0.328,2.812,0.984c0.786,0.66,1.181,1.545,1.181,2.662c0,1.115-0.407,2.033-1.221,2.764
				c-0.814,0.727-1.819,1.092-3.016,1.092c-1.53,0-2.808-0.566-3.831-1.699l1.325-1.844c0.098,0.098,0.227,0.217,0.389,0.355
				c0.161,0.141,0.457,0.328,0.889,0.559c0.431,0.232,0.862,0.348,1.293,0.348c0.432,0,0.814-0.129,1.148-0.387
				c0.333-0.262,0.501-0.643,0.501-1.148c0-0.508-0.181-0.896-0.542-1.172c-0.36-0.275-0.827-0.414-1.398-0.414
				s-1.233,0.205-1.988,0.615l-1.051-1.133v-5.512H-194.026L-194.026,300.11z"/>
		</g>
		<g>
			<path fill="#FFFFFF" d="M-186.994,311.542c-1.562,0-2.731-0.531-3.508-1.594c-0.776-1.061-1.163-2.48-1.163-4.252
				s0.387-3.191,1.163-4.254c0.776-1.059,1.945-1.59,3.508-1.59c1.563,0,2.733,0.531,3.509,1.59
				c0.775,1.062,1.164,2.482,1.164,4.254s-0.389,3.191-1.164,4.252C-184.26,311.011-185.43,311.542-186.994,311.542z
				 M-188.659,302.974c-0.354,0.689-0.533,1.6-0.533,2.73c0,1.133,0.179,2.043,0.533,2.732c0.355,0.689,0.912,1.033,1.665,1.033
				c0.755,0,1.31-0.344,1.666-1.033c0.355-0.689,0.534-1.6,0.534-2.732c0-1.131-0.179-2.041-0.534-2.73
				c-0.356-0.691-0.911-1.037-1.666-1.037C-187.747,301.937-188.303,302.282-188.659,302.974z"/>
		</g>
		<g>
			<path fill="#FFFFFF" d="M-175.839,311.542c-1.562,0-2.731-0.531-3.508-1.594c-0.776-1.061-1.164-2.48-1.164-4.252
				s0.388-3.191,1.164-4.254c0.776-1.059,1.945-1.59,3.508-1.59s2.732,0.531,3.509,1.59c0.775,1.062,1.164,2.482,1.164,4.254
				s-0.389,3.191-1.164,4.252C-173.107,311.011-174.277,311.542-175.839,311.542z M-177.504,302.974
				c-0.354,0.689-0.533,1.6-0.533,2.73c0,1.133,0.179,2.043,0.533,2.732c0.355,0.689,0.911,1.033,1.665,1.033
				c0.755,0,1.31-0.344,1.665-1.033c0.356-0.689,0.534-1.6,0.534-2.732c0-1.131-0.178-2.041-0.534-2.73
				c-0.355-0.691-0.91-1.037-1.665-1.037C-176.593,301.937-177.149,302.282-177.504,302.974z"/>
		</g>
		<g>
			<path fill="#FFFFFF" d="M-164.684,311.542c-1.562,0-2.731-0.531-3.508-1.594c-0.776-1.061-1.164-2.48-1.164-4.252
				s0.388-3.191,1.164-4.254c0.776-1.059,1.945-1.59,3.508-1.59s2.732,0.531,3.509,1.59c0.775,1.062,1.164,2.482,1.164,4.254
				s-0.389,3.191-1.164,4.252C-161.952,311.011-163.122,311.542-164.684,311.542z M-166.349,302.974
				c-0.354,0.689-0.533,1.6-0.533,2.73c0,1.133,0.179,2.043,0.533,2.732c0.355,0.689,0.911,1.033,1.665,1.033
				c0.755,0,1.31-0.344,1.665-1.033c0.356-0.689,0.534-1.6,0.534-2.732c0-1.131-0.178-2.041-0.534-2.73
				c-0.355-0.691-0.91-1.037-1.665-1.037C-165.438,301.937-165.994,302.282-166.349,302.974z"/>
		</g>
	</g>
	<g>
		<g>
			<circle fill="#D1D3D4" cx="101.562" cy="291.926" r="6.569"/>
		</g>
	</g>
	<g>
		<g>
			<circle fill="#D1D3D4" cx="101.562" cy="317.538" r="6.57"/>
		</g>
	</g>
	<g>
		<g>
			<circle fill="#E6E7E8" cx="101.562" cy="350.224" r="6.57"/>
		</g>
	</g>
	<g>
		<g>
			<circle fill="#E6E7E8" cx="101.562" cy="375.835" r="6.568"/>
		</g>
	</g>
	<g>
		<g>
			<path fill="#D1D3D4" d="M101.562,270.093c-3.629,0-6.568,2.943-6.568,6.57h13.139
				C108.132,273.036,105.191,270.093,101.562,270.093z"/>
		</g>
	</g>
	<g>
		<g>
			<path fill="#E6E7E8" d="M101.562,398.228c-3.629,0-6.568-2.943-6.568-6.57h13.139
				C108.132,395.284,105.191,398.228,101.562,398.228z"/>
		</g>
	</g>
	<g>
		<g>
			<g>
				<g>
					<path fill="#F4E2AE" d="M689.127,796.876l-0.002-43.844H539.512v43.82c-5.652,0.162-10.188,4.768-10.188,10.457
						c0,5.748,4.619,10.398,10.346,10.477c2.4,39.148,34.896,70.162,74.65,70.164c41.307,0,74.797-33.484,74.809-74.789v4.693
						c5.791,0,10.484-4.695,10.484-10.492C699.613,801.571,694.918,796.876,689.127,796.876z"/>
				</g>
			</g>
			<g opacity="0.06">
				<g>
					<path d="M614.318,753.03l0.002,134.92c41.312,0,74.807-33.496,74.809-74.809l-0.004-60.109L614.318,753.03z"/>
				</g>
			</g>
			<g>
				<g>
					<path fill="#F4E2AE" d="M629.498,814.343h-26.449v21.369l26.451,0.002c5.9-0.002,10.688-4.783,10.688-10.686
						C640.188,819.13,635.398,814.343,629.498,814.343z"/>
				</g>
			</g>
			<g>
				<g>
					<path fill="#A97C50" d="M614.32,834.884c-14.062,0.002-25.459,11.4-25.457,25.459v23.152
						c7.947,2.881,16.518,4.455,25.457,4.455c8.939-0.002,17.508-1.574,25.455-4.455v-23.15
						C639.775,846.282,628.379,834.886,614.32,834.884z"/>
				</g>
			</g>
			<g opacity="0.15">
				<g>
					<path d="M614.32,834.884v53.066c8.939-0.002,17.508-1.574,25.455-4.455v-23.15C639.775,846.282,628.379,834.886,614.32,834.884
						z"/>
				</g>
			</g>
			<g>
				<g>
					<path fill="#414042" d="M614.322,867.538c-0.004,0-0.004,0-0.008,0c-7.352,0-13.338-5.984-13.344-13.342h2.102
						c0.004,6.199,5.047,11.242,11.242,11.242c0.002,0,0.002,0,0.004,0c0,0,0.002,0,0.004,0c6.197,0,11.24-5.041,11.242-11.24h2.1
						C627.662,861.554,621.676,867.538,614.322,867.538z"/>
				</g>
			</g>
			<g>
				<g>
					<path d="M661.418,808.544c-0.002-3.617-2.945-6.562-6.562-6.562c-1.754,0-3.402,0.684-4.643,1.922s-1.922,2.885-1.922,4.637
						h-4.199c-0.002-2.873,1.117-5.574,3.152-7.607c2.033-2.031,4.736-3.15,7.611-3.15c5.934,0,10.762,4.826,10.764,10.762H661.418
						L661.418,808.544z"/>
				</g>
			</g>
			<g>
				<g>
					<path d="M584.914,808.546l-4.199-0.004c0.002-1.752-0.682-3.398-1.92-4.637c-2.479-2.482-6.799-2.48-9.279-0.002
						c-1.24,1.24-1.92,2.887-1.92,4.641h-4.201c-0.002-2.873,1.119-5.576,3.15-7.607c2.033-2.035,4.736-3.154,7.611-3.154
						s5.578,1.119,7.609,3.154C583.799,802.97,584.916,805.673,584.914,808.546z"/>
				</g>
			</g>
			<g>
				<g>
					<path fill="#A97C50" d="M689.129,745.29c0-6.959-5.646-12.6-12.602-12.6H552.109c-6.955,0-12.598,5.641-12.598,12.598
						l-0.002,51.588l30.236-38.17l119.381,22.408L689.129,745.29z"/>
				</g>
			</g>
			<g opacity="0.15">
				<g>
					<path d="M676.527,732.69H614.32l-0.002,34.383l74.809,14.041l0.002-35.824C689.129,738.331,683.482,732.69,676.527,732.69z"/>
				</g>
			</g>
		</g>
		<g>
			<g>
				<g>
					<path fill="#99743C" d="M507.082,806.036c-0.004-5.729-4.596-10.365-10.297-10.469l-0.002-42.613H347.172v43.424
						c-5.621,0.195-10.123,4.785-10.125,10.453c-0.002,5.715,4.57,10.338,10.252,10.467c2.197,39.344,34.789,70.574,74.68,70.574
						c40.158,0,72.912-31.645,74.719-71.355C502.441,816.458,507.082,811.794,507.082,806.036z"/>
				</g>
			</g>
			<g>
				<g>
					<circle cx="422.002" cy="733.787" r="37.802"/>
				</g>
			</g>
			<g>
				<g>
					<path fill="#282828" d="M496.787,745.214c-0.002-6.961-5.641-12.602-12.6-12.6l-124.416-0.002
						c-6.957,0.002-12.6,5.641-12.6,12.598v3.277v4.467v43.844l9.98-17.197c8.381,10.537,21.273,17.324,35.783,17.322
						c18.779,0,34.885-11.326,41.936-27.508l61.912,11.621L496.787,745.214z"/>
				</g>
			</g>
			<g opacity="0.2">
				<g>
					<path d="M421.979,752.954v134.918c41.316,0,74.805-33.496,74.807-74.809l-0.002-60.109H421.979L421.979,752.954z"/>
				</g>
			</g>
			<g>
				<g>
					<path fill="#99743C" d="M430.646,823.729l-19.938-0.002v16.111l19.938-0.004c4.447,0,8.057-3.605,8.055-8.053
						C438.701,827.335,435.092,823.729,430.646,823.729z"/>
				</g>
			</g>
			<g>
				<g>
					<path d="M431.113,855.702c-0.002,5.041-4.09,9.129-9.137,9.129c-5.043,0-9.131-4.088-9.131-9.129"/>
				</g>
			</g>
			<g>
				<g>
					<circle cx="462.328" cy="815.687" r="5.777"/>
				</g>
			</g>
			<g>
				<g>
					<circle cx="381.629" cy="815.687" r="5.773"/>
				</g>
			</g>
			<g>
				<g>
					<path fill="#282828" d="M484.188,732.614l-124.416-0.002c-6.957,0.002-12.6,5.641-12.6,12.598v7.744l149.611,28.082
						l0.004-35.822C496.785,738.253,491.146,732.612,484.188,732.614z"/>
				</g>
			</g>
			<g>
				<g>
					<path d="M484.188,732.614l-62.186-0.002v53.834c5.52-4.562,9.971-10.377,12.869-17.033l61.912,11.623l0.004-35.822
						C496.785,738.253,491.146,732.612,484.188,732.614z"/>
				</g>
			</g>
		</g>
	</g>
	<g display="none">
		<g display="inline">
			<g>
				<path fill="#F4E2AE" d="M689.127,796.876l-0.002-43.844H539.512v43.82c-5.652,0.162-10.188,4.768-10.188,10.457
					c0,5.748,4.619,10.398,10.346,10.477c2.4,39.148,34.896,70.162,74.65,70.164c41.307,0,74.797-33.484,74.809-74.789v4.693
					c5.791,0,10.484-4.695,10.484-10.492C699.613,801.571,694.918,796.876,689.127,796.876z"/>
			</g>
			<g opacity="0.06" enable-background="new    ">
				<path d="M614.318,753.03l0.002,134.92c41.312,0,74.807-33.496,74.809-74.809l-0.004-60.109L614.318,753.03z"/>
			</g>
			<g>
				<path fill="#F4E2AE" d="M629.498,814.343h-26.449v21.369l26.451,0.002c5.9-0.002,10.688-4.783,10.688-10.686
					C640.188,819.13,635.398,814.343,629.498,814.343z"/>
			</g>
			<g>
				<path fill="#A97C50" d="M614.32,834.884c-14.062,0.002-25.459,11.4-25.457,25.459v23.152c7.947,2.881,16.518,4.455,25.457,4.455
					c8.939-0.002,17.508-1.574,25.455-4.455v-23.15C639.775,846.282,628.379,834.886,614.32,834.884z"/>
			</g>
			<g opacity="0.15" enable-background="new    ">
				<path d="M614.32,834.884v53.066c8.939-0.002,17.508-1.574,25.455-4.455v-23.15C639.775,846.282,628.379,834.886,614.32,834.884z
					"/>
			</g>
			<g>
				<path fill="#414042" d="M626.115,866.489c-0.004-6.503-5.294-11.793-11.793-11.793c-0.004,0-0.007,0-0.007,0
					c-6.502,0-11.792,5.288-11.794,11.791h-1c0.002-7.054,5.741-12.791,12.793-12.791c0.004,0,0.006,0,0.008,0
					c7.051,0,12.789,5.737,12.793,12.793H626.115z"/>
			</g>
			<g>
				<path fill="#A97C50" d="M689.129,745.29c0-6.959-5.646-12.6-12.602-12.6H552.109c-6.955,0-12.598,5.641-12.598,12.598
					l-0.002,51.588l30.236-38.17l119.381,22.408L689.129,745.29z"/>
			</g>
			<g opacity="0.15" enable-background="new    ">
				<path d="M676.527,732.69H614.32l-0.002,34.383l74.809,14.041l0.002-35.824C689.129,738.331,683.482,732.69,676.527,732.69z"/>
			</g>
			<g>
				<path d="M574.156,801.481c3.248,0,5.881,2.635,5.881,5.883s-2.633,5.885-5.881,5.885c-3.252,0-5.885-2.637-5.885-5.885
					S570.904,801.481,574.156,801.481z"/>
			</g>
			<g>
				<circle cx="654.48" cy="807.365" r="5.884"/>
			</g>
			<g>
				<path fill="#46D6F7" d="M572.82,826.878c0,2.514-2.037,4.551-4.551,4.551c-2.512,0-4.549-2.037-4.549-4.551
					c0-2.512,4.549-10.848,4.549-10.848S572.82,824.366,572.82,826.878z"/>
			</g>
		</g>
		<g display="inline">
			<g>
				<circle cx="422.002" cy="733.787" r="37.802"/>
			</g>
			<g>
				<path fill="#99743C" d="M507.082,806.036c-0.004-5.729-4.596-10.365-10.297-10.469l-0.002-42.613H347.172v43.424
					c-5.621,0.195-10.123,4.785-10.125,10.453c-0.002,5.715,4.57,10.338,10.252,10.467c2.197,39.344,34.789,70.574,74.68,70.574
					c40.158,0,72.912-31.645,74.719-71.355C502.441,816.458,507.082,811.794,507.082,806.036z"/>
			</g>
			<g opacity="0.2" enable-background="new    ">
				<path d="M421.979,752.954v134.918c41.316,0,74.805-33.496,74.807-74.809l-0.002-60.109H421.979L421.979,752.954z"/>
			</g>
			<g>
				<path fill="#99743C" d="M430.646,823.729l-19.938-0.002v16.111l19.938-0.004c4.447,0,8.057-3.605,8.055-8.053
					C438.701,827.335,435.092,823.729,430.646,823.729z"/>
			</g>
			<g>
				<path d="M412.846,864.831c0.002-5.041,4.088-9.129,9.137-9.129c5.041,0,9.131,4.088,9.131,9.129"/>
			</g>
			<g>
				<path d="M462.332,823.327c-4.694-0.002-8.514-3.818-8.514-8.508h2c0,3.587,2.922,6.506,6.514,6.508
					c3.588-0.002,6.508-2.921,6.508-6.508h2C470.84,819.509,467.023,823.325,462.332,823.327z"/>
			</g>
			<g>
				<path d="M381.629,823.327c-4.689,0-8.504-3.816-8.504-8.508h2c0,3.589,2.918,6.508,6.504,6.508c3.589,0,6.508-2.919,6.508-6.508
					h2C390.137,819.511,386.32,823.327,381.629,823.327z"/>
			</g>
			<g>
				<path fill="#282828" d="M484.188,732.614l-124.416-0.002c-6.957,0.002-12.6,5.641-12.6,12.598v7.744l149.611,28.082
					l0.004-35.822C496.785,738.253,491.146,732.612,484.188,732.614z"/>
			</g>
			<g>
				<path fill="#282828" d="M496.787,745.214c-0.002-6.961-5.641-12.602-12.6-12.6l-124.416-0.002
					c-6.957,0.002-12.6,5.641-12.6,12.598v3.277v4.467v43.844l9.98-17.197c8.381,10.537,21.273,17.324,35.783,17.322
					c18.779,0,34.885-11.326,41.936-27.508l61.912,11.621L496.787,745.214z"/>
			</g>
			<g>
				<path d="M484.188,732.614l-62.186-0.002v53.834c5.52-4.562,9.971-10.377,12.869-17.033l61.912,11.623l0.004-35.822
					C496.785,738.253,491.146,732.612,484.188,732.614z"/>
			</g>
		</g>
	</g>
	<g>
		<g>
			<g>
				<g>
					<path fill="#FF3D2B" d="M519.486,677.626c-1.66,0-3.277-0.672-4.453-1.848c-1.176-1.178-1.848-2.793-1.848-4.451
						c0-1.66,0.672-3.277,1.848-4.453c2.354-2.352,6.572-2.352,8.904,0c1.176,1.176,1.848,2.793,1.848,4.453
						c0,1.658-0.672,3.273-1.848,4.451C522.762,676.954,521.145,677.626,519.486,677.626z"/>
				</g>
			</g>
			<g>
				<g>
					<path fill="#FF3D2B" d="M513.186,647.47c0-3.486,2.814-6.301,6.301-6.301l0,0c3.486,0,6.299,2.814,6.299,6.301l0,0
						c0,3.486-2.812,6.299-6.299,6.299l0,0C516,653.769,513.186,650.956,513.186,647.47z M513.186,623.636
						c0-3.486,2.814-6.301,6.301-6.301l0,0c3.486,0,6.299,2.814,6.299,6.301l0,0c0,3.463-2.812,6.299-6.299,6.299l0,0
						C516,629.935,513.186,627.099,513.186,623.636z M513.186,599.778c0-3.486,2.814-6.299,6.301-6.299l0,0
						c3.486,0,6.299,2.812,6.299,6.299l0,0c0,3.467-2.812,6.301-6.299,6.301l0,0C516,606.079,513.186,603.245,513.186,599.778z
						 M513.186,575.921c0-3.482,2.814-6.299,6.301-6.299l0,0c3.486,0,6.299,2.816,6.299,6.299l0,0c0,3.486-2.812,6.301-6.299,6.301
						l0,0C516,582.222,513.186,579.407,513.186,575.921z M513.186,552.067c0-3.467,2.814-6.301,6.301-6.301l0,0
						c3.486,0,6.299,2.834,6.299,6.301l0,0c0,3.486-2.812,6.299-6.299,6.299l0,0C516,558.366,513.186,555.554,513.186,552.067z
						 M513.186,528.231c0-3.484,2.814-6.301,6.301-6.301l0,0c3.486,0,6.299,2.816,6.299,6.301l0,0c0,3.465-2.812,6.299-6.299,6.299
						l0,0C516,534.53,513.186,531.696,513.186,528.231z"/>
				</g>
			</g>
			<g>
				<g>
					<path fill="#FF3D2B" d="M519.486,510.677c-1.66,0-3.277-0.674-4.453-1.848c-1.176-1.178-1.848-2.793-1.848-4.453
						c0-1.658,0.672-3.277,1.848-4.451c2.354-2.354,6.553-2.354,8.904,0c1.176,1.174,1.848,2.793,1.848,4.451
						c0,1.66-0.672,3.275-1.848,4.453C522.762,510.003,521.145,510.677,519.486,510.677z"/>
				</g>
			</g>
		</g>
		<g>
			<g>
				<polygon fill="#FF3D2B" points="519.486,712.167 512.895,700.751 506.303,689.333 519.486,689.333 532.668,689.333 
					526.076,700.751 				"/>
			</g>
		</g>
	</g>
	<g>
		<g>
			<g>
				<rect x="366.76" y="219.976" fill="#46D6F7" width="302.629" height="190.734"/>
			</g>
		</g>
		<g>
			<g>
				<path fill="#FFFFFF" d="M392.6,243.243v2.098h-7.051v3.496h6.334v1.984h-6.334v3.535h7.279v2.098h-9.508v-13.211H392.6
					L392.6,243.243z"/>
			</g>
			<g>
				<path fill="#FFFFFF" d="M395.68,256.454v-13.211h2.23v11.094h6.029v2.117H395.68L395.68,256.454z"/>
			</g>
			<g>
				<path fill="#FFFFFF" d="M415.656,243.243v2.098h-7.051v3.496h6.334v1.984h-6.334v3.535h7.279v2.098h-9.508v-13.211H415.656
					L415.656,243.243z"/>
			</g>
			<g>
				<path fill="#FFFFFF" d="M427.66,244.396c0.918,0.77,1.381,1.953,1.381,3.555c0,1.6-0.471,2.771-1.41,3.514
					c-0.939,0.744-2.379,1.115-4.318,1.115h-2.344v3.875h-2.23v-13.211h4.537C425.279,243.243,426.74,243.628,427.66,244.396z
					 M426.08,249.849c0.447-0.473,0.674-1.164,0.674-2.08c0-0.912-0.285-1.559-0.852-1.936c-0.568-0.379-1.455-0.568-2.666-0.568
					h-2.268v5.293h2.59C424.793,250.558,425.635,250.321,426.08,249.849z"/>
			</g>
			<g>
				<path fill="#FFFFFF" d="M431.666,256.454v-13.211h2.229v5.727h6.559v-5.727h2.23v13.211h-2.23v-5.406h-6.559v5.406H431.666z"/>
			</g>
			<g>
				<path fill="#FFFFFF" d="M448.221,253.448l-1.322,3.006h-2.381l5.822-13.211h2.381l5.82,13.211h-2.381l-1.322-3.006H448.221z
					 M453.93,251.39l-2.4-5.443l-2.4,5.443H453.93z"/>
			</g>
			<g>
				<path fill="#FFFFFF" d="M470.277,243.243h2.23v13.211h-2.42l-7.484-9.639v9.639h-2.229v-13.211h2.229l7.674,9.865V243.243
					L470.277,243.243z"/>
			</g>
			<g>
				<path fill="#FFFFFF" d="M481.164,245.284v11.17h-2.23v-11.17h-4.006v-2.041h10.244v2.041H481.164z"/>
			</g>
			<g>
				<path fill="#FFFFFF" d="M491.588,244.981c-0.648,0-1.182,0.133-1.598,0.398c-0.414,0.264-0.625,0.664-0.625,1.199
					s0.211,0.945,0.625,1.229c0.416,0.283,1.301,0.59,2.654,0.916c1.355,0.328,2.375,0.787,3.062,1.381
					c0.688,0.592,1.029,1.463,1.029,2.617c0,1.152-0.432,2.088-1.303,2.807c-0.869,0.717-2.01,1.076-3.422,1.076
					c-2.064,0-3.898-0.711-5.498-2.135l1.398-1.682c1.336,1.158,2.721,1.738,4.156,1.738c0.719,0,1.289-0.154,1.711-0.463
					s0.633-0.719,0.633-1.229s-0.197-0.906-0.594-1.191c-0.398-0.283-1.08-0.541-2.051-0.775c-0.971-0.232-1.709-0.447-2.213-0.641
					c-0.502-0.197-0.951-0.451-1.342-0.766c-0.781-0.592-1.17-1.5-1.17-2.723s0.443-2.164,1.33-2.826
					c0.891-0.66,1.99-0.99,3.301-0.99c0.842,0,1.682,0.137,2.512,0.414c0.832,0.279,1.551,0.67,2.154,1.172l-1.191,1.682
					c-0.389-0.352-0.918-0.641-1.586-0.867C492.893,245.095,492.236,244.981,491.588,244.981z"/>
			</g>
			<g>
				<path fill="#FFFFFF" d="M514.578,243.243h2.232v13.211h-2.42l-7.486-9.639v9.639h-2.229v-13.211h2.229l7.674,9.865V243.243
					L514.578,243.243z"/>
			</g>
			<g>
				<path fill="#FFFFFF" d="M529.756,243.243v2.098h-7.051v3.496h6.334v1.984h-6.334v3.535h7.279v2.098h-9.508v-13.211H529.756
					L529.756,243.243z"/>
			</g>
			<g>
				<path fill="#FFFFFF" d="M538.865,256.454h-2.496l-5.309-13.211h2.494l4.064,9.865l4.062-9.865h2.496L538.865,256.454z"/>
			</g>
			<g>
				<path fill="#FFFFFF" d="M555.346,243.243v2.098h-7.051v3.496h6.334v1.984h-6.334v3.535h7.279v2.098h-9.508v-13.211H555.346
					L555.346,243.243z"/>
			</g>
			<g>
				<path fill="#FFFFFF" d="M568.971,247.534c0,2.18-0.949,3.553-2.852,4.119l3.457,4.801h-2.834l-3.156-4.441h-2.93v4.441h-2.23
					v-13.211h4.914c2.016,0,3.459,0.34,4.33,1.02C568.539,244.944,568.971,246.034,568.971,247.534z M566.006,249.405
					c0.453-0.391,0.68-1.018,0.68-1.881s-0.232-1.455-0.701-1.777c-0.465-0.32-1.297-0.482-2.492-0.482h-2.836v4.725h2.777
					C564.693,249.989,565.551,249.796,566.006,249.405z"/>
			</g>
			<g>
				<path fill="#FFFFFF" d="M579.594,245.323v3.627h5.859v2.061h-5.859v5.443h-2.229v-13.211h8.809l-0.021,2.08H579.594
					L579.594,245.323z"/>
			</g>
			<g>
				<path fill="#FFFFFF" d="M599.836,254.63c-1.336,1.305-2.986,1.957-4.951,1.957c-1.967,0-3.617-0.652-4.953-1.957
					c-1.334-1.303-2.004-2.93-2.004-4.875c0-1.947,0.67-3.572,2.004-4.877c1.336-1.303,2.986-1.955,4.953-1.955
					c1.965,0,3.615,0.652,4.951,1.955c1.334,1.305,2.004,2.93,2.004,4.877C601.84,251.7,601.17,253.327,599.836,254.63z
					 M598.201,246.36c-0.9-0.932-2.006-1.398-3.316-1.398s-2.416,0.467-3.318,1.398c-0.9,0.934-1.352,2.064-1.352,3.395
					c0,1.328,0.451,2.459,1.352,3.391c0.902,0.934,2.008,1.398,3.318,1.398s2.416-0.465,3.316-1.398
					c0.9-0.932,1.352-2.062,1.352-3.391C599.553,248.425,599.102,247.294,598.201,246.36z"/>
			</g>
			<g>
				<path fill="#FFFFFF" d="M615.199,247.534c0,2.18-0.949,3.553-2.852,4.119l3.457,4.801h-2.834l-3.156-4.441h-2.93v4.441h-2.23
					v-13.211h4.914c2.016,0,3.459,0.34,4.33,1.02C614.768,244.944,615.199,246.034,615.199,247.534z M612.234,249.405
					c0.453-0.391,0.68-1.018,0.68-1.881s-0.232-1.455-0.699-1.777c-0.467-0.32-1.299-0.482-2.494-0.482h-2.836v4.725h2.777
					C610.922,249.989,611.779,249.796,612.234,249.405z"/>
			</g>
			<g>
				<path fill="#FFFFFF" d="M627.562,250.028h2.23v4.516c-1.246,1.375-3.031,2.061-5.348,2.061c-1.955,0-3.59-0.641-4.906-1.928
					c-1.316-1.285-1.975-2.91-1.975-4.875c0-1.967,0.67-3.604,2.014-4.914c1.342-1.311,2.963-1.965,4.867-1.965
					c1.902,0,3.484,0.555,4.742,1.662l-1.191,1.701c-0.516-0.441-1.035-0.746-1.559-0.916c-0.521-0.17-1.129-0.256-1.822-0.256
					c-1.338,0-2.457,0.432-3.365,1.295c-0.906,0.863-1.359,1.996-1.359,3.402c0,1.404,0.439,2.531,1.322,3.383
					c0.881,0.85,1.951,1.275,3.203,1.275c1.254,0,2.303-0.27,3.146-0.812V250.028z"/>
			</g>
			<g>
				<path fill="#FFFFFF" d="M642.002,243.243v2.098h-7.051v3.496h6.332v1.984h-6.332v3.535h7.277v2.098h-9.506v-13.211H642.002
					L642.002,243.243z"/>
			</g>
			<g>
				<path fill="#FFFFFF" d="M650.072,245.284v11.17h-2.232v-11.17h-4.004v-2.041h10.242v2.041H650.072z"/>
			</g>
			<g>
				<path fill="#FFFFFF" d="M441.621,392.956h-3.527v-8.115l-7.645-12.436h3.793l5.615,9.348l5.615-9.348h3.793l-7.645,12.436
					V392.956L441.621,392.956z"/>
			</g>
			<g>
				<path fill="#FFFFFF" d="M468.404,390.118c-2.076,2.029-4.645,3.043-7.701,3.043c-3.059,0-5.627-1.014-7.703-3.043
					c-2.078-2.029-3.117-4.559-3.117-7.586s1.039-5.557,3.117-7.584c2.076-2.029,4.645-3.045,7.703-3.045
					c3.057,0,5.625,1.016,7.701,3.045c2.078,2.027,3.117,4.557,3.117,7.584S470.482,388.089,468.404,390.118z M465.861,377.257
					c-1.4-1.453-3.121-2.176-5.158-2.176c-2.039,0-3.76,0.723-5.16,2.176c-1.4,1.449-2.102,3.209-2.102,5.275
					c0,2.068,0.701,3.828,2.102,5.277c1.4,1.453,3.121,2.176,5.16,2.176c2.037,0,3.758-0.723,5.158-2.176
					c1.402-1.449,2.104-3.209,2.104-5.277C467.965,380.466,467.264,378.706,465.861,377.257z"/>
			</g>
			<g>
				<path fill="#FFFFFF" d="M480.518,388.251c0.941,1.1,2.215,1.646,3.822,1.646s2.881-0.547,3.822-1.646
					c0.939-1.098,1.41-2.586,1.41-4.469v-11.377h3.469v11.525c0,2.959-0.812,5.236-2.438,6.834
					c-1.629,1.598-3.717,2.396-6.264,2.396c-2.549,0-4.635-0.799-6.264-2.396c-1.625-1.598-2.438-3.875-2.438-6.834v-11.525h3.467
					v11.377C479.105,385.665,479.578,387.153,480.518,388.251z"/>
			</g>
			<g>
				<path fill="#FFFFFF" d="M514.887,379.077c0,3.393-1.48,5.529-4.441,6.412l5.383,7.467h-4.412l-4.91-6.91h-4.557v6.91h-3.467
					v-20.551h7.643c3.135,0,5.379,0.527,6.732,1.586C514.209,375.05,514.887,376.745,514.887,379.077z M510.27,381.989
					c0.705-0.607,1.059-1.582,1.059-2.926c0-1.342-0.363-2.264-1.088-2.762c-0.725-0.502-2.018-0.752-3.879-0.752h-4.412v7.35h4.324
					C508.23,382.899,509.564,382.597,510.27,381.989z"/>
			</g>
			<g>
				<path fill="#FFFFFF" d="M531.406,392.956h-3.467v-20.551h5.408l6.203,12.906l6.203-12.906h5.381v20.551h-3.469v-16.053
					l-7.174,14.26h-1.939l-7.146-14.26V392.956L531.406,392.956z"/>
			</g>
			<g>
				<path fill="#FFFFFF" d="M561.455,388.251c0.941,1.1,2.215,1.646,3.822,1.646s2.881-0.547,3.822-1.646
					c0.939-1.098,1.412-2.586,1.412-4.469v-11.377h3.467v11.525c0,2.959-0.811,5.236-2.438,6.834
					c-1.629,1.598-3.717,2.396-6.264,2.396c-2.549,0-4.635-0.799-6.262-2.396s-2.439-3.875-2.439-6.834v-11.525h3.469v11.377
					C560.045,385.665,560.516,387.153,561.455,388.251z"/>
			</g>
			<g>
				<path fill="#FFFFFF" d="M582.887,392.956h-3.469v-20.551h5.408l6.203,12.906l6.203-12.906h5.383v20.551h-3.471v-16.053
					l-7.174,14.26h-1.939l-7.145-14.26V392.956L582.887,392.956z"/>
			</g>
		</g>
		<g>
			<g>
				<g>
					<path fill="#D1D3D4" d="M509.414,278.228c-0.719-0.18-16.744-3.061-30.428,0c-13.684,3.062-20.709,21.969-10.08,31.689
						c10.621,9.725,18.191,25.508,33.223,11.043C517.158,306.499,509.414,278.228,509.414,278.228z"/>
				</g>
			</g>
			<g>
				<g>
					<path fill="#BCBEC0" d="M525.264,278.228c0.719-0.18,16.744-3.061,30.426,0c13.686,3.062,20.707,21.969,10.082,31.689
						c-10.621,9.725-18.191,25.508-33.223,11.043C517.52,306.499,525.264,278.228,525.264,278.228z"/>
				</g>
			</g>
			<g>
				<g>
					<path fill="#FFFFFF" d="M507.795,321.622c0,0-4.322,15.846-3.061,21.428c1.262,5.58-5.043-2.881-3.602-12.424
						C502.574,321.081,504.203,314.868,507.795,321.622z"/>
				</g>
			</g>
			<g>
				<g>
					<path fill="#EAEBEC" d="M526.881,321.622c0,0,4.322,15.846,3.062,21.428c-1.262,5.58,5.043-2.881,3.602-12.424
						C532.102,321.081,530.475,314.868,526.881,321.622z"/>
				</g>
			</g>
			<g>
				<g>
					<path fill="#E6E7E8" d="M544.619,298.396c0-12.656-12.213-22.918-27.281-22.918c-15.066,0-27.279,10.262-27.279,22.918
						c0,3.441,0.906,6.703,2.525,9.631c0.002,0.006,0.004,0.012,0.006,0.02c2.273,6.494,9.264,12.164,14.711,18.504
						c5.355,6.236,7.42,32.344,7.42,32.344h2.617h2.619c0,0,1.703-25.389,7.42-32.344c5.309-6.457,12.436-12.01,14.711-18.504
						c0.002-0.008,0.004-0.014,0.006-0.02C543.711,305.099,544.619,301.837,544.619,298.396z"/>
				</g>
			</g>
			<g>
				<g>
					<path fill="#D1D3D4" d="M542.088,308.046c0.002-0.008,0.004-0.014,0.006-0.02c1.617-2.928,2.525-6.189,2.525-9.631
						c0-12.656-12.213-22.918-27.281-22.918v83.416h2.619c0,0,1.703-25.389,7.42-32.344
						C532.686,320.093,539.812,314.54,542.088,308.046z"/>
				</g>
			</g>
			<g>
				<g>
					<circle fill="#404041" cx="535.291" cy="303.632" r="1.986"/>
				</g>
			</g>
			<g>
				<g>
					<circle fill="#404041" cx="499.389" cy="303.632" r="1.986"/>
				</g>
			</g>
		</g>
	</g>
	<g display="none">
		<g display="inline">
			<rect x="366.76" y="219.976" fill="#FF3D2B" width="302.629" height="190.734"/>
		</g>
		<g display="inline" enable-background="new    ">
			<path fill="#FFFFFF" d="M434.17,256.076v5.087h-12.736v5.271h11.457v4.868h-11.457v5.307h13.141v5.051h-18.852v-25.584H434.17z"
				/>
			<path fill="#FFFFFF" d="M460.414,264.567c0,4.099-1.623,6.747-4.867,7.942l6.479,9.15h-7.029l-5.672-8.162h-3.953v8.162h-5.711
				v-25.584h9.701c3.977,0,6.812,0.671,8.51,2.013C459.566,259.431,460.414,261.59,460.414,264.567z M453.533,267.605
				c0.707-0.634,1.061-1.641,1.061-3.02c0-1.378-0.365-2.324-1.098-2.836c-0.732-0.513-2.014-0.769-3.844-0.769h-4.281v7.577h4.172
				C451.496,268.557,452.824,268.24,453.533,267.605z"/>
			<path fill="#FFFFFF" d="M487.023,264.567c0,4.099-1.623,6.747-4.869,7.942l6.479,9.15h-7.027l-5.674-8.162h-3.953v8.162h-5.709
				v-25.584h9.699c3.977,0,6.814,0.671,8.51,2.013S487.023,261.59,487.023,264.567z M480.141,267.605
				c0.709-0.634,1.062-1.641,1.062-3.02c0-1.378-0.367-2.324-1.098-2.836c-0.732-0.513-2.014-0.769-3.844-0.769h-4.283v7.577h4.174
				C478.104,268.557,479.434,268.24,480.141,267.605z"/>
			<path fill="#FFFFFF" d="M514.145,278.128c-2.586,2.526-5.771,3.789-9.553,3.789c-3.783,0-6.967-1.263-9.553-3.789
				c-2.588-2.525-3.881-5.667-3.881-9.425c0-3.757,1.293-6.899,3.881-9.425c2.586-2.526,5.77-3.789,9.553-3.789
				c3.781,0,6.967,1.263,9.553,3.789c2.586,2.525,3.881,5.667,3.881,9.425C518.025,272.461,516.73,275.603,514.145,278.128z
				 M512.205,268.722c0-2.282-0.732-4.228-2.197-5.838c-1.463-1.61-3.264-2.416-5.398-2.416s-3.934,0.805-5.398,2.416
				c-1.463,1.611-2.195,3.557-2.195,5.838s0.732,4.222,2.195,5.819c1.465,1.599,3.264,2.397,5.398,2.397s3.936-0.799,5.398-2.397
				C511.473,272.943,512.205,271.003,512.205,268.722z"/>
			<path fill="#FFFFFF" d="M543.609,264.567c0,4.099-1.623,6.747-4.869,7.942l6.479,9.15h-7.027l-5.674-8.162h-3.953v8.162h-5.709
				v-25.584h9.699c3.977,0,6.814,0.671,8.51,2.013S543.609,261.59,543.609,264.567z M536.727,267.605
				c0.709-0.634,1.062-1.641,1.062-3.02c0-1.378-0.367-2.324-1.098-2.836c-0.732-0.513-2.014-0.769-3.844-0.769h-4.283v7.577h4.174
				C534.689,268.557,536.02,268.24,536.727,267.605z"/>
			<path fill="#FFFFFF" d="M557.92,270.606v-4.465h5.49v4.465h2.891v4.941h-2.891v6.112h-5.49v-6.112h-10.285v-4.356l9.113-15.116
				h6.223l-8.674,14.531H557.92z"/>
			<path fill="#FFFFFF" d="M580.467,281.953c-3.539,0-6.186-1.202-7.943-3.605c-1.758-2.403-2.635-5.612-2.635-9.626
				c0-4.014,0.877-7.223,2.635-9.626c1.758-2.403,4.404-3.605,7.943-3.605c3.537,0,6.186,1.202,7.941,3.605
				c1.758,2.404,2.635,5.613,2.635,9.626c0,4.014-0.877,7.223-2.635,9.626C586.652,280.751,584.004,281.953,580.467,281.953z
				 M576.695,262.554c-0.805,1.562-1.207,3.624-1.207,6.186s0.402,4.625,1.207,6.186c0.807,1.562,2.062,2.343,3.771,2.343
				c1.707,0,2.965-0.781,3.77-2.343c0.805-1.561,1.207-3.624,1.207-6.186s-0.402-4.624-1.207-6.186s-2.062-2.343-3.77-2.343
				C578.758,260.211,577.502,260.993,576.695,262.554z"/>
			<path fill="#FFFFFF" d="M604.695,270.606v-4.465h5.49v4.465h2.893v4.941h-2.893v6.112h-5.49v-6.112H594.41v-4.356l9.115-15.116
				h6.221l-8.674,14.531H604.695z"/>
			<path fill="#FFFFFF" d="M617.141,256.076h6.479v4.539l-1.098,13.177h-4.32l-1.061-13.177V256.076z M618.074,281.02
				c-0.623-0.622-0.934-1.384-0.934-2.288c0-0.902,0.311-1.666,0.934-2.288c0.621-0.622,1.385-0.933,2.287-0.933
				s1.666,0.311,2.287,0.933c0.623,0.622,0.934,1.385,0.934,2.288c0,0.903-0.311,1.666-0.934,2.288
				c-0.621,0.623-1.385,0.934-2.287,0.934S618.695,281.642,618.074,281.02z"/>
		</g>
		<g display="inline" enable-background="new    ">
			<path fill="#FFFFFF" d="M453.111,325.58l-2.379-5.527H440.01l-2.381,5.527h-6.074l11.053-25.585h5.527l11.053,25.585H453.111z
				 M445.389,307.608l-3.221,7.431h6.406L445.389,307.608z"/>
			<path fill="#FFFFFF" d="M480.051,299.995h5.711v25.585h-5.711l-12.188-16.031v16.031h-5.711v-25.585h5.344l12.555,16.471V299.995
				z"/>
			<path fill="#FFFFFF" d="M492.055,299.995h5.711v25.585h-5.711V299.995z"/>
			<path fill="#FFFFFF" d="M526.973,309.476l-6.918,13.981h-3.404l-6.881-13.981v16.104h-5.709v-25.585h7.723l6.588,14.056
				l6.625-14.056h7.688v25.585h-5.711V309.476z"/>
			<path fill="#FFFFFF" d="M557.205,325.58l-2.379-5.527h-10.723l-2.381,5.527h-6.074l11.053-25.585h5.527l11.053,25.585H557.205z
				 M549.482,307.608l-3.221,7.431h6.406L549.482,307.608z"/>
			<path fill="#FFFFFF" d="M566.246,325.58v-25.585h5.711v20.497h10.906v5.088H566.246z"/>
			<path fill="#FFFFFF" d="M593.02,305.102c-0.549,0.451-0.822,1.049-0.822,1.793c0,0.745,0.334,1.336,1.006,1.775
				s2.221,0.958,4.648,1.556c2.428,0.599,4.312,1.495,5.654,2.69s2.014,2.94,2.014,5.234c0,2.293-0.859,4.154-2.58,5.581
				c-1.721,1.428-3.984,2.142-6.789,2.142c-4.051,0-7.699-1.501-10.945-4.502l3.404-4.173c2.758,2.416,5.309,3.624,7.65,3.624
				c1.049,0,1.873-0.226,2.471-0.678c0.598-0.451,0.896-1.062,0.896-1.83s-0.318-1.378-0.951-1.83
				c-0.635-0.451-1.893-0.908-3.77-1.372c-2.979-0.708-5.156-1.629-6.535-2.764s-2.066-2.916-2.066-5.344s0.871-4.301,2.617-5.618
				c1.744-1.318,3.922-1.977,6.533-1.977c1.707,0,3.416,0.293,5.123,0.878c1.709,0.586,3.197,1.416,4.467,2.489l-2.893,4.173
				c-2.221-1.685-4.514-2.526-6.881-2.526C594.32,304.424,593.57,304.65,593.02,305.102z"/>
		</g>
		<g display="inline" enable-background="new    ">
			<path fill="#FFFFFF" d="M419.658,343.919h5.709v25.585h-5.709l-12.189-16.031v16.031h-5.709v-25.585h5.344l12.555,16.471V343.919
				z"/>
			<path fill="#FFFFFF" d="M453.186,365.972c-2.588,2.525-5.771,3.788-9.555,3.788c-3.781,0-6.967-1.263-9.553-3.788
				s-3.879-5.667-3.879-9.425s1.293-6.899,3.879-9.425s5.771-3.788,9.553-3.788c3.783,0,6.967,1.263,9.555,3.788
				c2.586,2.525,3.879,5.667,3.879,9.425S455.771,363.446,453.186,365.972z M451.244,356.565c0-2.281-0.73-4.228-2.195-5.838
				s-3.264-2.416-5.398-2.416c-2.137,0-3.936,0.806-5.398,2.416c-1.465,1.61-2.197,3.557-2.197,5.838s0.732,4.222,2.197,5.819
				c1.463,1.599,3.262,2.397,5.398,2.397c2.135,0,3.934-0.799,5.398-2.397C450.514,360.787,451.244,358.847,451.244,356.565z"/>
			<path fill="#FFFFFF" d="M472.033,348.86v20.644h-5.709V348.86h-7.248v-4.941h20.205v4.941H472.033z"/>
			<path fill="#FFFFFF" d="M510.686,343.919v5.015h-11.859v5.527H510.1v5.014h-11.273v10.029h-5.711v-25.585H510.686z"/>
			<path fill="#FFFFFF" d="M537.039,365.972c-2.588,2.525-5.771,3.788-9.555,3.788c-3.781,0-6.967-1.263-9.553-3.788
				s-3.879-5.667-3.879-9.425s1.293-6.899,3.879-9.425s5.771-3.788,9.553-3.788c3.783,0,6.967,1.263,9.555,3.788
				c2.586,2.525,3.879,5.667,3.879,9.425S539.625,363.446,537.039,365.972z M535.098,356.565c0-2.281-0.73-4.228-2.195-5.838
				s-3.264-2.416-5.398-2.416c-2.137,0-3.936,0.806-5.398,2.416c-1.465,1.61-2.197,3.557-2.197,5.838s0.732,4.222,2.197,5.819
				c1.463,1.599,3.262,2.397,5.398,2.397c2.135,0,3.934-0.799,5.398-2.397C534.367,360.787,535.098,358.847,535.098,356.565z"/>
			<path fill="#FFFFFF" d="M552.52,362.897c0.953,1.184,2.232,1.775,3.844,1.775s2.885-0.592,3.824-1.775s1.41-2.8,1.41-4.85
				v-14.129h5.709v14.312c0,3.709-1.023,6.558-3.074,8.547c-2.049,1.989-4.672,2.982-7.869,2.982s-5.826-1-7.887-3.001
				c-2.062-2.001-3.094-4.844-3.094-8.528v-14.312h5.709v14.129C551.092,360.098,551.568,361.714,552.52,362.897z"/>
			<path fill="#FFFFFF" d="M591.135,343.919h5.709v25.585h-5.709l-12.189-16.031v16.031h-5.709v-25.585h5.344l12.555,16.471V343.919
				z"/>
			<path fill="#FFFFFF" d="M622.686,347.269c2.439,2.232,3.66,5.338,3.66,9.314c0,3.979-1.189,7.126-3.57,9.443
				c-2.379,2.319-6.008,3.478-10.889,3.478h-8.748v-25.585h9.041C616.742,343.919,620.244,345.035,622.686,347.269z
				 M618.494,362.477c1.402-1.317,2.104-3.233,2.104-5.747c0-2.513-0.701-4.446-2.104-5.801c-1.404-1.354-3.557-2.031-6.461-2.031
				h-3.184v15.556h3.623C615.084,364.453,617.09,363.794,618.494,362.477z"/>
			<path fill="#FFFFFF" d="M630.664,343.919h6.479v4.539l-1.098,13.177h-4.32l-1.061-13.177V343.919z M631.598,368.863
				c-0.623-0.622-0.934-1.385-0.934-2.287c0-0.903,0.311-1.666,0.934-2.288c0.621-0.622,1.385-0.934,2.287-0.934
				s1.666,0.312,2.287,0.934c0.623,0.622,0.934,1.385,0.934,2.288c0,0.902-0.311,1.665-0.934,2.287
				c-0.621,0.622-1.385,0.934-2.287,0.934S632.219,369.485,631.598,368.863z"/>
		</g>
	</g>
</g>
<g id="Immobiles" display="none">
	<rect x="-61" y="-87.594" display="inline" fill="#262525" width="612" height="87.594"/>
</g>
</svg>
